/* XPM */
static char *_43222a86f2e4a98f9055d6f5007a610WdZc5mqqAK3Z2GaS[] = {
/* columns rows colors chars-per-pixel */
"64 64 242 2 ",
"   c #060502",
".  c #090603",
"X  c #0C0A06",
"o  c #0E0D09",
"O  c #070906",
"+  c #120C07",
"@  c #1C0D05",
"#  c #110E0A",
"$  c #1A0D08",
"%  c #0C140C",
"&  c #14120E",
"*  c #1A140D",
"=  c #19190B",
"-  c #0E1B13",
";  c #0C1D19",
":  c #161511",
">  c #191511",
",  c #141B14",
"<  c #1B1A15",
"1  c #1D1D19",
"2  c #270D05",
"3  c #3C0C05",
"4  c #320C04",
"5  c #23140A",
"6  c #2B1309",
"7  c #241A0D",
"8  c #2B1C0B",
"9  c #281406",
"0  c #331106",
"q  c #33150A",
"w  c #3C160A",
"e  c #321C0D",
"r  c #3C1708",
"t  c #241D13",
"y  c #2A1D11",
"u  c #221F1A",
"i  c #0E231A",
"p  c #13241B",
"a  c #1E211B",
"s  c #132419",
"d  c #2D210D",
"f  c #37250D",
"g  c #2C2214",
"h  c #21211C",
"j  c #2A2418",
"k  c #332514",
"l  c #372918",
"z  c #39331F",
"x  c #142D23",
"c  c #193627",
"v  c #222923",
"b  c #243628",
"n  c #3B3522",
"m  c #2B392B",
"M  c #440C05",
"N  c #4A0E06",
"B  c #570F06",
"V  c #4B1005",
"C  c #4B1409",
"Z  c #461B0C",
"A  c #4B1A0B",
"S  c #441507",
"D  c #541309",
"F  c #551B0C",
"G  c #591509",
"H  c #551D11",
"J  c #631309",
"K  c #68180B",
"L  c #7C190D",
"P  c #76170B",
"I  c #47220E",
"U  c #59220C",
"Y  c #462B14",
"T  c #552813",
"R  c #43321C",
"E  c #493517",
"W  c #573919",
"Q  c #69250D",
"!  c #76240E",
"~  c #682A13",
"^  c #772711",
"/  c #623818",
"(  c #753416",
")  c #4C3B22",
"_  c #483722",
"`  c #543C22",
"'  c #793E22",
"]  c #1C443A",
"[  c #274436",
"{  c #314834",
"}  c #59441C",
"|  c #67451D",
" . c #76471C",
".. c #584428",
"X. c #49492D",
"o. c #674A27",
"O. c #754923",
"+. c #6B542B",
"@. c #775829",
"#. c #765833",
"$. c #664B31",
"%. c #7D6738",
"&. c #295647",
"*. c #385847",
"=. c #305246",
"-. c #286253",
";. c #386655",
":. c #337466",
">. c #154E49",
",. c #426C58",
"<. c #45745E",
"1. c #796C46",
"2. c #497967",
"3. c #537E6C",
"4. c #435E46",
"5. c #871B0E",
"6. c #873110",
"7. c #90481B",
"8. c #AF5A18",
"9. c #B5671E",
"0. c #874B26",
"q. c #845A2A",
"w. c #895627",
"e. c #955728",
"r. c #855D33",
"t. c #955E35",
"y. c #944E27",
"u. c #A75D2B",
"i. c #A55E31",
"p. c #85642C",
"a. c #95652A",
"s. c #8B6434",
"d. c #886738",
"f. c #966837",
"g. c #987839",
"h. c #8B7038",
"j. c #A56835",
"k. c #B66B34",
"l. c #A6783A",
"z. c #BA763C",
"x. c #AC692A",
"c. c #C66A1B",
"v. c #C47C3C",
"b. c #C5763A",
"n. c #C97A33",
"m. c #977845",
"M. c #8C7347",
"N. c #A87945",
"B. c #B67A42",
"V. c #CA7C43",
"C. c #DA7E45",
"Z. c #568B73",
"A. c #58937A",
"S. c #4B846F",
"D. c #698C71",
"F. c #A6843E",
"G. c #B78139",
"H. c #9F803F",
"J. c #D18837",
"K. c #E29427",
"L. c #9F8253",
"P. c #A78648",
"I. c #B88548",
"U. c #B59349",
"Y. c #B99858",
"T. c #AB8D54",
"R. c #BCA25D",
"E. c #B7AA72",
"W. c #CD8444",
"Q. c #C88746",
"!. c #D58C4B",
"~. c #D68946",
"^. c #C7954B",
"/. c #DB934F",
"(. c #D7964B",
"). c #C79558",
"_. c #D69452",
"`. c #DB9552",
"'. c #DD9B55",
"]. c #D69A56",
"[. c #D38D51",
"{. c #E4954D",
"}. c #E59C55",
"|. c #EA8C52",
" X c #C6A558",
".X c #D8A659",
"XX c #DAB25A",
"oX c #E3A45B",
"OX c #E9A558",
"+X c #F3AB5D",
"@X c #C79963",
"#X c #D99D60",
"$X c #CAA567",
"%X c #DAA765",
"&X c #D8B768",
"*X c #D7BA75",
"=X c #CFAF6E",
"-X c #E6AA63",
";X c #ECB364",
":X c #E8B56A",
">X c #F4B364",
",X c #F5BA6C",
"<X c #F4B76B",
"1X c #ECBB74",
"2X c #E8B876",
"3X c #F4BC75",
"4X c #F3A964",
"5X c #DBC279",
"6X c #DDC06E",
"7X c #E6C46D",
"8X c #EDC37D",
"9X c #E7C879",
"0X c #F4C47B",
"qX c #F9C97B",
"wX c #F0CD77",
"eX c #3D8C84",
"rX c #589884",
"tX c #679984",
"yX c #6BA586",
"uX c #7BAC94",
"iX c #7AB297",
"pX c #6DA68F",
"aX c #8BB492",
"sX c #8CBEA3",
"dX c #C8BC88",
"fX c #E4BC85",
"gX c #9AC5A8",
"hX c #8EC1A6",
"jX c #A7CAAC",
"kX c #ABCEB0",
"lX c #97C49F",
"zX c #DDC884",
"xX c #EBC483",
"cX c #E7C986",
"vX c #F9CB83",
"bX c #F5CB87",
"nX c #EED382",
"mX c #E8D38B",
"MX c #F8D389",
"NX c #FAD997",
"BX c #F0CF92",
"VX c #FDE19D",
/* pixels */
"< 1 u h v h h h u u 1 1 h 1 1 h 1 1 1 1 < 1 1 1 1 < < < u j _ ` o.o.+...Y d & & & o & # & & & , > > > > # > > : & > > > > & > > ",
"1 1 a h v 1 u h 1 1 1 1 h h h h 1 1 a 1 < < < < > < 1 j ` +.d.f.s.s.s.@.O.| E = # & & & & : & & : : : > > : > # # : > > > & > 5 ",
"1 1 h h h 1 1 1 h 1 1 1 h h h h 1 1 1 < < < < > < 1 R ` +.r.#.#.r.s.a.a.@. . . .d # & & : : , < : < : : > : : & > & > > > & > < ",
"1 1 1 h 1 < , < 1 1 1 1 1 1 1 1 1 1 < < : < < < < n $.$.+.$.#.f.B.I.Q.G.f.@.w.w.w.f + & & & < * & : & : > > : > & > > > < > > < ",
"1 < a v 1 > , < > 1 1 1 h h 1 1 < 1 : > > 1 < u h ....$.) $.d.I.^..X'.J.z.l.w.B.x.j.f * & & & & # * > > & & : # & $ > > > > > > ",
"< 1 u a < > < < < 1 1 1 1 1 1 > 1 < > > < u < < n ....$.) #.f.B.^.(.J.G.G.Q.I.:X1X'.l.h > : & > # : > > : : & & & > > > > > > > ",
"1 1 u 1 < < < < < < 1 h h 1 1 > 1 < , > > 1 t < _ _ .._ X.$.M.m.G.G.I.-XqXMXNXNXNXNXbX#.& : : & # * # & & : # & & > > $ > > > > ",
"< 1 1 1 < < < < < < 1 a h 1 < < > 1 > < < > < t ) _ _ l ` $.#.#.d.f.[.;XqXMXNXVXVXVXbXB.# : : > * > > > > : & & > & > > > > > > ",
"< 1 1 1 < : < < < < 1 a 1 < < < , > > > < < > t j l l j ) $.#.r.#.t.Q._.%X*X*X*X2X*X2X).# : : : > > > > > > & # & & & > > > > > ",
": : : : < < , < < 1 a a 1 1 < : > : , > : < > u l l z l o.t.m.l.j.V.OX>XvXMXNXMXVXNXNX3X5 & : : # > > > > > & > > & & & > $ > > ",
": : < : : < < , , < 1 1 < 1 : : : , > : > < > u v g l j ` q.f.j.j./.OXoXoXOX>X3X0XqX0X>XY # & > > # & & > > & > & > & & > & $ > ",
"< , : : : : : : < 1 1 < : < : : : > > : > > > < j y j j _ O.q.w.i.n.!.}.OX}./.<XMXMX:X4X) # & & > # # & > # # > & & & & & $ > > ",
"< < : : : : & , < 1 < < : < : : : : : & : : : : y y l j l ) o.O.e.k.k.B.N.b.b.W.qX:XI.N.y # & : # # & & > > $ # > & & & & > > > ",
": : < : : : : : < < : : : : : : : & : & : : & & y j k v l E / O.W.V.i.I.' B.b.n.0X-X).s.$ # & & # # & # & > > # # # $ # & $ > & ",
": : : : : : : , , < ; & : : : : : & & & : : : : t j l j l R o.O.}.+X{.OX:X0XOX{.>XvXvX8X# # : & > # # & > > > # # # & # & # $ & ",
": : : : : : : : : : : : : : o : & & : : : : : & t j l j k f W 0.{.4X>X0X0XvX>X}.,XvXVXVXy # # # # > # > > > > $ # # & # # # & & ",
": : # : : : : : & : & : : ; # & & : & : : : & : < g g j y k T w.J.|.,XvXvXvX<XOX<XvXNXNX> X # # # > # # & > > & o o & # # # & # ",
": : : : : : : % & : : : & # % & & & : : : : # : & > y g t g R y.b.~.4X3XvXqX<X+X4XvXbXxX$ o # & > & # # & & & & o o # # # # # # ",
": # : : : : : # % & : : # # & & : & : : & & & : : * y y 7 7 Y e.b.n.|.4X3X3X>X}.|.3XvX@XX & # & & & # # & : & # X X # # o # # # ",
"% # # : : : # : & & : % # # & & & & & : ; : & & & * t g 7 = y 0.b.n.|.|.<XqX>Xn.Q.1XBXd.X & # # & & # # & : # # X X X # o # # # ",
"& & & & % # # & & & & % & & & & & # & & & & & & & : t R e t 5 0.b.C.~.{.,X,X>X+X3XbX3Xl # & X o # # X o # # # X # X X X o # o o ",
"& & & & o o # % o o o & & & o # & & & & & & & & & & g E $.Y t O.b.C.~.{.+X+XJ.|.|.4XL.# # # o o > # # o # o # O X X X # X o # # ",
"o & % # o o # % o % & o & o # # & & : & # # & # # * y } f.V.Y f b.~.~./.{.>X>X|.}.3XR # & & o o # # # o # O X o X X X # X o o # ",
"& & # o # o # # o & o o & & # & & & & : # # & & # & t ..f./.z.W 0.n.~.W.~.OX<X3XqX@X$ # & : & # # # # X o O X O X X X o X X X # ",
"& ; o o o o o o o % o o & & & & & & & & # # & # # # y ` f.`.`.`.j.y.k.b.b.C.}.3XvXM.+ + $ & # o % O X X o . . . O X X o X o o X ",
"& & # o & o & & & o o & & & & & # & & o # o & # # X 5 _ f./.!.}.}.W.y.y.u.k.V._.).l X X # # o o X X X o o O X O O X o O O o O X ",
"% & # # & o o & # # & & ; & & # o & & o # & # # # X t E r.`./.'.}./.z.i.y.e.) ) 2 . . X X o # X X . X X O X . O X X O o X o o X ",
"o & o o # o o o # # & ; & & # # o o o o # $ # # + # y ` O./.`.'.'._.V.i.k.j.l m.M.> . X X o X X X . X X O . . O X X O o X . X X ",
"o o o o o o o % # # o & & & o o o & # # & > > $ # * 5 l _ [.`.'.`.[.V.b.N.d.M.@XfX@X_ X X X X X O   . . X . . O X X X X X X X X ",
"o o o o o o o & & o o & # ; o o o o & & & > > > : 5 o.` ..B.|.`.`.C.V.N.r.#Xm.fXBXBXfX_ O . X O O O . . O . . . o X O X . O X X ",
"o O o o o o o # o o & & & & o o & O & & > # > > j f.B.$.B.#.B.B.B.t.t.T.4X#XT.NXNXNXNXfXz . . O O   . . O . . . O X O . . . X O ",
"o o o o o o # & o o o o # o o o & & & ; & > > u j.V.N.#.~.V.f.r.f.B.oX4X3X@XdXNXNXNXNXNX=Xl . . .     O . . O O . X . O X O   X ",
"o o o o X o % o o # X X # + # # # & & & * y 8 o.V.W.f.f.!.[.[.|.#X}.+X7X>XL.xXMXMXNXNXNXbX@X< O X         . . O . X . O .   . O ",
"o o o o o X o o o X X X # # # # o & & y T Y 8 f.C.!.d.P./._.[.#X}.oX>X0X-Xm.vXvXvXBXNXbXbX2X1.< O           O . . . . . . O . O ",
"# o X X X o o X X X X + X $ # # & & T ( ~ Y Y b.!.!.d.].`._.#X}.`.OX>X:XY.Y.qXvXvXvXbXbXfXdXkXaXh X O   O   X         . .   O X ",
"# X O X X O X X X X X X X # # # & 8 ( ( ~ k W V.!._.d.-XoX%X#XoX#X-X;X<XN.=X3X0X0XqXMXnXdXkXkXgXtXx X         X . O       . . X ",
"X X X X X o X X X o X X # # # # & k ^ ( T 8 w.v.(._.M.:X2X2X2X<X;X;X7X1XL.xXbXbXMXBXMXcXsXaXlXgXsXuXm X O O . .         . . . . ",
"# X X o X X X X o X X X + # + # : d ^ ^ T d w.W.~.^.P.;X3X3X3X2X>X;X;XY.Y.fXxXxXnXwXcXaXA.iXgXkXkXjXtXx       O       . . . . X ",
"o X X X X X # o o X o # # # # & % d ~ Q I d f.Q.Q.I.Y.1X3X1X3X<X-X4X;XH..X:X-X^.wXwXE.A.A.yXA.yXsXsXjXtX& O .           .   . . ",
"o X o X X # X o o X o # # X # * = f ( Q I f j.Q.(.N.%XvX0X8X<X:X;XoXG..X6X7X6X&X7XwXZ.-.-.-.:.eXiXsXjXsX*..   .       O . . . . ",
"X # X + X + X X X + # # + + $ 5 = f ! ~ f f z.^.].m.xXbX0X3X+XoX.Xl.U.XXwXwXmXwX9XU.s s c >.:.eXpXsXjXgXA.a . .   . .   . . . . ",
"X X X X + X X X X + # X X X 6 t = f ~ Q f f z.(.%XL.bXbX8X-XoXoXI.q.U.XXwXwXVXnXwXD.% = ] -.-.eXiXsXgXjXuX{ . . .   . . .   . . ",
"X . X + + X X X X X X + + X N e - d ~ Q e f B.].@Xm.0X0X;X/.[.oXp.@.H. X6XwXnXwXwXR.z x i x ] &.:.iXgXgXuX4.  . . . . . .   . + ",
"X + X X . . X X . X + X X $ C e = = ~ Q 8 d Y R _ ` %.m.B.z.[.oXp.d.T.U.&X6XwXwXwXXXX.- % s c -.S.rXlXsXiX,.O . . . . . . . . . ",
"+ X X X X X X X X + X + + 9 A 8 & = U U Z r f 8 t y y 8 8 8 f R } h.R. XXXF. X7XnXwX%.s - s [ -.A.yXiXpXpX<.%   . . . . . . . . ",
"+ X X + + + + . + X X X + 0 S 6 o = 6 A A I A A 6 e e 5 7 e y y 7 E h.U.&XP.F.XX9XmXXX{ s [ [ { S.iXtX3.A.2.= O . . . . . . . . ",
"X X X X + X + X + X X + 2 3 S 0 % = S U A r 0 0 y 6 5 $ 6 w D Z 7 d o.@.@.H.R. X&X7XwX+.= s *.:.:.aXZ.2.yXZ.* . . . . . . . . . ",
"X X X + X + + X X X + X 2 4 0 0 % = U F A S 0 q 5 5 5 5 5 q H T T d } o.@.| +.L. X XR.X.s m { <.3.pX2.2.D.A., . . . . . . . . . ",
"+ X + X + + X X + + X $ 4 2 4 0 & = I U F F Z Z ..$.` ` ~ 0.u.k. .f o.} } R X.M.l d = s i - s [ ,.A.,.,.=.Z.x . . .   . . . . . ",
"X X + X X X X + + + # 6 6 2 2 0 = , T ( ( s.N.@XxXbXfX2X/.~.V.oX$Xm.s.@.+.E @.R.% % % % O % - c &.,.4.,.x 2.m . . . .         . ",
"+ . X X X + X # + X 4 6 5 5 2 0 l 1.@X$XxX8XxXfXxXvXxX#XV.k.u.x.Q.oX1X2XY.U.Y.&X= n { = s x c { 3.M.#.,.; -.=.. . .           . ",
". . . X X # # X X + w S w 6 q T ).xX8X2X8XxXcXzXxXxXxXoXt.~ H / l.l.a.l..X6X9X9X1.E.5XR.s i m D.z.7.O.,.; m *.. . .   O     O   ",
". . . + X X X X 6 w w w 6 7 / [.:X*X:X2X2X*XfXcXxX3X1X-X:X=X).).).I.p.@.G.*XmXmXH.} T.6XL.c %.G.7.P s.*.% x =..         .       ",
". . X + + X # q A C w q 6 q j.].%X%X-X%X%X%X:X2X2X:X(.W.Q.Q.].%X:X:X:X%X XXXcXmXL.+.h.R.U.a.K.9.K L g.{ - i [ .                 ",
"+ X X + X # 6 A Z Z w y H ^ z.Q._.].'.!.W.W._..X:X-X-X_.0.T | w.q.w.a.j.^.XX&XmX*X} = +.J.K.9.J P 5.a.{ i % x O                 ",
"+ $ $ * k e 6 e q q q A K P k.Q.V.v.v.b.b.v.J.Q.]._.].%X%XI.a.f.w. ./ W W p.$X5XzXz W 9.c.8.G B L ! a.v i - s O .               ",
"= @ * R W T F F H H J D D K y.i.e.u.y.u.k.k.z.J.V.b.x.x.k.z.k.n.J.v.J.x.a.P.5XmX*Xw.c.c.6.G J B 5.6.0.s i - p .                 ",
"$ # 7 e Z F C C J J D 3 C K ^ 0.y.7.I I  .e.u.x.k.k.u.x.j.e.7.e.y.e.w.@.P.R.5XmX.Xc.9.6.K N J J L (  .s x % ;                   ",
"# * 6 D V D C V D N M 3 C Q K ~ ( / 9 @ 2 9 6 r I I T } @.0.@.w.q.T.Y.g.F.P.R.mX~.8.5.J K M J P L 6.| - i % ;                   ",
"+ @ C N V B M M N M N N K L H ^ S 9 @ @ @ 2 @ @ @ @ @ = f Y +.H.R.*X&XH.H.h.R.5X8.! B P J N M P 5.7.W i ; % -                   ",
"+ 2 M 3 V 3 M 3 N V G Q ^ H ! D 9 d 8 = @ @ @ @ * @ f } #.L.$X5X5X5X5XF.h.@.U.F.P P J B J J M K ! 8.E - % % -                   ",
"2 4 3 3 M 4 3 V B K Q ! H K J q = Y f 8 9 9 d f Y W @.g.R.*XmX5X5X*XR.H.P.H.XXe.5.5.5.P P L B P 6.8.X.- % % %                   ",
"2 4 3 3 3 M V F K Q U I A ! r 9 Y } d 9 f E | %.H.U. X5XzXzXmX9X5X6XF.p.h.=XzX0.J B B B J 5.5.L 7.8.n - o - O                   ",
"2 4 3 3 M V F Q U S f r F F 0 f } f = d E } %.P.R.$X5X5XzXzXmX5X5X=Xg.@.h.*X=X( J P P P P 5.5.Q 8.7.[ - o , O                   "
};
