/* XPM */
static char *result[] = {
/* columns rows colors chars-per-pixel */
"64 64 231 2 ",
"   c #17171A",
".  c #1C1C1D",
"X  c #19181A",
"o  c #251C16",
"O  c #2C1E16",
"+  c #211D1A",
"@  c #2B1F18",
"#  c #311F19",
"$  c #2D2216",
"%  c #25241E",
"&  c #2B231A",
"*  c #2C2A1D",
"=  c #292619",
"-  c #342416",
";  c #3A2615",
":  c #352A15",
">  c #3C2A16",
",  c #322519",
"<  c #3B271B",
"1  c #342B1B",
"2  c #3C2C1A",
"3  c #3C321C",
"4  c #3B3117",
"5  c #1D1E21",
"6  c #201E20",
"7  c #1E2123",
"8  c #1F2428",
"9  c #242423",
"0  c #282722",
"q  c #272824",
"w  c #2C2C24",
"e  c #252529",
"r  c #262929",
"t  c #2C2D29",
"y  c #28272B",
"u  c #312E24",
"i  c #312F29",
"p  c #392925",
"a  c #2F3025",
"s  c #2F302A",
"d  c #323226",
"f  c #3A3323",
"g  c #33342B",
"h  c #39362A",
"j  c #37382C",
"k  c #3A392D",
"l  c #3A3927",
"z  c #2F2F31",
"x  c #363631",
"c  c #383730",
"v  c #373831",
"b  c #3A3A32",
"n  c #422615",
"m  c #432B16",
"M  c #4B2C16",
"N  c #442D19",
"B  c #4B2D19",
"V  c #422619",
"C  c #512F19",
"Z  c #512F13",
"A  c #453316",
"S  c #44341B",
"D  c #4B331B",
"F  c #473A1D",
"G  c #4B3A1D",
"H  c #493217",
"J  c #553215",
"K  c #53331A",
"L  c #5A351B",
"P  c #5B391D",
"I  c #57381A",
"U  c #633C1D",
"Y  c #693D1F",
"T  c #442F25",
"R  c #5C2E22",
"E  c #433523",
"W  c #4C3521",
"Q  c #453B23",
"!  c #4B3B22",
"~  c #43322A",
"^  c #423C2C",
"/  c #4C3D2B",
"(  c #553621",
")  c #543C23",
"_  c #5B3C24",
"`  c #5A3725",
"'  c #4C3B32",
"]  c #443B32",
"[  c #533C32",
"{  c #5F3F30",
"}  c #633C22",
"|  c #683D27",
" . c #54411F",
".. c #4A412B",
"X. c #534223",
"o. c #5B4325",
"O. c #54432B",
"+. c #5B452B",
"@. c #5D4A2B",
"#. c #444032",
"$. c #4C4639",
"%. c #4F4735",
"&. c #554534",
"*. c #5E4C33",
"=. c #5C4D3B",
"-. c #574836",
";. c #644023",
":. c #6B4325",
">. c #63442B",
",. c #6A452A",
"<. c #634C2C",
"1. c #6A4B2C",
"2. c #634824",
"3. c #734C2D",
"4. c #73492C",
"5. c #65502E",
"6. c #6A522E",
"7. c #634C33",
"8. c #6B4C33",
"9. c #674737",
"0. c #734D32",
"q. c #665133",
"w. c #6C5334",
"e. c #665439",
"r. c #6A533C",
"t. c #6C593D",
"y. c #66593C",
"u. c #745335",
"i. c #7B5337",
"p. c #715D36",
"a. c #72543B",
"s. c #7C563B",
"d. c #735B3A",
"f. c #7B5A3B",
"g. c #785C37",
"h. c #7A613A",
"j. c #4D4B43",
"k. c #534E42",
"l. c #5B5243",
"z. c #6A5444",
"x. c #6A5A49",
"c. c #665746",
"v. c #745740",
"b. c #735D42",
"n. c #7C5B41",
"m. c #725D4B",
"M. c #7E5D49",
"N. c #7D6344",
"B. c #7C634B",
"V. c #7D6A4C",
"C. c #7A6347",
"Z. c #6F6353",
"A. c #7C6650",
"S. c #776956",
"D. c #746951",
"F. c #815A3A",
"G. c #88573C",
"H. c #866B3F",
"J. c #825D42",
"K. c #895F40",
"L. c #836444",
"P. c #896444",
"I. c #836845",
"U. c #84664A",
"Y. c #88644A",
"T. c #846A4B",
"R. c #8C6C4C",
"E. c #8A6C44",
"W. c #936B4B",
"Q. c #9B6D4C",
"!. c #926947",
"~. c #8D704D",
"^. c #856B54",
"/. c #8C6D53",
"(. c #846E59",
"). c #916E52",
"_. c #8D7354",
"`. c #84725C",
"'. c #8B735B",
"]. c #8A7558",
"[. c #937455",
"{. c #997D57",
"}. c #92775B",
"|. c #957B5C",
" X c #9B7C5C",
".X c #9A7756",
"XX c #9A724E",
"oX c #A27A55",
"OX c #A87F5C",
"+X c #8E7A63",
"@X c #827660",
"#X c #957D62",
"$X c #9A7E62",
"%X c #927B66",
"&X c #99825E",
"*X c #A18158",
"=X c #978263",
"-X c #9B8364",
";X c #9C856A",
":X c #9D8A6D",
">X c #99876A",
",X c #9C8F77",
"<X c #A38463",
"1X c #A48A66",
"2X c #A48C6C",
"3X c #A98E6B",
"4X c #A88867",
"5X c #A6926E",
"6X c #AC926D",
"7X c #A49372",
"8X c #AB9472",
"9X c #AC9875",
"0X c #AC9679",
"qX c #AD9B7B",
"wX c #A69678",
"eX c #B19B75",
"rX c #B29E7C",
"tX c #B09775",
"yX c #AA9571",
"uX c #B5A17D",
"iX c #B9A57E",
"pX c #B29F80",
"aX c #AEA184",
"sX c #B6A382",
"dX c #B9A581",
"fX c #BBAA86",
"gX c #BCAC8A",
"hX c #B7A987",
"jX c #BFB08F",
"kX c #C1B28F",
"lX c #C2B492",
/* pixels */
"g d d u d d g g g t t s d z w t a * a * * a a g a j j s u i d g h g h g x c x i x x x g g g g g i g x g g g g g x x j j c g g x ",
"d t d t d u d d u t d d d g t d * a a d a * a g j j v a h d d d h f h h p g g g g g g s g g x g x g h j h b x g g b j j j g g x ",
"d w d w u u d u d 0 t 0 d d d t a a a d a a g a a l d d d d d f E / E ~ f u ~ f i d g g x g x g x g c c g j x j b b j k j h g g ",
"d u h g d u u u u 0 t t w 0 * a a * a s g g a d l ....3 S ! X.Q S f E V , < E f f f h h b c b b v x j x g g x x j b k j k h g g ",
"t w g d d u w d w a * 0 w % t a a a j g g j j #.*.q.+.S S  .! S E 3 E 2 - X.m ! E E f f h j k b b v v v x g x g b k j b c c g g ",
"d d a a d d a w * w q 0 0 0 w t a a a a g l ..y.V.h.q.G F X.S 4 F Q E / [ 5.F 4 A ! S 3 S E ^ k v x b b x x g g j b j g h b h g ",
"d d w a t d a w w a w w q w d d a w a a g l -.d.~.h.h.t.q.X.+.F X.! ! C.y.p.X.: : : S S F O.^ ^ b b g b v g j v g k h g j b x g ",
"* d a d d t a w w d a 0 9 0 w d a s s a d ..%.b.V.V.q.h.D.<.O.X.+.) X.y.y.h.o.A > : - 2 3 ! +.! ! ^ h x v x j g k k h j b h x g ",
"d * d a d d t w w a a 0 % % a a 0 s s j %.+.=.V.d.7.X.@.C.7...O.O.! O.Q 7.@.X.A F G F : ; ) P G A ..3 l x d d g b k g g j h x h ",
"j a a d g d d g d s 0 % % % * w w s d %.t.e.e.b.@.O.<.5.d.w.7.-.+.+.8.! X.5.5.6.p.h.<.X.F A F S A F F l j j g s g j c x b c v g ",
"g f g g g t d t d g q 9 % 0 w * w s f -.q.*.e.e.r.z.C.N.I.C.T.h._.&X{.p.p.w.h.H.E.N.t.G o.F : 1 4  . .X.Q g g v b x g b x b x g ",
"l u t d t i t t d s s w w w w * w a d #.O.*.d.R.~.~.~.{.{.T._.&XqXqX7X&XI.g.H.I.I.d.q.@.F 3 3 : 4 F @.X.G 3 g g g g g b v j b x ",
"l d d l d g t i g j d s s w w w t t s ] x.|.:X1X1X1X3X&X-X5XsXfXuXqXwX7X1XV.w.d.p.p.d.e.+...3 3 1 3  .3 3 3 j a s j g x v v g x ",
"a d l g g x t u u g g d a a w w t z v S.7XuXsXsXsXsXuXuXgXlXkXgXaXaX7X5X:X&Xw.5.q.<.7.<.5.@.Q 3 1 * 4 4 1 : l a s d g x g b c g ",
"j j s j g g a a w l d a u t t t s x j.,XsXhXfXfXhXdXfXfXgXlXjXgXaXaX9XwX:X{.h.a.q.o.G A A > 1 & * : 4 * : 1 d d a s g g g b g b ",
"j k g g g g g d t g a w * u t t z b S.9XsXsXdXsXsXdXfXfXgXjXfXsXqXwXyXwX>XH.p.d.w.p.h.e.F : : , = = : = = $ 1 t a s d g c g g x ",
"j j j j d j s q t d * a a w t g b j.>XpXpXrXrXrXdXdXdXkXkXdXuXqX1X=X|.=X_.d.d.u.w.2.6.<.+.E S - : = = : & & = * d t t g ^ x x h ",
"j l j a d l a a t d d 1 d w t u x Z.7X9XrXpXiXrXrXuXuXfXfXfXsX9X>X%X#X&X}.L.d.a.u.2.6.6.) 3 2 , : : 1 = = & & = s g s b ^ j x x ",
"l d a s j k d d d d d d d u 1 d b %X0X0XrXpXrXiXrXrXiXfXkXdXtX9X>X%X&X1X&X_.u.w.8.2.o.2.X.! : : , 1 1 1 * & = = a d a d j h b g ",
"g a a a s s d a w d u u d w d s k.:XaXqXrXrXeXrXuX9XrXiXeXrXrX9X:X=X;X1X{.U.w.2. .A G D G 2 : , , , , 1 * = = & * t t t g x g x ",
"s q s s j j j g d a d d g g d g k.>XqXsXdXdXpXpXuXuXuXiXeXuXqX5X&X;X-X-X{.L.u.>.D 4 > > 3 < : , , & & & , 1 & & * t t i i g i b ",
"s s w s j s s g a t d w d d d s c.7XrXsXpXpXrXdXfXiXiXiXsXrX8X3X_.|.-X{.[.L.f.w.G A : : 2 1 , , , & & 0 & & & & * d t d i g z b ",
"s g j d j x s j d r w d g d g j @XwXuXsXiXqXtXrXsXsXsXqX9X9X5X<X_.].~.|.{.E.L.w.) : > > 2 < , , , & & + & % & + $ w u d i i t g ",
"g s j g s x s s s w t g g g g l.:XaXuXsXrX:XS.Z.S.S.'.|.#X=X#X}.^.A.T.T.~.W.R.B.7.S A > S 2 , - & & @ % & & & & = d w g g g t i ",
"j s j a j s s j s a a a a g g S.:X>XwXrXwX(.' p p p ' z.U.(.(.m.B.x.B.T.^.U.U.B.r.W N N G N < , & O @ @ & $ $ $ & t d g i i g c ",
"j s j j #.b s a q q a a i d k @Xx.-.x.%X8X#Xp ~ p b z.A.(.(.z.9.m.m.Z.m.T.'.^.B.e.) ( E W =.;X[.>., & , & $ O $ 0 d i g i i g g ",
"j k d k k j s 0 w w a d d d g $.[ l.e.&.2X2Xk.z.x.m.M.%Xl.i [ v.b.m.T.U.^.$X/.e.@.{ O._ R.4X<XK.0.>., , & O $ $ w u g t d i g b ",
"l s s j d t s a w t w t w h g b z.r.c.l.tX4X(.@X:X;X$X%X+X`.(.8X8X$X|. X{.[./.v.e.+.o._ R.Q.| R R ` D & O & $ & u h d i w w t x ",
"s s s s s q t w u w w t a d d j l.M.`.'.rX<X$X$XwX7X;X2X:X,X0XpXeX6X3X-X[.).[.^.w.o.X.o.9.i.| | G.| ` @ O & , & u h g w w q i g ",
"t s t w q q 0 0 w t t w a d l d ] m.'.3XrX1X$X$X2X8X2X7X0XrXrXtX6X6X1X{.U.P.Y.T.a.D q.U.0.` ` oXQ.Q.&.# O O O * f g g u w u i g ",
"q s s q 9 9 0 0 0 a a t d g g d ] (.}.8XpX4X%X%X;X9XrXqX0X8X8X3X6X6X1X}.N.M.T.n.<.) N.eXOX{ { $XoXW.V & , O = = d d j d d u g g ",
"q 0 q q 0 w w 0 t w 0 0 q d l a #.%X;XtXrX<X$X$X$X3XpXtX8X7X3X8X6X2X XY.n.M.a.0._ _ L.6XR.4.oX3XXX_ , , O o = u d l j u d i g g ",
"w 0 t w q q t t w 9 9 0 a a j a $.+X3XiX0X$X^.(.{.1XeXeX6XtX3X4X<X;X[.J.v.a.>.>.( >.U.[.8.| OX4X!.B # , O $ 1 3 d d l d d a a d ",
"0 * t r 0 q q w w % 0 a a a j j ] +X3XrX8X$X%X'.^.1XeXtXtXtX4X$X}. X/.v.9.8.| ` D >.J.oX3X4XoXW.4.M ; # O * a d a l d a d a a d ",
"0 * w w w w s w w % a a a a j d j (.tXpX$X'.$X$XU.#XtXtX6X3X<X.X)./.M.9.` ) ( ( M ) i.OXoXoXXXP.L M n n & * d a d j l l d a a a ",
"0 % w a s d d w w w a d d d g a g c.$X%Xz.~ T -.[ -X6X6X4X<X$XK./.Y.M.>.W S N S H D i.Q.Q.Q.0.L C W C n : 1 u a j d d d d a a j ",
"0 % 0 w s g t & t t t d l d d g s $.c.[ T # p [ =.8X8X2X1X$X).Y./.J.a._ 2 > > D M N o.G.G.4.B C B W C B V d 1 a j f d a a a a l ",
"w % e w t d w w d d g g d d j g d d $.) < , < m.}.8XeX8X$X$XY.J.T.f.,.K N > > N m m > ) _ D N N C C C C M f w w d d d d d a a a ",
"% % 0 0 0 d d a g g d d d d a j g f L ( M V < N 7.T.8X3X<X}.[.f.J.0.3.D B : > > > > > >.g.1.` B L C B M M p d 1 d d a d d d d d ",
"0 0 0 0 0 t w t d i g d j d j d h N L _ L B N N B ( P.P.U.$XW.J.n.0.} D m ; ; > m > m 8.F.0.,._ L B B B M < w d l d d a d d d a ",
"* 0 w % 0 s a l j s s j j l j d d B K B M V ; B B L >.1.U U.F.s.4.,.L N > ; ; ; ; ; H 1.1.>.@.o.D m m M M = % w j s d a d d g g ",
"% * 0 0 0 q w g v g s g j j d d u D B ; N - - N N B W ;.J ( 8.>.,.,.I D > : ; : : ; ) o.o.+.>.) A n : 4 > =     a j d j j d v v ",
"% w % 0 % 0 w d s s a s a a d d * K M - - V T N > n 2 ( D D ) } ;.P I D m m m : ; ; ) P @.+.@.F / 2 d * = .     q b j d d g g j ",
"% 0 % 0 % w w t s a j a d a a l 1 M m - > 9.9.0._ B N o.P M M B D H K H > B M : , N F ! ..C.V.D.-.w * % . X . X 7 k a d g d g g ",
"% % % 0 q a s q q t w a a a a l 4 m > ; B s.s.s.3.2.:.:.P J Z M m > H A ; > > : - N W =.V.x.=.d 0 % % . . . . . . t j v j j a d ",
"% 0 0 % w 0 a w a t w a a a a a 3 m n B _ F.i.4.3.F.F.3.U K J Z n ; m B - = $ - & , 3 =.#.a q * 7 . . 7 7 5 7 5 . 7 s g s d j d ",
"* w 0 0 q q w s a a a w a a a l l 3 D D ,.P.u.,.:.F.P.3.U I n m > > m m ; o o o & * * % % % . . 7 9 9 9 7 5 5 7 X   9 a d a l d ",
"% % % 9 0 q d s a a a j a * d 3 h 3 G P 0.P.0.:.Y 4.F.3.:.I Z n ; - > ; , O X o + % % % . . 7 q 9 7 9 7 7 X 5 7 7 7 9 q q s g d ",
"9 q 0 0 w t s g t d l j g a d l d f 3 X.3.3.1.:.U :.:.,.U J J n - - - $ o o . X . . 7 . . 9 e q 7 7 9 5 7 . . 9 8 q 7 7 % q a d ",
"0 0 0 0 q w r d w a d j g a a a w d 3 P :.:.,.| Y } Y Y L J U n ; - O O $ + .   . . 9 q 0 w e 9 0 5 5 7 8 8 7 9 8 9 8 7 7 7 0 w ",
"0 0 0 0 * w t s t a s d d a 7 % 0 t u D U Y } :.:.} Y Y U Z Z n ; O O O X X 7   . . 0 q e 0 9 9 7 7 7 8 8 7 8 8 q q 8 8 7 7 7 0 ",
"0 w 0 & w w w s s d d j l d % % w & w S I L R :.:.Y Y L J M n n ; O o = X .   X . % q w 0 0 9 9 7 e 7 9 9 r r r r s s 9 9 7 7 9 ",
"9 0 0 % % d s s a g j a a j a a % a w E _ L B _ U Y L B M ; > ; O # o .   7   . % * w * w 9 9 e r e e 8 e r t y s t r e 7 7 9 9 ",
"% % % w 0 s s t s j g a a a d * 0 w w 1 S B 2 H M C C V ; , , $ O o . .     7 . % a % % 9 q t t y e 8 7 9 r t t i g r t 9 5 7 7 ",
"0 9 % w w s a d a j a d d a d a % 0 * 1 u 1 : 1 m B > < # & @ & % . X .     X % % % w 7 9 9 r y y e 8 r r d t t t x t t r 9 9 6 ",
"% * % w 0 a w a a d d d l l d j d d a w t w a 1 1 f 1 * @ % + . . . X X   . % % * w 7 % q w t y e 7 9 r t s g t t t t t t e 9 7 ",
"* % % q q w a a q d d d d l l d d g d a a a t w * d d w & 9 9 9 . . 5 . % % % 0 0 0 e t r t y e 8 8 8 t t s s t t s t t t t e e ",
"% 0 a 0 0 0 a w * a d d d l j l l g f d a s w t d u d % 9 . 5 +   5 + 9 0 w % 0 9 r r d t t e e 7 9 t s t t s s t t d w d s e e ",
"q * a t w q t * w * l d a d a d g g g d a a w w d u u * 0 5 . . 6 5 9 q w q * 9 r r w t i y y e r t a s a a s z t w t a a w q q ",
"a q q t w t t t a a d a a d j g d g g a 0 w w t u u 0 0 5 9 9 + 9 9 q q q 0 9 9 r t t w e e e e y t g d s z s s t t d t a w w r ",
"w q q a s s s t a d a a a d d a d d g q * w w a d 0 0 % 9 6 9 . 9 w r r q 9 q t y y t y e e 8 r t s l g g s v t t s d s a w * a ",
"0 0 q t s s d s d l d a * a a a a a t 7 0 w * a w * w % 9 + 9 + & * 0 9 9 q r z z z z r e e e s s a d d g v j a s s g d a a a s ",
"0 w w a d s d l d d d g a * a a s a w w 0 0 0 t 0 w % . % % 9 w 0 e 9 9 9 r t z z t t e 7 e t b k k j d g g g g g x g g l a w s ",
"w w 0 q t a g d j d a d a a a d g d d l l w w 0 a w % % % 9 9 w . e e e e y z z x t r e 6 e w a l l d s g x g j j x x j k j a a "
};
