/* XPM */
static char *result[] = {
/* columns rows colors chars-per-pixel */
"64 64 256 2 ",
"   c #050404",
".  c #0B0404",
"X  c #080509",
"o  c #130504",
"O  c #1B0605",
"+  c #140805",
"@  c #1B0906",
"#  c #1D0B09",
"$  c #170708",
"%  c #1D130D",
"&  c #230B06",
"*  c #240C0A",
"=  c #2B0D0B",
"-  c #240807",
";  c #360E0C",
":  c #25130D",
">  c #2C130D",
",  c #25180F",
"<  c #33140C",
"1  c #341A0E",
"2  c #3B180D",
"3  c #2D1511",
"4  c #241A13",
"5  c #2C1B14",
"6  c #261B16",
"7  c #341412",
"8  c #3B1413",
"9  c #341C14",
"0  c #3B1C14",
"q  c #3B1D1A",
"w  c #371D18",
"e  c #300E10",
"r  c #2D2219",
"t  c #332117",
"y  c #3C2215",
"u  c #34231B",
"i  c #3B241C",
"p  c #3B2A1E",
"a  c #37291C",
"s  c #3F2108",
"d  c #3D2B22",
"f  c #362821",
"g  c #362E2A",
"h  c #1D212F",
"j  c #421C15",
"k  c #431D1A",
"l  c #481A16",
"z  c #4F170F",
"x  c #42241B",
"c  c #4B241C",
"v  c #432A1C",
"b  c #482819",
"n  c #542B1D",
"m  c #55261B",
"M  c #4A321E",
"N  c #59341B",
"B  c #48200D",
"V  c #6B2817",
"C  c #66351E",
"Z  c #742D19",
"A  c #442C22",
"S  c #4B2C22",
"D  c #492824",
"F  c #542B24",
"G  c #5A2C25",
"H  c #453224",
"J  c #4B3225",
"K  c #45342A",
"L  c #4B352B",
"P  c #4C3A2C",
"I  c #443A2A",
"U  c #543324",
"Y  c #5C3225",
"T  c #52352C",
"R  c #5C352B",
"E  c #523A2D",
"W  c #5C3C2C",
"Q  c #5A3B25",
"!  c #4E3C32",
"~  c #473A36",
"^  c #543D32",
"/  c #5C3B32",
"(  c #583B37",
")  c #633B24",
"_  c #633C2B",
"`  c #673727",
"'  c #753A24",
"]  c #633D33",
"[  c #673531",
"{  c #602B23",
"}  c #661811",
"|  c #3C423C",
" . c #5C432B",
".. c #4B4337",
"X. c #554234",
"o. c #5B4334",
"O. c #55443B",
"+. c #5C453A",
"@. c #5C4B3C",
"#. c #584937",
"$. c #584D3A",
"%. c #65452A",
"&. c #78442B",
"*. c #644334",
"=. c #6C4434",
"-. c #634B3C",
";. c #6B4C3C",
":. c #684836",
">. c #734531",
",. c #754B36",
"<. c #695638",
"1. c #78563C",
"2. c #68522F",
"3. c #79673E",
"4. c #68603F",
"5. c #2C3442",
"6. c #3E454E",
"7. c #5C4D44",
"8. c #554A43",
"9. c #5C5243",
"0. c #5A564A",
"q. c #5C5B52",
"w. c #464B52",
"e. c #644D41",
"r. c #6B4C43",
"t. c #654A45",
"y. c #645344",
"u. c #6C5444",
"i. c #6B544A",
"p. c #6D5B4C",
"a. c #675C48",
"s. c #745343",
"d. c #735B4A",
"f. c #7B5C4A",
"g. c #795A44",
"h. c #685B56",
"j. c #775D54",
"k. c #794D41",
"l. c #7A6546",
"z. c #686456",
"x. c #756253",
"c. c #7B6554",
"v. c #7D6A5B",
"b. c #786559",
"n. c #66634C",
"m. c #696B62",
"M. c #796B63",
"N. c #7E7165",
"B. c #737572",
"V. c #5C615E",
"C. c #97381A",
"Z. c #8A341A",
"A. c #8A3D24",
"S. c #974726",
"D. c #975836",
"F. c #894F34",
"G. c #A35632",
"H. c #9C653F",
"J. c #A4623C",
"K. c #9C421F",
"L. c #855C47",
"P. c #955D40",
"I. c #856A48",
"U. c #96684A",
"Y. c #88734C",
"T. c #836553",
"R. c #826B5C",
"E. c #876B57",
"W. c #84715E",
"Q. c #8B7558",
"!. c #94775A",
"~. c #946C55",
"^. c #A97754",
"/. c #A66B45",
"(. c #866D64",
"). c #847363",
"_. c #8A7464",
"`. c #8A756A",
"'. c #8C7B6C",
"]. c #877669",
"[. c #927D6C",
"{. c #957B68",
"}. c #8D7D72",
"|. c #857C75",
" X c #917F74",
".X c #A57A6C",
"XX c #94826D",
"oX c #9A826B",
"OX c #8D8378",
"+X c #938273",
"@X c #9A8573",
"#X c #9C8975",
"$X c #95857A",
"%X c #9C8B7B",
"&X c #98887A",
"*X c #9E917E",
"=X c #8E8068",
"-X c #A18D7C",
";X c #A58A75",
":X c #A4917D",
">X c #A8947C",
",X c #A98C71",
"<X c #767D85",
"1X c #948C83",
"2X c #9B8D83",
"3X c #998F8B",
"4X c #9D9185",
"5X c #99928B",
"6X c #9D9A99",
"7X c #888889",
"8X c #A18E82",
"9X c #A59383",
"0X c #A99684",
"qX c #AC9985",
"wX c #A4958A",
"eX c #AA9789",
"rX c #AC9B8B",
"tX c #A59A89",
"yX c #B19E8C",
"uX c #B29C84",
"iX c #AC9E93",
"pX c #A49B94",
"aX c #B19F93",
"sX c #B3A28E",
"dX c #BAA38D",
"fX c #ACA193",
"gX c #ACA59B",
"hX c #B4A393",
"jX c #BDAC95",
"kX c #B3A59B",
"lX c #B4A99D",
"zX c #BAAC9B",
"xX c #B7A796",
"cX c #BEB19C",
"vX c #AFA08D",
"bX c #9EA4A4",
"nX c #B4AAA2",
"mX c #B8AAA1",
"MX c #BBB4A7",
"NX c #AAADB1",
"BX c #C1AE98",
"VX c #C2B39C",
"CX c #C9BCAA",
"ZX c #C4B9A9",
"AX c #C6BEB1",
"SX c #CBC1AD",
"DX c #D2C3AE",
"FX c #CCC3B3",
"GX c #C7C0B2",
"HX c #D4CBBA",
"JX c #D4C8B3",
"KX c #DAD7CA",
"LX c #E4DED2",
"PX c #E4E3D7",
"IX c #E5E5D9",
"UX c #E8E2D8",
/* pixels */
"|.XX+X=X[.@XXX'.'.XX[.+X'.].].N.].).+X X'.]._.].'.OXOX+X}.OX$X$X&X&XoXoXXX[.[.(._.'.[._._.).].].).v.).)._.`.(.R.R.c.c.T.v.R.v.(.",
"H L A p t p L E X.P L H d a d d f A a f 5 9 t u A L ! A L P 8.^ X.#.u.-.-.-.E E o.#.-.E T E / P J P H E T / / L T ^ ( -.r.-.-./ ",
"A H p A H t v M J a a L d a f d f d P L A a A i A L E S v E O.y.-.u.x.x.c.d.-.p.N.v.c.).(.R.c.T.c.c.v.c.c.c.R.j.c.b.c.R.c.v.c.p.",
"H H A P L a p p H a u d f a g d P L f A d H T A p X.-.X.J X.@.-.p.v.v.W._.W.c.XXXX@XXXXXXX@X#X#X#XXX'.@X#X@XoX`._.'. X X'.[. X`.",
"X.P I X.P p t X.X.O.X.X.$.7.y.@.^ ^ 8.7.7.@.e.e.@.y.#.o.u.p.y.j.x.W.'.'._.XX{.[.#X@X#X#X-X#X#X@X#X#X@X%X#X-X#X;X@X#X#X$X@X@X@X X",
"f a a r 5 r d r u r 6 t a a a P I i i i A d d H M #.P ^ I X.#.y.y.d.).W.[.@X@X9XrX:X*X:X>X9X:X9XqX:X:X%X-X:XeX9X8X-X-X%X%X%X'.p.",
"....I I I M p I I I P ^ ! ^ ! K L O.O.O.+.X.^ ! O.E P +.O.y.d.v.[.XX_.@X9X8X9XtXvXtXqX9X9X:XeXeX9XeXrXrX0XrXrXeX9X9X9X%X}.p.L L ",
"r , r , t u r , a A H I H d P K L I A A H A A L I H H I E #.@.p.).R.@XrXrX9XwXrXvXrXsXqXeXyXaXaXfXnXgXgXiXaXiXrXeXeX].t.T T J E ",
"r r r r t 5 4 % , t y 9 t t v p u a r 5 u r u A 9 f ^ X.X.#.p.].W.'.rXwX9X9X9XiXiXhXkXhXaXkXmXnXgXlXnXnXnXkXaXiX2Xt.A A S L L D ",
"r r r r p a r r a a H L I H P I P P I I d A L I H H P E @.-.p.d.W.4XwXwX8X2X9XiXhXkXnXnXlXzXmXkXgXmXNXnXnXnXaXR.( k 9 D D w q q ",
"r % 4 % , % , % % 4 6 9 t u J y w t i u 4 5 d u 9 i H M J ;.-.f.@X4XtXeX9X8XiXfXfXkXmXlXxXmXnXnXmXnXnXnXaXnXrX+.T A q q q q 7 7 ",
"r 4 4 r , 4 5 a r u f 5 r t t t i a t t 6 6 3 5 5 5 i H ^ T a.N.$X4XtXeXrXrXtXvXfXlXlXkXnXnXnXnXmXgXaXiXnXaXrXE i > > w q e * = ",
"% 4 , : 3 3 9 3 5 : , 3 : 3 > 5 3 1 y 5 : 9 3 w i i v H v +.j.N.$X2XwX9XrXeXeXsXgXlXlXkXmXmXnXnX3Xv.}.aXhXhXyX^ 9 > 9 7 w 3 = e ",
". . . o o o + + O + o O O @ @ @ @ O o + o o @ @ @ + - > D +.i.N. X%XwXtXeXeXqXyXhXlXmXnXnXnXrXb.E ^ ).iXhXyXyX-.q > 3 > 9 q 7 > ",
". o o . . .   . . X . + + + o + o .   . X . o o o o $ : A +.p.N.}.$X4X9X9XeXqXqXaXlXmXnXpX_./ i S E _.rXrXeX0X-.i = > 7 q q w = ",
"                      .           o .     . . .   . . * v -.p.T.}.OX*X9X*X9X>XvXhXzXaXM.E S T S S P (.tX9X0X:X^ D i q i v D q 7 ",
"                        .     .   o .         . X . . # x -.l.x.].&X%X9X&X:X>XsXxXBX[.H D v E v S E v.tXqX9X-X+.S D q A v S i 7 ",
"                        X X X + . o .     X X X .   . O x -.u.c.=X&X4X2X4X9X:X:XhXhX_.s v U v 0 y v v.9X0X9X0X-.x x D S J D q w ",
"                        .     .   .       . .     . o o v -.u.v.|.1X5XwX*XW.@.'.yXhXR.0 j x x v v H W.rXeXeXqXX.i i D D D q q q ",
".     X                 .   . X . . . .       .   . . . A u.d.c.=X2X1Xv.-.W  .{.hXdX_.y B 0 B 0 v H W.rXyXyXyX+.i q v D d w k 7 ",
"          X   X                     .   . . . . . . o o a -.u.x.|.$XX.M W b M '.dXdX`.b 2 2 2 x x v ).fXkXxXfX! w x A k q w i 7 ",
"              X         .   o .   o o . . o . . . o O o w -.u.#.c.XX*.M b x x ].yXhX_.j j < = < 8 q v.iXkXkXiX! w 0 q D q > 7 7 ",
"      . . X X + o + + o o . o O + @ o . o o o o o O O o w H y 1 l.=XE v v 1 y _.yXhX`.B 0 0 < < 1 v v.fXkXkXeX( 7 7 q q q w q 7 ",
"  . . . + $ $ # @ o @ O o o o + + o o o + o O O O O O @ 9 > > 1 x.=XM b x < y ).xXlX$XS B l 8 q i S b.rXiXlXrX( q < q 0 q q k 7 ",
"+ + # @ & @ @ % % % * : & o o o @ @ @ o o @ & - # - # = < & > y x.=X#.b x y y v.hXiX`.M l j j 0 x v x.rXaXyX0X/ A 8 q k k q 8 7 ",
"# # : + + & * , , 6 5 3 > : + + @ & + o + # & & O # * * > & : y d.XXQ b b y i l.uXyX_.x j 2 < 7 0 i p.0XqXrX0XX.q k w k D q 7 e ",
"& > * # # : > > 9 5 5 3 > > & o @ & @ @ * * = * & = 3 * : & : y x.@XH v B y y c.uX0XQ.< 1 < 2 ; ; 7 y.9X0XqX>X+.7 7 8 q w e 7 3 ",
"1 y w f i v v v H A A x 9 * @ o @ 9 5 < y > > = - > < 3 < = = 1 s.oXv b y y i l.uXuXQ.< < < 2 < < 9 u.qXeXqX:X( 7 e e 7 e = 7 3 ",
"y H ! ^ ! 8.O.#.-.O.~ S 1 # @ o , ! ..O.8.~ v * = < > - 9 & & > 1.oXb 1 9 0 M c.uXuX_.> > 1 < - = = -.-X0X:XqXR e e = e = e = O ",
"y I B.|.OX|.|.OX@X|.B.S 9 : X . 6 B.<X<X<Xh.F = - - & & > & > 0 l.oXv y 1 x S l.>XdXW.& # & * * * * +.8X:X-X:XT - - $ = $ $ $ # ",
"M ^ 7X5X3X7X6X2X1X1X7XH y 3 $ + r OX7X3X5Xv._ < & < 1 2 > & O > x.oXv b x v S c.uX>XE.& O O - * O - O.@X`.R.R.~ $ - * # O o . o ",
"v E 6XbXbXNX6X7X5XbXbXH i 3 O * g 1Xy.y.].c.) <  .%.B b > @ O & u.{.v < < 1 x u.oX!.s.@ & l z l j - +.E.r.G ] K $ $ $ X o X   o ",
"A E gXMXMXmX:.N W 2XNXL A > @ : A p.Q Q M %.Q y %.1.N B 2 7 c 0 *.g.i & < 1 1 *.L.1.u.+ b z j ; l - ^ f.Y o. .c 3 + o i ] c o   ",
"v X.7X6XbXQ.N ,.L.i.pXT i * & > D l.3.%.%.%.) N v =.>.) n *.^./.U.D.0 < ; - * X.1.;.d.: n z l F 2 O T u.=./ W ) 0 o @ ] =.F - . ",
"y Q V.z.h.-.N 1.=.v h.J A > : y i c.,.%.<.F.N N < 1 n %.W E.^.^./.H.>.2 < - + X.g.:.l.P F N ,.,.L * A o.:.M [ c = . o Y _ l - . ",
"v E M.v.a.N N >.c s i.J A 5 > U M :.1.%. .,.&.) y & F.U.1.~.^.^././.H.N = & * ~ w.q.W.oX!.~.k.R e c ) n U U =._ = . o _ [ l e . ",
"v J a.x.:.s N Q b M <.H v y : 1.:. . .J n N m m B E U.,.F.I.~.J.H.J.H.S.B : w.w.V.z.v.Q.I.) v i R F.&.C _ R *.Q 8 X o k j j j U ",
"p M d.1.C 2 g.F.%. .<.L c W 1 =.) -.P Q =.) ) N  .=Xl.U g.v.h./.S.J.D.' k ~ w.w.V.z.n.a.*.M ..g W >.&.=.=.j J *.x X $ D F ; F T.",
"A M 1.S.F.B L.I.3.<.4.@.U 1.M M  .<.<.2.l.!.I.) 0.7.~ f m *.-./.G.D.r.w.0.y.9.| 5.9.a.6.~ @...I M >.&.' G F U Q x . d T.i.G r.(.",
"d S A.S.S.S.Z.` F.n.n.a.X.U  .<.<.3.3.3.Y.l.1.:.b.j.~ S ` ' T.F.l.n.w.6.7.~ K r h ..9.g 8.O...I H =.>.` G ` Q _ J > c.!.E.c.(.j.",
"x N C.K.G.S.K.S.#.$.n.a.$.v b 2.2.3.Y.Y.Y.=XH.3.l.x.@.%.` L.U.;.K g K f i D v a r O.#.X.@.#.$.....<.Q _ l Y Q Y U ;.{.s.c._.k.(.",
"S A.C.K.G.G.G.G.0.n.n.n.n.9.p v %.<.Y.Y.Q.=X=XY.l.<.2.C S.Z Z z V ' V Z Z m -.*.;.=.H w.w.9.0.9.9.#.=.n ; ] k.G W [ { S (.s.s.`.",
"' C.C.C.D.D.D.h.n.q.m.z.m.z.9.L M 2.Y.Y.Y.=XY.Y.l.3.2.%.&.D.D.V V C C } V z P O. .Y O.8.q.n.0.q.9.$.:.n G =.,.D ] R G -.(.E.T.j.",
"A.C.C.Z.D.P.8.w.| 0.m.m.m.m.z.9.M <.l.Y.Y.Y.Y.=Xl.3.<.2.%.&.D.Z Z V } z z j ~ ..@.y.8.@.#...q.q.0.$.F.` Y _ s.7.i.L S t.b.!._.v.",
"K.Z.Z._ 1.h.6.9.8.q.m.V.m.z.z.x.X.3.Y.l.3.H.Y.Y.l.l.2.1.,.C F.' Z Z } V Z z ! $.9.8.0.9.-.$.z.q.a.$.>.) &.` ,.j.K k K ( ( j.R.j.",
"S.F.>...0.g 0.$.a.z.n.q.q.e.E.Q.@.<.2.4.3.3.3.3.l.<. .>.&.` ' A.Z V V V Z Z D O.0.n.z.a.<.$.q.z.0.2.` ) ,.,.*.-.( G ( ~ h T T ~ ",
") F.*...O...y.b.b.a.h.n.9.y.E.!.1.#.Q.l.<.3.=X=Xl.y.y.t.k.,.>.,.' -.h.^ { ) >.<.7.8.~ 0.N.z.b.y.i.=.] _ R ,.t.r.[ [ ] t.( T K K ",
";._.).v.v.v.].}.v.|.@X;XQ.{.0X~.E.*X>X#X=X=X=XoX!. Xb.c.Q.;Xf.f.c.j.b.-.,.;.;.1.-.T O.h.M.N.j.T.p.k.i.u.;.k.( 8.M.t.t.t.t.( 7.8.",
"oX,X~.Y.N.].+X+X#X=X=X,X,X;XkXrXrX;X,X>X.XuXrXhXqXhXsX>X.XU.+X;XrXrXrX@XT.s.R.j.x.;.=.-.OX&X8X$X|.M.m.(.(.L.t.h.8.O.j.v.r.(.(.j.",
"dX>X:XvXxXvXqXqXqXvXsX>XqXhXzXVXVX>X>X>X;XdXxXxXaXrXvXqX;X;X0X0XvXfXtXrX%X@X0X9X4X@X(.{.%X2X%X1XB. X(. X[.E.b.(.).`.[.{. X@X`.(.",
"vXfXvXgXxXhXvXvXsXsXxXsXdXyXxXzXhXsXfXyXyXsXxXhXqXyXyXqXqX>X9XqXrXwX9X9X9X:X0X8X*X:X#X#X@X2X#X$XN.}.`.}.`.(.N.|.OX}.$X X$X X}.(.",
"xXlXgXgXhXhXhXvXvXrXvXuXyXrXaXhXhXhXrXyX0XrXaXyXfXsXyXrXqX-X0XyXrX9X9X8X-X%X8X9X:X:X#X#X&X1X;X X X`.`.}.(.(.N.|.1X}. X}.$X X`.(.",
"ZXVXVXcXZXCXSXZXZXVXcXjXdXzXzXcXzXzXkXxXsXrXiXrXfXfXrXrXrXrXeXiXpXwXwX9X-X:X9X9X:X:X:X#X%X2X-X X}.[.[. X'.'. X}.$X}. X X$X$X}.`.",
"HXHXHXHXHXHXJXJXFXDXJXDXCXDXSXAXAXZXZXGXAXZXZXmXtXfXiXwXeXeXyXiXpXwX5X2X4X#X%X:XqX*X%X#X$X&X@X{._. X X XM.`. X X$X'.$X}.$X1X$X@X",
"HXFXHXFXFXHXFXDXCXDXJXJXDXJXFXFXFXFXGXGXGXAXAXZXrXfXpXiXwXrXaXiXiXpXpX4X%X:X*X9XwXtX*X%X#X%X#X[.]. X$X1Xb.(. X}.$X}. X}. X1X1X X",
"jXjXjXjXjXcXcXcXjXjXjXjXjXjXVXVXZXMXAXZXAXZXSXAXlXxXhXaXaXhXaXyXtXpX6XwX:X:X*X9X4X4X2X4X8XwX%X X].|.}.3Xq.M.$X|.1XM.1X}. X X$X X",
"BXVXMXZXGXGXGXGXFXSXSXMXVXcXcXcXVXVXVXBXdXjXjXZXMXzXxXyXyXeXeXyXrX9X2X8X-X9X-X:X9X2X2XwXwX:X#X[. X|.|.1Xh.m.$X X X(.$X}. X$X1X X",
"LXLXPXPXIXIXIXIXPXPXPXLXPXLXLXKXHXFXSXVXuXdXVXZXrX@X[.(.(._._.R.x.j.j.j.f.E.T.T.b.b.j.h.x.d.j.d.t.t.i.h.t.D ( r.t.( ( ( ( ( +.t.",
"PXPXPXPXIXIXIXIXPXPXPXUXIXIXPXPXPXPXPXPXKXSXDXCX:Xx.r.-.R o.W D D d 9 8 l m m k q k 9 7 D i m G ; 8 l k D 8 ; ; 8 ; l 8 e 8 D F ",
"PXPXIXPXIXPXIXIXIXPXPXUXIXIXIXPXPXUXPXPXUXHXDXCX:XE.f.d.r.:.*.*.U U S S Q =.{ m c F 0 S L 0 ` ` m c m F [ l l ; l l l k D c D ( ",
"PXIXIXUXIXIXIXIXPXPXPXPXIXIXIXPXIXIXIXIXUXJXDXCX9XQ.E.R.f.=.;.;.*.;.*./ _ *.R Y c c c S T k ' G c c c F G m l l 8 l D k l l D G ",
"PXIXIXIXIXIXIXIXPXPXPXPXIXIXIXPXIXIXIXIXUXJXJXDX0X_.Q.E.T.r.=.=.;.s.s.*.;.;.*.-.r.[ G R D ] ' m l m Y m F G m l l l l l D G G R ",
"IXIXIXIXIXIXIXIXIXPXIXIXIXIXPXPXIXIXIXUXUXKXJXJXyXQ._.T.l.] ] k.L.g.k.-.k.s.s.g.f.;./ / r.,.>.R G { { Y [ [ [ l l D c ( ( G [ ( ",
"IXIXIXIXIXIXIXIXIXPXIXIXIXIXIXPXUXIXUXUXUXJXJXDXaX{.E.T.l.=.s.l.E.T.d.d.u.s.f.T.T.f.s.k.s.k.F.] R c G F [ [ [ [ G D ( [ t.[ ( k."
};
