/* XPM */
static char *result[] = {
/* columns rows colors chars-per-pixel */
"64 64 244 2 ",
"   c #1A0E1A",
".  c #1D121D",
"X  c #23131C",
"o  c #2B161D",
"O  c #2C191D",
"+  c #281719",
"@  c #341B1D",
"#  c #3B1B1D",
"$  c #36181A",
"%  c #250F1D",
"&  c #3A221C",
"*  c #28201E",
"=  c #120E22",
"-  c #1B0F21",
";  c #151223",
":  c #1C1423",
">  c #1E1925",
",  c #1C1629",
"<  c #1D192C",
"1  c #121024",
"2  c #221523",
"3  c #241A25",
"4  c #2B1C24",
"5  c #231B2B",
"6  c #2B1D2A",
"7  c #261524",
"8  c #321D23",
"9  c #361C26",
"0  c #231E30",
"q  c #220F20",
"w  c #2D2225",
"e  c #2D212B",
"r  c #292626",
"t  c #342424",
"y  c #3B2523",
"u  c #3C2B24",
"i  c #33242B",
"p  c #3C2B29",
"a  c #372829",
"s  c #39362A",
"d  c #2C2433",
"f  c #292334",
"g  c #332633",
"h  c #352A33",
"j  c #3B2B34",
"k  c #382A38",
"l  c #3C3B32",
"z  c #3A3436",
"x  c #441D1D",
"c  c #4B2B1C",
"v  c #45251B",
"b  c #562D1C",
"n  c #4B311E",
"m  c #57351D",
"M  c #663A1B",
"N  c #432323",
"B  c #432B24",
"V  c #4A2D22",
"C  c #432D2A",
"Z  c #482826",
"A  c #552B25",
"S  c #453225",
"D  c #4B3324",
"F  c #44322A",
"G  c #4A342A",
"H  c #493B2A",
"J  c #543423",
"K  c #5B3C23",
"L  c #543C2A",
"P  c #583826",
"I  c #442D34",
"U  c #4B3433",
"Y  c #473738",
"T  c #533B3C",
"R  c #573935",
"E  c #532C30",
"W  c #653A27",
"Q  c #793C2B",
"!  c #663B36",
"~  c #763D32",
"^  c #421E22",
"/  c #3C4535",
"(  c #3E412F",
")  c #6A451D",
"_  c #764A1D",
"`  c #47442D",
"'  c #5B4528",
"]  c #454334",
"[  c #4A4533",
"{  c #4C4A35",
"}  c #444D3B",
"|  c #4B4C3A",
" . c #454738",
".. c #514C34",
"X. c #574938",
"o. c #4C533B",
"O. c #47533C",
"+. c #52533B",
"@. c #545A3C",
"#. c #5B5C3D",
"$. c #585337",
"%. c #5A5028",
"&. c #644324",
"*. c #6B4424",
"=. c #64442B",
"-. c #6C452C",
";. c #694B29",
":. c #744C2B",
">. c #754A27",
",. c #6B542B",
"<. c #74522C",
"1. c #7B532B",
"2. c #795829",
"3. c #674637",
"4. c #754932",
"5. c #685937",
"6. c #775736",
"7. c #5C613D",
"8. c #6B633B",
"9. c #776A3A",
"0. c #7B6531",
"q. c #3F2F40",
"w. c #493642",
"e. c #563E43",
"r. c #3F5141",
"t. c #594647",
"y. c #455442",
"u. c #4C5443",
"i. c #4C5B44",
"p. c #4B5949",
"a. c #525441",
"s. c #545B44",
"d. c #535B4B",
"f. c #595A45",
"g. c #4A5347",
"h. c #664742",
"j. c #665B45",
"k. c #774F43",
"l. c #4D6249",
"z. c #5C6245",
"x. c #54644B",
"c. c #5B634B",
"v. c #5B6A4B",
"b. c #596652",
"n. c #5F7453",
"m. c #686946",
"M. c #766A46",
"N. c #6B724A",
"B. c #777849",
"V. c #636C54",
"C. c #677653",
"Z. c #747E53",
"A. c #824F1D",
"S. c #86472A",
"D. c #845C2C",
"F. c #885A29",
"G. c #965A2B",
"H. c #834A34",
"J. c #865A32",
"K. c #92532F",
"L. c #89652B",
"P. c #94682D",
"I. c #98742E",
"U. c #8B6636",
"Y. c #966B35",
"T. c #87753A",
"R. c #9A7637",
"E. c #A77A38",
"W. c #A5752A",
"Q. c #877947",
"!. c #8E7646",
"~. c #7C834E",
"^. c #77804C",
"/. c #758252",
"(. c #7B8553",
"). c #7D8855",
"_. c #7D8A5B",
"`. c #7A865A",
"'. c #6E8055",
"]. c #7C8B62",
"[. c #AA833C",
"{. c #B3883A",
"}. c #B58C39",
"|. c #C3973F",
" X c #C9A03F",
".X c #84854D",
"XX c #968549",
"oX c #838553",
"OX c #848B54",
"+X c #8A8C54",
"@X c #838C5A",
"#X c #8A8E5B",
"$X c #848457",
"%X c #958D53",
"&X c #86915E",
"*X c #8C925C",
"=X c #8B9156",
"-X c #93955C",
";X c #98985B",
":X c #B48A42",
">X c #BC9443",
",X c #B89346",
"<X c #A29A5A",
"1X c #AC8B46",
"2X c #848E62",
"3X c #8C9463",
"4X c #8A9566",
"5X c #939661",
"6X c #949A64",
"7X c #9B9D63",
"8X c #949D6A",
"9X c #9A9E6A",
"0X c #95966A",
"qX c #959D71",
"wX c #A29E62",
"eX c #9CA16A",
"rX c #9DA067",
"tX c #9DA272",
"yX c #A3A46C",
"uX c #AAAA6C",
"iX c #A6A566",
"pX c #A3A772",
"aX c #ABAD73",
"sX c #A5AA77",
"dX c #B3B171",
"fX c #C49B44",
"gX c #C79B48",
"hX c #CBA34A",
"jX c #D4AB4F",
"kX c #CDA754",
"lX c #D3AB54",
"zX c #D4AA57",
"xX c #DBB35B",
"cX c #DAB558",
"vX c #E2BC5D",
"bX c #E1B758",
"nX c #E1BD63",
"mX c #DDBC61",
"MX c #E3C15D",
"NX c #E5C263",
"BX c #E8C669",
"VX c #E9CC74",
"CX c #ECD27A",
"ZX c #ECD580",
/* pixels */
"B.)._./.).).^././.).).).).~.^.^.^.^.^.^.^.'.~.~.~.^.^.^.~.).).)._.)./.Z.Z.B./././._.)./././.^././.(.^././.`.]._.`.]./.).`._.@X).",
"~.).(.(./.).~.~.)._._.).).).).~.~.~.^.^.^./.~.).~..X^.^.~.)._.).&X2X_.OX(./././._.]._._.)./.(.).(.(.(.oX`._.]._.`.`._.(.)._.@XOX",
"OX].`.(.).~.OX.X_.]._.)._._._._..X).).).).).OX~..X.X.X~.).@X=X~.@X@X@XoX(.(.(._._.]._.).).).~.).(.(.oX_._._.2X_.].@X@XOX=X2X2X2X",
"OX&XOXOX).=XOX@X_._.=X)._.=X).=XOX=X+XOX.XOX=XOX=X.X+X=X.X^.9.,.5.5.8.B.Q.oX(.).&X).=X@X~.~..X.XoXoX`.@X_.@X&X$X#X3X$X+XOX=X2X4X",
"@X2X&X&X&X3X@XOX+X=XOX#X=X@X=X&X&X&X=X@XOX+X#X+X=X+X=X9.2.) n n n c v n ' 8..XOX_.@X&X_.)..X.X).OX$X_.@X@X&X*X=X&X6X&X=XOX*X3X4X",
"@X4X2X@X2X&XOX=X*X*X+X#X=X=X=X-X-X-X-X*X-X-X*X*X=X%X,.M ) _ M m c & & & & # n 9.=X=X=X=XOX@XOX).&X2X2X3X=X=X-X=X-X-X-X=X=X-X6X6X",
"@X3X@X@X&X&X*X*X6X-X*X*X3X3X6X6X*X*X-X-X;X;X5X5X%X,.) _ _ _ _ ) m n & + + + + + B.OX*X3X*X&XOX=X3X4X4X4X-X-X-X-X-X-X-X-X-X*X4X;X",
"@X2X4X8X6X6X6X6X6X6X6X6X-X6X6X8XrX-X-X6X;X-X6X0X0.) _ L.[.L.2._ M n v & $   + + t ~.;X3X*X&X&X&X@X3X4X6X6X7X7X-X;X-X-X-X6X&X8XrX",
"oX3X2XeX8X7X9X9X6X6X-X;X;X6XeX7X7X5X5X7X7X9XqX$X*.Y.:XhXlXhX|.}.L.) m & + + X   X & =X-X4X8X4X&X3X3X4X8XrXrXrX;X6X-X;X-X-X6X9X7X",
"$X*X*X4X8X6XqX9X7X7XrX;XrXrXrXrX7X7XwX7XyXtX0X<.L.,XxXnXvXvXjXhX}.L.) c & +   +     8.6X8X4X8X8XrX8XeXeX8X7XrXrXrXrX-X;X6X;X7XrX",
"*X;X6XrX6X6XtX9XeXtXeXrXyX7XyXrX9XyXwXyXtXqXM.J E.zXnXnXnXNXvXjX}.[._ M v $ X       t &X8X6X6X8XrXeXeXeX8XeXyXtXtXrX7X;X7X;XeXtX",
"OXeXeXyX8X7XeXpXsXsXpXuXuXiXiXyXpXpX9XeXsX0X=.K {.zXvXvXvXvXbXjX X}.L.) b $ + X     . B.&X&X3X6X*XrXeX8X7XrXyXpXtXyXiX7X;X7XpXsX",
"(.eX8XeX9X;X9XpXsXsXaXaXaXyXyXyXsXyXyXyXaXQ.J W :XzXxXxXxXxXzXhX}.}.I.A.) & X %       { C.).).).2X8X8X6XrXrXiXeXuXiXiXwXwXiXtXpX",
"N.$X2X-X2XoX+XeXpXuXiXrXaXaXpX9XsXsXaXdXwX;.N :.,XkXxXxXxXxXxXhX X}.}.[.L.n O %       a v.9.9.^._.&X&X&X7XiXuXuXuXiXiXiX7X6XyXpX",
"m.B.Z.N.Q.Z.Z.-X-X;X%X+X6XpXsXaXaXaXdXdX%XW N 6.,XkXkXxXxXxXhXfX X}.}.I.2.c O q . X   w 7.7.7.N.'.'.).'.7XiXuXiXuXuXiX<X-X3X4X4X",
" .m.N.z.m.B.B.B.(.Q.oXQ.Z.Z.5XsXdXsXdXaXQ.L N 4.:X1XE.gXjX>XL.P.I.L.L.2.>.c 4 2 . X . 4 } @.7.N.'.'.'.'.=X<XiXiXdXdXdX<X-X2X].].",
"l a.s.z.N.N.N.B.N.9.N.m.m.B.B.2XsXsXsX0XM.P Z ! H.!.K.E.gXG.S.W.F.>.W >.F.K O 7 : . . 2 / O.O.v.v.n.l.n.^.;XuXuXuXdXiX<X;X&X2X4X",
"Y | x.m.V.N.B.N.m.N.8.z.8.B.N.*XyX#X3X5XM.A N 1.E.E.Y.:XzXY.E.gXE.Y.E.}.R.W O 8 q : 2 > / / O./ l.l.l.l.C.;XuXuXuXuXwX<X%X_.4X4X",
"l a.f.V.C.V.C.m.8.8.#.7.7.8.7.B..Xm.m.$X5.A 9 G.kXgXfXgXhXY.{.gXgXgXgX|.I.J o 2 - : . . ( / O.@.l.l.l.x.n.).uXiXiXiX;X;X4XQ.].4X",
" .f.j.z.x.v.v.j.7.#.+.7.@.O.o.@.5.5.@.#.3.N $ D.gXzXzXzXzX:XfXzXbXcXhXE.F.c o 2 2 2 : > s @.o.7.@.l.i.l.O.C.8X7XwX;X;X7X2X2X2X].",
"X.m.+.f.s.d.z.@.#.7.+.@.o.o.| [ $.$.....' A x *.gXxXzXzXzX:XfXkXxXjXfXP.>.v + 4 4 4 : X a z.z.N.'.n.'.'.'.'._.&X*X%X+X$XQ.2XQ.Z.",
"a.+.]  .u.+.a.@.@.m.#.@.+.{ { +...{ ] F B v x A :XkXkXzXkXE.E.kXkXgXE.K.) # O 4 4 2 : 2 r ( / } i.l.l.l.l.n.`.`.`.C.N.z.C.Z.V.V.",
"[ | ]  .u.o.+.@.+.o.@.s.@.@.o.+.....] s Z x 9 x E.fXgX:X!.W K.hXgX:XY.1.K # O 2 w . > : 3 s ( ( / r.r./ r.l.l.x.v.c.v.s.a.g.d.d.",
"Y Y l Y | o.o.@.$.$.o.#.+.o.+.$.{ { ] F u 9 # x K.E.gXhXG.S.R.:X{.E.Y.1.M & o O 3 3 2 > r s / / / / / r.r.l.r.y.i.x.f.d.d.g.f.d.",
"z l Y ] a.+.+.+.$.X.+.a.| +.X.+.{ [ ` H B N x ^ >.E.E.{.E.K.F.P.:X1XY.:.m & + o 3 + : : w s ` } r.r./ } O.y.y.x.v.m.d.a.O.u.a.f.",
"l [ l  .| | +.X.$.#.+. . .{ { [ { { { ] C A x $ A E.gXhXfXE.Y.E.:XE.D.*.b & 4 O w X : 3 6 s } } } y.y.y.O.y.p.l.d.i.s.u.a.a.g.d.",
"z H H  .+.+...X.......[ { { { | ..+.+.[ G ^ $ # 9 A E.gXfXE.E.E.Y.F.*.P c $ o 3 O . : > w H {  .o.i.@.O.y.y.y.y.} } u.g.d.a.d.d.",
"h a H l Y ] +.+...[ [ { | | a.+.@.#.#.$.P N x x x 9 A :XzXgX1XY.D.W M b & O o o 3 X X + 4 s o.o.@.m.#.O.u.y.p.p.y.u.i.g.d.t.d.f.",
"h s ( s l s { o...{ [ [ [  .| a.a.f.f.5.G Z x x x $ # -.E.R.L.>.W K n & & @ + o + 3 . 3 X s O.o.o.s.i.O.@.u.y.p.} y.u.i.d.g.g.j.",
"f s ( ` ( ( [ | | | |  .{ +.@.s.s.v.C.M.[ N 9 $ $ % O 9 N m P J n V B n c v & + O X . 3 3 r / }  .y.y.O.}  .|  .] / u.p.x.b.b.d.",
"h z s s s / ] | d.d.g.d.d.x.c.b.C.C.V.V.$.N 9 # $ $ $ @ & ;.=.L J n n K ' m c O + X . 3 . r / / O.O.@.O. .} }  . .y.u.t.a.p.d.b.",
"h z l l s l l | a.a.d.f.c.b.V.V.C.N.M.V.j.p ^ x 9 $ O 9 y D.Y.2.*.&.) >.2._ m # O X + O X * ( } O.@.@.@.@.u.a.a.a.$.#.f.u.t.b.M.",
"k z  .}  . .a.a.s.z.f.z.z.c.V.b.V.V.N.v.#.Z x 9 # $ & & u 6.1XE.P.L.0.L.I.L.) c $ + O @ + . r } $.%.@.l.7.N.v.8.9.9.9.8.8.m.z.M.",
"z Y g.g.p.g.b.x.V.8.,.+.$.' f.m.5.j.#.%.' 9 9 $ @ @ t V J L.1X1X[.R.I.[.[.I.L.m x # # c O . . * u s s @.7.( 7.XXXX9.9.8.9.z.t.f.",
" .u.t.d.p.p.b.x.5.0.;.%.' ;.u H ` H H u S w 9 9 @ y S ;.Y.1X,X>X,X1X,X,X}.}.W.) v c V c & 2 + O s s s ` ( s %.0.XX0.9.9.M.f.a.j.",
"' T g.d.d.g.f.5.0.;.' ,.;.%.u u u u H u t 6 $ # x K L.1X>XkXjXhXhXhXkXkXhX|.}.A.b c W c & 4 4 4 s ( %.8.N.B.T.XX.X,.8.9.9.f.t.M.",
"! ! X.$.a.[ 3.6.,.;.' ,.,.%.& n & u ` & 7 8 9 x A L.}.kXcXxXxXcXlXcXxXcXlXfX{._ b M M c & 9 8 @ & ` %.9.XXXXI.T.T.9.8.9.j.j.j.j.",
"3.-.>.! L ' ,.1.<.<.2.0.,.L S ' u s L & 7 9 9 b _ fXzXxXnXvXnXvXcXxXNXcXcX X}._ M b W v O @ @ @ * & S %..XXXXX.XT.T.9.M.Q.M.m.j.",
"3.-.-.-.;.=.2.2.0.2.2.2.) %.m ' K D m & 7 8 x M I.kXxXNXBXNXvXvXMXMXNXcXjX X}.A.M b K & O @ v V & O u %.,.0.0.T.T.T.T.XX!.j.M.j.",
"3.3.4.=.:.' ,.I.T.L.L.L._ &.' &.' m S 3 8 x W A.{.cXNXBXBXMXNXNXMXBXMXMXjX X{._ M m m O O c *.m m & * n %.2.9.XXXXT.T.Q.Q.!.!.j.",
"3.-.-.' -.P =.6.Y.I.I.I.0.) %._ m u 7 7 9 b G.W. XMXMXBXBXBXBXBXNXBXNXcXjX X[.A.M M m n ) ;.2.<.&.D 9 4 y P 4.6.Q.Q.!.%X<X%XE.!.",
"3.-.-.=.=.P =.-.' 6.T.L.0.2.>.) & 4 4 8 9 *.W.|.cXMXNXBXBXVXBXBXBXBXNXMXbX XW._ M M _ L.P.P.L.P.;.K t 4 4 6 Z E ' 6.j.M.Q.Q.Q.!.",
"R 4.4.:.1.:.-.-.W -.<.L.L.L.L.m 6 6 y 8 v G.gXjXMXNXBXNXBXBXCXVXVXVXBXNXjX XW.A.2.2.L.I.I.U.:.P V t 4 5 5 7 5 E P P R 3.M.!.%X!.",
"T 4.4.4.4.-.:.4.4.-.1.2._ L.L.* 3 6 8 4 V A.jXMXNXNXMXnXNXVXCXCXCXVXVXBXbX X[.L.L.P.2.) J & t O 2 2 2 2 , 5 6 9 E R R ! h.!.<X%X",
"T 4.4.-.-.>.1.J.1.U.L.P.I.J.G 6 4 6 9 y D -.W.jXNXNXvXmXnXVXZXZXCXCXVXBXxX,XI.0._ K V u & t 4 : : ; : , , 0 6 5 E E ! ! ! h.k.!.",
"I ! 4.S.K.F.Y.G.K.U.U.F.>.g 6 7 3 u 8 B K :.<.D.Y.{.>XcXBXVXVXCXVXVXNXlX{.T.,.m & & y 3 : 3 3 3 . ; ; , < 0 0 9 k ! ~ ~ ! ~ h.h.",
"w.E Q S.G.P.K.S.K.J.J.>.E 6 g 6 6 a y L ;.=.;.-.D.>.D.U.E.,XhXzXcXxXhXI.0.;.m u a r 3 r w p a w : : ; < , 5 6 d g E ~ ~ ~ h.k.! ",
"q.I W K.S.K.G.K.F.G.J.>.i j g g g i C L ' ' D =.=.<.1.U.6.U.F.U.U.U.0.6.&.K u * > r r p H s u w > ; ; , , 7 5 d g q.! ! E ! H.k.",
"q.k j Q Q K.G.G.G.G.G.J.I g g g g i F L H D G L L ,.6.6.6.1.<.<.,.,.,.L S r : ; 3 t u ` H p u w w r 3 3 , 5 5 f d h E ! ! ! h.h.",
"q.k 9 E Q Q S.S.S.S.S.E j g g g h e G G D u D p L ;.,.,.<.;.;.=.' ' ' u w > . : r u u S a F S ' J n V y e 6 5 6 d g R ~ ~ ! e.e.",
"w.I g E ~ ~ Q Q Q S.S.W g d 6 6 e i F C B a G B L ' ;.3.=.L L ' ' L u r r . . r w u t r u S ' =.J c V y i 5 5 6 6 g I 4.H.~ e.e.",
"w.w.I ! H.K.K.H.S.S.Q ^ k k 6 0 6 e p p a y p a H D L ` L G L ' H H t r > : > O w 3 O * S D ;.K ' P B 6 : < 0 6 d g d I w.! w.e.",
"I w.I 6.!.J.!.U.!.Y.6.U j g 6 6 e g i a i p u i p F G G S F L H H p 6 3 > 3 3 3 w . + a V L &.=.J N 2 , , , < d g g k T ! ! w.e.",
"e.R R !.Y.!.E.!.Y.Y.X.j g g k g d d h i t p i w p C C p p L L L j a w > 3 3 > 3 3 3 r S D P &.J y > . , , 5 5 g I g k Y h.k.h.e.",
"e.3.U.U.!.!.J.R.Y.Y.j h g k d g g g i e i a a 6 p p p t S H H u p i 4 > : 3 > > > > p S D J J t - 2 - : , < 0 f I k k k 3.6.6.k.",
"k.h.h.3.4.6.k.6.4.R g g k I j k e f g i 6 a t e i p p p F G G u p t 3 > > : > 3 > r u S y a t 2 . 2 2 , 5 < < f k k k k w.3.T h.",
"t.Y U U [ 3.X.R I h g d h I G I g e g i 6 i e 6 i i t F C S F p a r 5 > : : > : ; > u t & > 2   q 7 q 7 < < 0 f d f f f k q.q.w.",
"t.X.T X.X.X.R I g g g g p I I C i g 6 6 5 7 6 e w i a p B S p p e > 3 > 2 ; : ; > > r * X ; , - q 2 2 q , < < 0 e f k f k q.k y.",
"t.e.X.R R R I k j j k z I U U G j 9 6 2 5 5 3 e e e i p F C B w 3 5 3 5 > ; > ; > > r   = = > 2 7 q q - , , 0 0 d d d f k I U e.",
"t.Y U R U h g j j j I U U L R G p 9 9 7 2 7 7 6 6 6 i F F p 6 6 > 3 3 2 > > ; ; > : . = = = 2 q 2   - - q , 0 6 d d d k d w.Y e.",
"t.R R H j g g j C I E I C I y C N N e 7 2 6 5 7 3 6 a G F i 4 3 > 3 3 > > > ; ; , > ; = = - q 8 o % q - - 2 < 0 d f f f k q.e.e.",
"t.R R k I g I g 9 g i e 9 a i 6 e 9 9 5 5 6 7 7 3 w p p a 8 6 7 5 > 3 , : , , ; , : ; = = q q % % 8 8 2 - - < 0 0 0 f k k q.T e.",
"h.E I g I I j g g g y N Z Z N 6 5 9 9 , , 7 5 , 4 t a i i 6 6 5 , 2 : : , ; ; ; ; = = = = - q 7 q $ 8 % - - , 0 0 0 f f g q.t.X.",
"h.U j d g g g 9 E W ~ W A P W A 9 6 6 7 , 5 7 7 3 6 6 6 6 7 7 2 2 > ; : , ; 1 ; 1 1 1 = = - % 7 q % q - - = , 0 0 0 0 f 0 g U e."
};
