/* XPM */
static char *result[] = {
/* columns rows colors chars-per-pixel */
"64 64 174 2 ",
"   c #272521",
".  c #2B2623",
"X  c #2D2926",
"o  c #2F2B29",
"O  c #312724",
"+  c #312926",
"@  c #3A2F27",
"#  c #332D2A",
"$  c #382F2B",
"%  c #36312E",
"&  c #39312E",
"*  c #363130",
"=  c #3C3532",
"-  c #3F3935",
";  c #4E3526",
":  c #43332C",
">  c #533726",
",  c #553927",
"<  c #553B2A",
"1  c #5C3D2B",
"2  c #413734",
"3  c #423A36",
"4  c #4B3C34",
"5  c #453D3A",
"6  c #493E3C",
"7  c #543F34",
"8  c #5D412E",
"9  c #4B4237",
"0  c #47413B",
"q  c #4A423D",
"w  c #4F493D",
"e  c #574133",
"r  c #5C4233",
"t  c #53433B",
"y  c #544B3C",
"u  c #584E3E",
"i  c #59503F",
"p  c #64432E",
"a  c #76452C",
"s  c #71482F",
"d  c #634533",
"f  c #694631",
"g  c #6D4A33",
"h  c #644738",
"j  c #724B34",
"k  c #755139",
"l  c #79533D",
"z  c #4D4542",
"x  c #4E4844",
"c  c #514644",
"v  c #524A45",
"b  c #5A4E42",
"n  c #554D4A",
"m  c #594E4C",
"M  c #5C5343",
"N  c #57504A",
"B  c #5A524D",
"V  c #5D5451",
"C  c #5F5851",
"Z  c #614E43",
"A  c #605746",
"S  c #625947",
"D  c #60564F",
"F  c #655C4A",
"G  c #695E4C",
"H  c #745847",
"J  c #615653",
"K  c #635955",
"L  c #685D56",
"P  c #665C59",
"I  c #695E59",
"U  c #735F55",
"Y  c #6D614D",
"T  c #71634E",
"R  c #6E6351",
"E  c #6D625C",
"W  c #746551",
"Q  c #776853",
"!  c #786955",
"~  c #71655E",
"^  c #72685F",
"/  c #7A6D5D",
"(  c #6F6460",
")  c #716661",
"_  c #756A64",
"`  c #796D66",
"'  c #7A6F68",
"]  c #7C7165",
"[  c #7D716A",
"{  c #824E30",
"}  c #875A3E",
"|  c #945A3D",
" . c #805B45",
".. c #8A5F45",
"X. c #925E40",
"o. c #87624C",
"O. c #956244",
"+. c #92644A",
"@. c #9B6A4A",
"#. c #816756",
"$. c #8A6E5F",
"%. c #9E7355",
"&. c #A0704E",
"*. c #A36F50",
"=. c #A77455",
"-. c #AF7F5C",
";. c #B07355",
":. c #897267",
">. c #82756D",
",. c #85786F",
"<. c #9B7D6B",
"1. c #827770",
"2. c #867A72",
"3. c #8A7D75",
"4. c #967E73",
"5. c #8D8077",
"6. c #8E8179",
"7. c #92857D",
"8. c #A9846B",
"9. c #B58564",
"0. c #BC8966",
"q. c #B28569",
"w. c #BE8C6C",
"e. c #A28673",
"r. c #AC8E7A",
"t. c #B68E72",
"y. c #B69277",
"u. c #B2947E",
"i. c #C49475",
"p. c #C89776",
"a. c #C49A7C",
"s. c #CC9D7D",
"d. c #948781",
"f. c #968982",
"g. c #9A8C85",
"h. c #9E928A",
"j. c #A59487",
"k. c #A1948D",
"l. c #B79A86",
"z. c #A49791",
"x. c #A59A94",
"c. c #A99D96",
"v. c #AB9F99",
"b. c #ADA29C",
"n. c #B0A59F",
"m. c #B8A599",
"M. c #B7A99F",
"N. c #AFA6A0",
"B. c #B1A7A1",
"V. c #B4ABA4",
"C. c #B7AEA8",
"Z. c #BAB1AC",
"A. c #C39E84",
"S. c #C7A183",
"D. c #CEA182",
"F. c #CBA68C",
"G. c #D2A484",
"H. c #D2A886",
"J. c #D5AB8B",
"K. c #D9AC8D",
"L. c #C6A891",
"P. c #CBAD93",
"I. c #D7AE90",
"U. c #DBAD91",
"Y. c #DDB495",
"T. c #D7B59C",
"R. c #DEB89A",
"E. c #E2B59C",
"W. c #E3BA9D",
"Q. c #E4BFA1",
"!. c #E9C5A6",
"~. c #ECC6AC",
"^. c #ECC9AF",
"/. c #EDCBB1",
/* pixels */
"Q ! Q Q Q #.! Q T T T W W W T W T T Y Y Y F Y Y T T W R W R Y Y R Y Y Y Y Y Y Y T T W Y Y T Y Y Y Y Y Y W R Y Y Y Y Y Y F F F F ",
"Q Q Q T W Q Q Q Q T Q Q W G U W T Y Y T Y Y F Y Y S M M M M M M b w y u i S G F F F Y S Y Y Y Y Y T T T Y T Y Y Y Y Y M S F F F ",
"Q Q T Q Q Q Q Q Q H Q Q Q Y T T Y T Y Y Y Y F S N - = = * - % % % o % o & & 9 i S S Y Y Y Y Y S Y W T Y Y Y Y Y Y C S C C R F Y ",
"! Q T Q Q W W Q T T Q T W T W Y Y G Y G F F i 9 % % % * % o % o o o o o . X % # 9 S Y Y S Y Y Y Y Y T T Y Y T Y Y Y Y Y F F F F ",
"Q Q Q Q ! Q Q Q Q T Q T T W Y Y Y Y Y Y F y * * % = * * = * - = % % # X   X X X # 3 M Y G Y G Y R Y Y W Y Y Y Y Y Y F R F C F F ",
"Q Q ! Q Q Q Q T T Q T T W Y Y Y Y F F F 9 # o # % = * = - = * * # o X   .   X   . # 3 y i Y Y Y W W W R Y Y G Y F F F F Y F F F ",
"! Q Q ! T Q Q Q W U T Q Q Y Y G F Y L w $ o o * % = = * = = * * % o # X   # .   . X X # 9 Y G Y Y W W Y F G G Y R G F F F L F Y ",
"Q Q Q T Q Q T T T T Q T T Y Y Y Y Y S # # # # $ = = - - 5 - 5 - % % o X + . . . . . . X X y Y Y Y Y Y Y Y Y G F Y G R Y F Y F F ",
"W Q Q Q T T T W Q Q W W U Y G Y G F 2 # # # * = = 2 - 3 = & * * % % o X X   O   O . . . # 3 Y G Y R G Y G Y Y Y Y G F F Y F F F ",
"Q Q Q T T W W W Q Q Q W Q T G G F 2 = * % * - = = * = = 3 * # o X X o o X       . . . X # 9 G Y Y Y R Y Y Q Y R F F F Y F F F F ",
"Q W Q Q Q Q W Q T W W Y Q Y G F 2 # * * = = - = * & = # O O o o # # # # X     . . X o # & i G T Y Y R R Y Q R Y G G G Y F F F F ",
"W Q T Q Q T W T T W T T Y T Y u $ * $ $ * = - - & * O # # * - - 3 5 3 3 - 5 # o X X o # & G Y G T Y R R Q Y R Y Y Y Y G R F R F ",
"W T W T Q Q W Q Q T T Y T T G t * * * * = 2 2 * * * & 2 3 q q q 6 q 0 3 3 3 = $ # # . # c U G T T T T T R Y R Y G R F F F R F F ",
"Q Q T W T Q T T T T Y Y Y T Y 9 * * * $ * & # # $ 2 2 2 z z z z z z z c x z 6 * o o X # y G T Y Y T W T Q R R Y R F R F F F P F ",
"Q H Q W Q W T T T T T Y Y Y A = # # * * & # # & = 2 5 z z t e h h h d r 1 7 7 7 5 2 # + # 2 M G Y T T W Q R R R G R R R F F G F ",
"Q Q Q T Y W Y T Y T Y H T Y u + $ = * * + + * * 2 6 2 6 H %.t.S.a.8.%...H j f 1 > : # * # $ c T Y T Y T Y R R R R F G R G F F F ",
"Q Q T Q T T T T T T T W T T i @ % = & o o # & - 5 6 5 ..a.~.^.~.Q.J.p.i.=.O.o.k d > + . + = M Y T T T T Y T T Y W Y Y Y F F C Y ",
"! T W W W T T Q T T T W T T S 9 & - 3 & o & = 0 5 3 H A.W./.^.T.F.D.p.s.9.;.9.o.j 1 & $ w R W U T T T T W T T Y Y Y Y Y F Y Y F ",
"W W W W T T Y T T T Q T T T T Y Y S Y & % % = - z z 8.G.R.P.A.q.+.} @.s.w.&.l p d < 9 W ! Q Q W Q T T Q W W W W R Y Y Y Y Y Y F ",
"! Q W Q Q T T T W T T T T T Y Y Y F S & % = - q 6 I i.G.s.0.-.=.X.O.9.Y.H.s > 8 d 8 9 Y Q T W Q T T T Q Q T Q Y Y R Y Y L Y F F ",
"Q T Q ! Q T T T Q T T T T T G Y G F b & % * - q D :.s.H.p.*. .Z e.&.a.I.K.g @ 4 , ; 0 Y Q W W T T T T W T T Q T G R R Y F R F F ",
"Q Q Q Q T T T Q T T T Q T T T G Y G 6 * * - - v ~ e.D.G.Y.D.y.e.u.i.W.K.W.=.8 r p > 3 B Q W Y Y T T Q T T W Q Y R F Y G F F F R ",
"T W T T T W Q W Q Q Q T T T T T W b - 3 3 3 B ~ 1.r.G.J.Q.!.Y.D.s.R.Q.K.Y.i.p 8 p 8 : 5 Y W Y Y T Q Q Q Q Q T T R R R F F C R F ",
"T Q T Q W Q Q Q T Q T Q Q Q T U T & $ = z K ` [ 3.j.F.J.W.^.~.W.!.Q.Y.K.H.G.s p g p & = G T Y Q T Q T Q T Q Q T R Y G R R R R F ",
"Q Q T W Q Q G Q Q W Q Q Q T T T Y b 5 x ) ` ' _ 7.k.m.L.K.W.W.E.W.J.s.s.G.K.} s d e @ & v Y Y T T T R Q Q Q Q R R Y Y G F F G F ",
"T Q o.W Q W W Q Q Q Q Q Q T W T W W G E :.,.>.' g.x.V.V.F.K.U.E.E.s.p.K.G.W.*.k p > @ # 5 F W Y R W W Q Q T Q R R R Y G R F F F ",
"T Q T T T W Q Q Q Q ! ! Q Q T Q T Q / ` >.,._ 1.k.v.V.V.m.G.K.U.G.p.i.@.O.0.@.s p > @ % & M Y W R W Q Q T ! Q R R Y Y Y G G F R ",
"Q T T Q Q Q W Q W ! ! ! Q Q T Q Q ] ` [ 3.7.' 7.c.V.C.n.c.D.G.G.i.a.A.u.<.7 ; 1 8 , & % & b Y T T T Y ! ! T R Y R Y Y Y G G G F ",
"Q T T W W W T T Q Q Q Q Q Q Q ! ! ,.` 2.7.3.,.k.v.V.Z.V.c.A.D.A.m.B.b.z.4.U v 4 , 1 ; % % w Y Y Q Q Q Q Q Y R R R R G G G F F F ",
"Q T Q Q Q T T W Q Q W Q Q W Q Q / ,.1.d.7.1.3.z.n.V.Z.Z.n.l.A.M.V.7.#.+.X.{ p c 9 , ; & = 9 S Q T T T T ! R Q R R R R R R F F F ",
"T T T W W T H T W Q W Q W W Q ! / ' d.f.7.>.7.k.v.B.Z.Z.c.k.c.V.x.:.8.;.| a ; 6 q 9 9 - = 0 M R R R Q Q ! R Q R R R R G G F F F ",
"T T T Q W T T Q W W W W W W Q #.>.3.k.f.,.' 7.g.x.v.C.V.c.v.n.n.f.3.j.e.$.Z 5 6 9 9 : - - % S R T Q T Q ! ! R R R R G F F F S C ",
"Q T T W T Y Y Y U W W W Q T ! ,.6.f.f.1.~ ) 3.k.x.c.B.b.c.n.n.c.3.3.z.d.>.K v z z z - 3 = - b L T Y T Q Q ! W W G G G G F A A D ",
"Q T T T T Y Y Y T G W Q Q Q / 3.2.g.7.` E >.d.h.z.v.v.n.c.v.x.f.3.f.v.z.3.) B z z 5 5 3 - - 5 A Y T T Q W ! Q Q Y R G F F F S F ",
"T T Y T Y Y Y Y G G T Q T Q / 2.>.d.7.^ E 2.f.j.c.c.v.b.n.k.h.3.3.h.v.h.6.' K x z - 3 5 3 3 3 c S T W T Q Q Q W G R G G F F F F ",
"W T T T T Y T T T Y G T G G ~ ,.) 7.7.[ ` ,.7.k.c.c.n.B.n.k.g.3.3.z.x.d.3.E w q 6 - 3 3 5 & 3 3 b G Y U W W W G G T R Y F F M A ",
"T T T T Y T T Y Y E E T Y R ~ >.' 3.,.3.' >.7.k.z.c.v.V.c.k.g.2.6.h.h.5.>._ N v 6 5 5 = 3 = 3 # 9 F G T W Q W G Y Y M Y F F F F ",
"W T T Y G Y W L E ) ` ` W L ) ' >.` 3.3._ >.3.g.k.z.x.v.x.k.d.>.5.h.g.5.>.( K n q z 5 = 3 = 2 = 4 F T T R W W G Y Y Y Y F Y F F ",
"T T T Y Y F P E ' [ [ ,.>.[ ~ ` ) E >.2.,._ 2.d.h.z.x.N.k.h.7.>.2.6.d.5.] E C v q q 5 5 = = & = 9 F G Y W W W W Y Y S Y L F F F ",
"T G Y Y Y R E ( [ [ [ 5.3.,.` E K I [ :.` ~ >.7.h.h.x.v.x.g.7.2.[ ,.5.[ [ _ K n q 6 5 q 5 = & = 5 F G G G T T T S Y F Y M F F M ",
"G Y G T Y Y ^ ^ _ ) 1.1.3.1._ K K _ ,.E ` I ` 2.g.z.j.k.k.7.3.2.` >.>.[ ' E P C N v v n z 5 = = = y S Y Y Y Y Y Y S F F F F M F ",
"T G T G Y S E K _ ) I _ ' ' E E ^ 2.` ) E J I ] 3.7.f.f.f.3.>.` ] >.,.' ) K K K K I C n z 6 - = - 3 9 M Y Y Y Y Y Y Y Y F F F M ",
"G T Y S F B K B I _ ` 1.2.[ _ ) ` [ I ~ J z n ~ >.3.f.7.3.,.>.` [ 1.>.[ ( E E I ( ( C v x 3 3 = - - # - i Y Y Y Y Y F F F F M M ",
"T T T S S w q n J I ` >._ [ ( K K E E B B z B E ` >.7.3.7.2.2.>.[ 3.3.1.( ( I E ) _ K N n z 5 - 5 & # o = S Y Y F M F F M F F M ",
"Q G F M q q x z V P ) ) ` ~ K E E ` _ V v z q K ) >.7.2.3.3.>.' [ ,.2.5.>.E ( K ( ' E N z z z - 5 & & @ # 9 Y Y Y C Y C F M M F ",
"G G B x c c z z z P J P E I E _ ) 1.( n z 0 q n ~ >.3.2.3.[ :.` _ ` >.2.2.) E C I ( E B N x x 5 3 % & + + % - S Y Y M M M F M M ",
"S c x n x z x z x m P J C J E ) ) [ ) v v q 5 v ~ 2.2.1.3.>.1.' ^ [ ] [ [ P K N J E P N z N x v 5 $ # + # % % w M Y K Y M F F M ",
"x z n v q x n n n c V J V B J E ) C K C n z q B ` >.,.>.2.>.,.' ^ [ [ ] [ ) C n V P K N n V B x 3 2 # . o o o * M M Y M F M F M ",
"v x x z 5 * z x z z x m V J V P I m m m n c 0 n ) >.1.>.[ 1.1.' _ _ 2.[ [ [ C N V C C N n B n q 6 = + O + # o % 9 F S Y M M M M ",
"N m V v x x x z z z z x m P P V m m m m v c q c K ~ _ ` ' ' ' _ _ ' ' 3.6.[ K V N V B n x n q z 2 = + . + o o % % b M Y M i M M ",
"V C C P V n x x 5 5 x x z m V P V m m m B v 6 c B D I K _ ' ) ' ' _ ' _ ( P K m V v n z m n 3 3 2 $ # # + X o o o - M M M i M M ",
"n n x n V J V n x x z - 6 z c m J J V m J n 6 z v v B B I _ _ _ ' ' ' ) ( E C m V x n x B x 6 6 3 = # # X X % o o % - M i M i M ",
"V n V x z n z x m m m x 5 x x c V J V V ( J z z v v c B n I _ _ ( ) _ ' ) I C v v x x x N z x c 5 & + + + + # X X % % y M i i i ",
"x C x n V n V z 5 n x z 5 5 x 6 z m m P ( c z c z t 6 6 6 n m J P E E P I V B z z 0 z z v q - - 6 # # + # # + X X X o - i M i i ",
"V m m n P n n n 5 = x n x 6 x m 6 n m J m m c c z 6 c 2 6 6 n n N N N C C z z - 5 - z x x B z 6 2 $ # # O . # X     o % y i i i ",
"P P P P V x x n z 5 5 x n z = x c 6 z m m c m n m J c 6 6 6 6 2 x z n x x z - = = + * z x z 6 z = + # # . . + X   X X % w i y i ",
"V B V V n n n n x x - 5 m z 5 * m x z m m V m V J J m c m c 6 2 = - q z z 6 = # + . . O = 5 - = % + + + X X o X   X . o 9 i i y ",
"V B V V n n n n x V 5 * z m x 5 - m z 6 c n m J J m m c c c z 2 2 - 3 6 5 5 = +   O O O O O O # $ X @ +   X X X o X   o - i i i ",
"V V V V V B n n x x z z = z n 5 * c c 6 c c V J J J J c m z 6 6 2 = 2 = - 3 $ X . O # # O + # $ # # X o # . X o     X X = y u u ",
"V V V V n V V n m z V m 5 = x q 5 - c 6 z m V J m m V c c c c z 6 2 = & # # X   . O + $ # # $ $ & $ @ X X . . . X       o w y i ",
"V V V V V m V x c z n n q = 5 z 2 * 5 z 5 c J m J m J m m m c c c 6 = = # X     . O # $ & O $ $ & # # O X   X X X o   . . 9 y y ",
"V V V V V V V n x 5 n z q 5 - 5 5 2 # c z 6 c m J J J m m c c t z 6 2 = = . o . . O # + + = = # + # # +   o X o X .     X % y w ",
"V V V V V V V m x c q n z 3 = * 5 2 # c 6 6 c m J m J c c c c 6 6 6 6 = $ o . o . # # $ # # $ $ # + + .   . . o . X X X X X 9 w ",
"n n n V V V V m x x 5 c z 5 = - * z 2 5 m c 6 6 m m m c c c c z 6 6 6 2 = X . . X + $ $ # # # & # + + .   . . X .       X   & y "
};
