/* XPM */
static char *result[] = {
/* columns rows colors chars-per-pixel */
"64 64 247 2 ",
"   c #050404",
".  c #0B0504",
"X  c #0D0905",
"o  c #0C080A",
"O  c #130504",
"+  c #1B0605",
"@  c #140905",
"#  c #1C0A06",
"$  c #140608",
"%  c #1B0608",
"&  c #140C0A",
"*  c #1B0B09",
"=  c #1B1206",
"-  c #13120B",
";  c #1A170A",
":  c #1C120C",
">  c #1A1812",
",  c #210606",
"<  c #230B06",
"1  c #2B0C06",
"2  c #250608",
"3  c #240C09",
"4  c #2B0C09",
"5  c #330D08",
"6  c #241106",
"7  c #2B1206",
"8  c #24130C",
"9  c #2C140B",
"0  c #251B0C",
"q  c #2C1A0D",
"w  c #33140B",
"e  c #381509",
"r  c #331C0D",
"t  c #3B1B0C",
"y  c #2B1611",
"u  c #241812",
"i  c #241B14",
"p  c #2C1C13",
"a  c #331610",
"s  c #331C12",
"d  c #3A1E13",
"f  c #26220D",
"g  c #2C220D",
"h  c #35210C",
"j  c #3B240D",
"k  c #2C2314",
"l  c #292416",
"z  c #2D221A",
"x  c #342213",
"c  c #3B2314",
"v  c #332A17",
"b  c #3C2C14",
"n  c #33241A",
"m  c #3C261A",
"M  c #3C2A1C",
"N  c #3B3517",
"B  c #332B21",
"V  c #3D2C22",
"C  c #3D2B25",
"Z  c #393427",
"A  c #32312C",
"S  c #3C332A",
"D  c #441A0B",
"F  c #431D12",
"G  c #45240C",
"H  c #432513",
"J  c #472617",
"K  c #442A15",
"L  c #432C1C",
"P  c #4B2C1B",
"I  c #552B19",
"U  c #45321D",
"Y  c #4C331D",
"T  c #46391B",
"R  c #573719",
"E  c #52341D",
"W  c #663319",
"Q  c #442E22",
"!  c #492E23",
"~  c #453323",
"^  c #4B3424",
"/  c #44352A",
"(  c #4C362A",
")  c #473A28",
"_  c #4C3B2C",
"`  c #523523",
"'  c #573525",
"]  c #543A25",
"[  c #5C3C24",
"{  c #533B2B",
"}  c #5B3D2B",
"|  c #463F32",
" . c #4C3C32",
".. c #553E32",
"X. c #633C25",
"o. c #653C28",
"O. c #783B23",
"+. c #3C4239",
"@. c #4A411E",
"#. c #56421D",
"$. c #684219",
"%. c #754D1E",
"&. c #4A4526",
"*. c #584826",
"=. c #56422C",
"-. c #5C422D",
";. c #56522A",
":. c #4C4637",
">. c #544233",
",. c #5B4433",
"<. c #5D4934",
"1. c #58463A",
"2. c #5C4B3B",
"3. c #5B5436",
"4. c #62432C",
"5. c #694628",
"6. c #6B442B",
"7. c #744928",
"8. c #7C5527",
"9. c #644633",
"0. c #634B35",
"q. c #6B4C35",
"w. c #614639",
"e. c #634D3B",
"r. c #6C4E3A",
"t. c #734D33",
"y. c #7A4B34",
"u. c #685937",
"i. c #64513C",
"p. c #6B533D",
"a. c #7B5434",
"s. c #72543C",
"d. c #775839",
"f. c #74613C",
"g. c #3A494F",
"h. c #4B4B49",
"j. c #554C44",
"k. c #5C5345",
"l. c #5A564C",
"z. c #484D58",
"x. c #485459",
"c. c #575959",
"v. c #634E41",
"b. c #645243",
"n. c #6B5543",
"m. c #6D5942",
"M. c #64544B",
"N. c #685748",
"B. c #655C4C",
"V. c #6B5A4B",
"C. c #745B44",
"Z. c #785B46",
"A. c #735D4B",
"S. c #635E53",
"D. c #6B5C53",
"F. c #715E52",
"G. c #5D635D",
"H. c #6E654D",
"J. c #766349",
"K. c #7B624B",
"L. c #666255",
"P. c #6B6254",
"I. c #736453",
"U. c #7B6554",
"Y. c #796A59",
"T. c #575E63",
"R. c #5A676D",
"E. c #676865",
"W. c #6F6E6A",
"Q. c #7B7466",
"!. c #95391A",
"~. c #8E3C23",
"^. c #884A2E",
"/. c #885B28",
"(. c #865839",
"). c #965B3A",
"_. c #92662A",
"`. c #8E6733",
"'. c #9A6539",
"]. c #A2693A",
"[. c #835D42",
"{. c #835E49",
"}. c #886647",
"|. c #976848",
" X c #98724D",
".X c #846D56",
"XX c #897359",
"oX c #997555",
"OX c #A46A45",
"+X c #A97957",
"@X c #B37A5D",
"#X c #816F63",
"$X c #847464",
"%X c #8B7563",
"&X c #83776A",
"*X c #867A68",
"=X c #8C7D6C",
"-X c #947E69",
";X c #897D72",
":X c #AB8037",
">X c #B2845E",
",X c #8F836F",
"<X c #93826B",
"1X c #9B896D",
"2X c #8D8577",
"3X c #928373",
"4X c #968975",
"5X c #948B7B",
"6X c #9A8E7D",
"7X c #99907E",
"8X c #A78565",
"9X c #B48A66",
"0X c #A5927C",
"qX c #5F7183",
"wX c #737983",
"eX c #898985",
"rX c #928E8A",
"tX c #9B9383",
"yX c #9B9589",
"uX c #9D9A94",
"iX c #A59584",
"pX c #A69887",
"aX c #A49A8C",
"sX c #AA9B8C",
"dX c #B09D86",
"fX c #A69D92",
"gX c #AA9E93",
"hX c #B6A48C",
"jX c #ACA192",
"kX c #ACA399",
"lX c #B2A394",
"zX c #B3A996",
"xX c #BDAB93",
"cX c #B5A99A",
"vX c #99A0A3",
"bX c #B3B1AA",
"nX c #C1AF99",
"mX c #C8B69C",
"MX c #C6B9A4",
"NX c #CDBCA8",
"BX c #CBC0AF",
"VX c #CDC4B2",
"CX c #D2C8B6",
"ZX c #DAD2C4",
"AX c #E4DED0",
"SX c #E4E2D6",
"DX c #E6E5D9",
/* pixels */
",.) B Z B A V | S S S +.:.l.k.k.k.k.k.k.B.B.B.L.P.L.B.H.S.B.B.M.B.M.V.M.b.V.V.V.V.H.H.Y.Y.Y.Y.#X&X=X=X=X=X$X*X=X,X*X&X&XQ.#X;X,X",
"! >.B & & & : 8 u - & & & & : 8 : . @ & : @ : * ; @ : 8 : * 0 i y 0 * : + i n g n z p k n x n M M V C C C { ....( :. . . . ./ ( ",
"<.>._ n q / <._ 1.2.,.e.1.>.<.>.( ~ ( ( _ ( ^ _ =.>.,.<.<.<.w.....( L Q c s < 6 * * 8 d M m M V M M M M M ( ( ~  . .C C Q Q Q Q ",
"2.2.>.V # < M ~ 2.e.v.e.e.2.0.w.9.=.<.,.2.<.<.<.e.2.i.i.b.i.w.,.,...( ^ Q m d q w y s m x d Q ^ s M m V V ~ M V  . .B Q / Q / ! ",
"1.2.>.M 3 < < % p { ......2.e.e.e.,.<.e.v.n.2.r.r.b.i.e.i.i.v.v...{ ' ( ^ ^ m s d d C Q Q Q L ^ Q ( { _ >.{ >.>.j.| &.2.1.>.:._ ",
",.2.,.^ 9 6 # % $ # y ~  .,.p.p.b.i.w.e.r.n.n.n.n.e.i.b.2.<.e.,...( { ( ( ! ! m n s u 8 s s y n ~ : i p m k x > i Z n i n z B v ",
",.2.=.Q 3 < # # . % $ . i _ 2.i.n.m.e.2.v.n.m.n.n.i.i.i.i.i.>.{ ..{ { ^ Q Q L Q K s 9 q c n n C n M M V { 1.1.>. .1.) :.:.| | ..",
"e.m.=.L 3 < % % O , #   O + n >.v.<.,.<.v.r.n.n.e.i.e.i.i.2.<.{ ! ..( ( L L m H c q 9 6 : * * * 8 v 8 : n i > z B B / z z i p i ",
"m.2.( H , 3 < % O O O . . . O + y ~ <.e.e.9.e.r.m.p.0.<.n.,.] { ^ ! ( ! L L L d 9 d d y u > * u 0 i V p > u z n C S S / z z i z ",
"i.v.<.~ 3 9 7 O O   . . . O O # 2 < x ..} >.,.e.e.<.<.w.e.=.{ { { ! L L m m c x y 8 y 3 : i p B V M V x V S S S _ S S S v B z B ",
"J.e.=.~ , w < O   . . O . . O # 3 9 4  .>.} =.2.<.9.,.9.} [ { ` { ^ Q Q L L M m y 6 . # * : i i u k p M 9 : u l l i p V n i i i ",
"p.p.] P < 7 3 % O O . . . . O % 4 5 3  .=.,.{ ,.} } } 9.,.-.{ ` ] K ! ! Q L M x 0 < @ @ @ & & @ - : : k d : : * > > > i C z l i ",
"p.p.] ~ 6 < 4 7 < % O O . O O # 4 5 3 Q P ( { L q L ..9.} } } } ` K ~ L ! H L m d 9 * . . . . * * 6 9 y q u 0 8 y y p w y 8 : y ",
"p.p.=.b 7 7 w 7 # < # % + # + % 1 4 4 ( _ { { Q 3 * n ! ......{ ^ U U ~ Q M m d m p 0 . . .   o . X . @ O @ O . X . @ O O @ O O ",
"p.C.{ K 7 w e 7 % O , 3 , % + < 9 + r ( { ....| O # % O * Q { { ` ^ ^ ( L m c c s y 0 * @ O .       X @ @ . . . .   . . . $ o O ",
"p.J._ L 1 1 6 7 + % % + + < + , # + 3 / _  ..._ + # 3 + $ 8 u M ! K U L M L m x q 9 8 & O .         . . . . .                   ",
"i.J.,.L < + + O % 4 % % % # O + + + & C _ / _ / * 8 3 # * 9 < 8 Q U ~ Q n b b x 9 q 6 : @ . .         . O . .                   ",
"H.Z._ Q < + # O o * O 2 % O O O % # @ M ~ ~ ~ / @ + 8 * 3 7 4 0 K K m s L L M x x p 9 * + % o       . . . . . .                 ",
"%XJ.U m , , , < 8 * @ % + 4 * % + O @ / _ _ ) V 9 w 6 < w 7 9 y U c c @ & n M M r q q # % @   . . .   . . . O .         .       ",
".XK.{ K % O , 3 i 3 w 3 # % $ $ + O + _ >.( _ M 7 t w w w w < w c n n     . & y x 0 s 4 & O . X . X     . O O . .   . .     o   ",
"Z..X<.U @ O + % O < < # # % + O + O @ ( ,.( ~ M < 1 1 1 < # + : x r g .       . q t q # + < @   . . . . @ O + O . . . . .       ",
"Z.XX=.U < # 3 3 % 3 % 3 < * + + O O 8 ( ] ( _ M < < 2 7 w + % @ h c x         . + q < # # 8 O   .   . @ + X @ @   . . . . o     ",
"%XY.=.~ 4 + % % + < # + 8 3 % 3 O % p ^ *.0.i.>.4 + 1 5 7 9 + u h r q .       O * 9 @ O O 4 O     . . O # = & . . . . . . .     ",
"<XXX,.` 3 + O @ . % % O O # 3 s # + * ] d.q.' ] 7 1 1 2 1 1 < = c h h @ .   . . : q @       .     . O @ + # O O O . . . . .   . ",
"XXXX3.^ 3 % % , % % O o @ s 3 9 9 * # ] Z.s.o.U w < 9 3 1 , , < x t h * O . . . 8 p & o . o .     . . : 3 # < 3 % . @ o O O O @ ",
"tXXX=.^ # * O O O O . O & 9 8 # O * = ] s.d.5.] w + # O < < # < J E K O . O . . 0 c * . . . .     . . # < < 8 8 + . : @ # # + 8 ",
"tXp.U M @ . O . O O . O * 3 + 2 % & 8 ` R 5.X.] 9 < < % + + O # K E K @ + < O . q c 8 O . . .     . O + < 6 4 8 # @ # < < < 6 9 ",
"tXp.U M . . . . . . . O O % O 4 2 4 8 Y 4.6.X.[ < # < + + + . 6 U ' P # < 6 O + j Y 0 . .   o     o & # 6 s s y q 9 7 4 1 4 x H ",
"tXu.~ ~ @ .   . . . O O O O % 2 < 4 < K X.6.X.E % + , O + + . = U ] K + + 3 # # m E 8 .     & .   o O y =.e.b.v.M.2.9 < < 7 c ~ ",
"tXi.~ b @ o . . . O . . O 3 3 , + + 6 U [ 9.E E + + < O O + . 6 ] 5.Y 6 8 6 6 6 x G 8 @ . X + . . % # x 9.E.;X2XeX&X< 9 7 w c ..",
"7Xi.) M . o     . . . . O # % O + < < J 4.X.' R O . . O O O . 8 R [ P < < < < < j E 6 O . . # O @ = 9 x <.2XvXvXvXrX7 9 q r ! 1.",
"5Xi.T c O   .     .   . O O o . . + < e e D D J . . 6 q # . # h [ 4.K + + + < 7 J X.9 O X . # O @ # w c 9.rXbXbXbXuXr w 7 w ! 1.",
"5Xn.N r & .       .   . . . f >   O + 5 D G 7.R < h $.$.7.j [. Xa.4.Y + % % , < K 6.7 * . . * O # # 6 c <.eXbXbXbXuXs 4 7 9 ~ 9.",
"7Xn.] x % o     . O O .     l l = O + 5 I R ).I w $.%.7.|.X. XoXO.6.[ < < 3 + + m 5.q . o O & * 6 r w t } E.wXrXvXwXa 3 < 9 L 9.",
"7Xp.} q . .     . O O X   - N ;.N u.K.a.(.(.^.X.e %.$.(.}.X.d. X(.t.K + O + % O U t.y O d { ( p @.$.R j I M.T.T.R.Q.s y 4 9 K ..",
"tXC.=.0               . - h.R.c.v d.|.+X|.o.W D $.%.$.(.}.D [ }.}.5.R 6 + O + O c 4.y w n.J.XX5.f. X%.R J n.Q.Y.S.D.a 9 < 9 ^ { ",
"tXm.=.q             . . A R.R.x.z N (.(.4.7 D I 8.(.t.t.6.j Y  X}.J.L Q }.d.4.( ! P c d p. X X$.a.XX<X%.$.u.U.Y.I.F.a 9 9 9 U ( ",
"rXp.=.x o             ; +.x.x.3.v f Y R G - G ).8.[.d.t.R = }. Xd.q.& > ` 5.<.D.1.{ H ` 6.XXU.0.R d.}.}.(.8.y.n.A.A.a y 9 9 L ` ",
"7Xs.<.M X           . > B S +.) l f v h q X J ].].).7.d.4.0 d.oX}.*.> - z.T.g.z.j.K d F P R 0.5.d.`.U..XXX(.^.y.n.C.a a a y ! Y ",
"2Xi.*.m .           . > g.:.z n i ; ; - O ; O.'.OXOX(.(.5.Y _././.R o.S z.z.z.c.M.0.o.W E &.d.J.}.m.I.Y.XX{.).|.q...s a 9 s Q ` ",
"2X2.=.v .           - +.g.h.n 0 - >       X y.'.OX).).y.(.7._._._.#.}.2.c.l.z.z.P. X(.y.E &.;.3.k.S.E.E.E.Y.+X|.).F m d a d Q W ",
"2Xu.-.n             > g.h.&.& ; : X X X X   6.'.OX'.t.t. Xd._._._.(.oX3.L.k.h.c.W..X}.y.<.;.&.&.h.R.L.E.E.%X@X XOX(.' F 4 a ' ~.",
"5XH.U q           = l g.+.> - - ; * 0 0 = & X.).'.'.] %.7.W _._._.#.d.U.k.:.k.E.qXL.k.<.f.f.;.N T 1.S.D.S.8X9X@X+X@XOX' a F O.!.",
"2Xb.Y 0         o ; x &.A o - - 6 u f v v q K |.].).R /./.j _.:X:Xa.8X9XK.>.u.Q.qXG.S.l.H.J.3.N N ;._ l.Y.9X9X@X@X@X+X(.F W ~.!.",
"2X<._ q       o   = h &.v - X f v g g g b b E 5.).y.R 8.$.f %.]._.f.}. X(.0.-.G.R.x.l.3.H.H.;.T &.3.;.&..X8X>X@X@X{.w.O.O.~.!.~.",
"2X*.` p       o = 0 h Z N ; ; N @.T v b g ; b R ^.X.g j b @.@.`./.8.>X}.t.&.=.E.R.x.l.l.J.J.;.@.N &.@.+.H.Y.|.+X+Xn.w.o.O.~.^.^.",
"5X0.] s .   - = g 0 0 V k f v &.;.;.T @.b b #.R *.i.~ v @.=.) R a.5.(.i.Z.9.i.W.R.c.S.H.q.i.Y.v N #.f.J.}.q.oX8X-X{.` y.o.Z.~.Z.",
"7Xs.-.r & . 0 g v ; X K E U ;.;.3.u.H.f.T #.*.5.q.0.0.L.H.J.m.M.) ` _ ~ 4.C.S.z.T.l.l.Q.u.=.&.:.H.<X<X1Xr.J.V.n..XC.{..X[.y.Z.#X",
"2Xu.^ r . . 0 g = - X x 6.$.*.f.u.u.0.*.w.2.1.k.j.l.S.I.Q.XX[.3.r.,.>.>.3.M.U.A.V.E.Q.4X.XXXb.Y.$X<XXX7X3X<XK.N.H.Z.Z.-XdX0X8X1X",
"2XU.U h X # 6 6 = ; v ) [ o.s.t.0.1.k.B.m.B.S.S.l.h.S.P.Q..XU.*X%X;X4X1X6X4XXX%XiXaXgXlXcXtX5XfXfXaXjXsXpX1X1XsXdX0XhXhXdXhXhX0X",
"5XZ.] q @ + h h h g v N { q.r.n.b.v.D.F.B.M.M.M.M.l.l.L.Y.W.Q.Y.=X=X<X<X4X3X;X6X0X7XiXsXgXfXyXaXsXpXpXiXiXsXjXjXlXcXlXgXsXlXlXhX",
"tXJ.0.x O 9 G t j f f ^ ,.e.n.v.2.v.D.I.b.b.v.v.M.l.L.P.W.Q.Q.$X%X-X=X=X<X<X-X4XiXiXiXaXiXgXaXfXsXsXsXiXpXjXkXcXkXkXcXkXgXcXcXkX",
"tXC.9.M 8 9 e t j v k | 2.n.p.e.2.v.M.V.b.e.n.A.F.F.V.I.$X&X*X&X$X$X3X4X,X4X6XtXtXaXtXiXgXgXfXfXkXfXsXsXlXgXkXcXcXzXcXcXcXMXMXnX",
"5Xp.,.m 3 7 e G j b b _ 1.v.e.j.j.v.M.F.n.e.M.M.D.V.F.U.Y.&X&XQ.&XQ.*X=X,X,X4X7XtXrXuXyXaXfXyXaXfXfXuXfXsXjXzXxXbXVXCXVXCXCXCXCX",
"5XU.r.K 9 r G t h T :.} 1.v.1.,.2.V.M.N.v.b.N.B.P.I.Y.Y.&X*X;XQ.&X&X&X*X,X3X4X7XyXuXuXiXaXyXaXgXkXfXgXgXhXbXBXBXVXCXVXVXVXCXZXCX",
"6Xm.9.K w H H e j #.} ..e.e.,.j.e.N.V.I.A.N.N.F.P.F.U.#X&X$X&X&X&X&X;X3X,X,X2X7X7XyXyXsXaXaXaXgXfXsXfXjXMXVXCXCXVXBXMXcXxXxXcXxX",
",Xr.E c t c t w h T { _ >.>.k.v.1.v.M.A.A.V.n.A.M.F.Y..X&X#X$X$X&X&X;X3X3X3X2XeX5XiXsXaXiXaXiXaXsXlXlXcXBXmXmXmXxXhXnXxXnXnXnXnX",
"2Xn.{ ^ c j 6 7 j T / n k z i s V Q { ( L Q ! I ! m Q Q Q Q C B Q ! o.' } ..>.M.b.n.b.F.D.M.v.F.U.%X%X0XnXmXmXmXmXmXCXCXCXAXAXSX",
"5Xp.} P c w # q j b N s r 8 : O 3 1 w a 2 , 5 e D 4 < 9 % * * @ , 5 5 t e b c w t w a d d y p s P 9.*.J.0XmXmXCXAXSXSXAXSXSXSXSX",
"5Xp.<.] c w 3 r g b U H t t 9 < 3 4 2 a 2 2 2 5 5 5 4 4 9 * O O 4 5 e w w r t t w d a r d F ` ! F ' 5.f.0XNXmXCXSXSXSXSXDXSXSXDX",
"tXs.} ` J t r 0 h K Y K H D 7 7 4 2 2 5 1 7 5 5 5 5 5 e t % % 4 4 t P J K H P P d t H c F J } o.J E } C.0XNXNXCXDXSXSXDXDXSXSXDX",
"rXn.9.} E G j c M U T H D I t < d t D 5 5 5 1 1 5 e 5 F F 2 2 a e P [ [ [ -.9.9.` P } 9.} } r.9.r.s.Z.J.0XmXmXCXDXSXSXDXDXSXDXDX",
"tXp.<.[ E J m H ~ K K K G I J w L ` ' 5 2 J P ` ` I o.o.F t L 4.o.} 9.4.4.9.s.r.9.o.[ t.n.n.w.r.Z..XK.XXhXmXNXCXDXSXSXSXDXSXDXSX",
"rXZ.-.` P E K ' { K P Y I F t t L o.I 5 1 ` 9.[ 9.q.s.y.J H [ q.r.r.r.t.q.Z.C.s.r.t.t.Z.[.Z.Z.Z.Z.Z.Z.%XnXmXmXCXDXDXSXSXSXDXDXDX"
};
