/* XPM */
static char *result[] = {
/* columns rows colors chars-per-pixel */
"64 64 245 2 ",
"   c #060609",
".  c #08070A",
"X  c #0B0B0D",
"o  c #090707",
"O  c #130E0D",
"+  c #1A0F0D",
"@  c #16110F",
"#  c #1B110E",
"$  c #0D0D11",
"%  c #120E11",
"&  c #0F1013",
"*  c #141114",
"=  c #1B1313",
"-  c #1E1A14",
";  c #14141A",
":  c #1B161A",
">  c #1D1A1A",
",  c #17191D",
"<  c #0E100E",
"1  c #240F0B",
"2  c #23130E",
"3  c #2B150E",
"4  c #36160E",
"5  c #231512",
"6  c #2C1612",
"7  c #231C15",
"8  c #2C1B13",
"9  c #231D1A",
"0  c #2B1E1B",
"q  c #241719",
"w  c #331C13",
"e  c #3B1B14",
"r  c #351A16",
"t  c #230F10",
"y  c #262116",
"u  c #292117",
"i  c #25211B",
"p  c #2B241B",
"a  c #2E291D",
"s  c #34231B",
"d  c #3B251A",
"f  c #322C1E",
"g  c #3C2A1D",
"h  c #372216",
"j  c #38311E",
"k  c #1C1D26",
"l  c #281F21",
"z  c #381E21",
"x  c #2C2322",
"c  c #282628",
"v  c #322A21",
"b  c #3A2C23",
"n  c #372927",
"m  c #3B3423",
"M  c #3A342B",
"N  c #292A37",
"B  c #393635",
"V  c #312F3B",
"C  c #431B12",
"Z  c #4B1D14",
"A  c #571C16",
"S  c #641D16",
"D  c #432B1D",
"F  c #4B2B1D",
"G  c #462518",
"H  c #562818",
"J  c #5C321C",
"K  c #55341E",
"L  c #45331F",
"P  c #672917",
"I  c #762C17",
"U  c #6B321B",
"Y  c #67371B",
"T  c #76361D",
"R  c #452D25",
"E  c #582922",
"W  c #443324",
"Q  c #483728",
"!  c #523423",
"~  c #5B3323",
"^  c #573929",
"/  c #473A33",
"(  c #563C33",
")  c #633B25",
"_  c #693926",
"`  c #773B26",
"'  c #683C33",
"]  c #6F2D21",
"[  c #7A451E",
"{  c #6F401E",
"}  c #4A4327",
"|  c #57452A",
" . c #4B4338",
".. c #594838",
"X. c #5C5333",
"o. c #69452A",
"O. c #7D4A23",
"+. c #774729",
"@. c #674738",
"#. c #764B34",
"$. c #625435",
"%. c #695A38",
"&. c #795439",
"*. c #72512E",
"=. c #6C623B",
"-. c #72643D",
";. c #796A3C",
":. c #7D703F",
">. c #343545",
",. c #3C474C",
"<. c #584B44",
"1. c #59534A",
"2. c #575956",
"3. c #474546",
"4. c #674C45",
"5. c #794D41",
"6. c #675648",
"7. c #775848",
"8. c #685C53",
"9. c #785A56",
"0. c #776945",
"q. c #7D7246",
"w. c #6B6458",
"e. c #736353",
"r. c #786959",
"t. c #7D715D",
"y. c #786C63",
"u. c #7C7268",
"i. c #716C67",
"p. c #7C5F63",
"a. c #85371D",
"s. c #8C331C",
"d. c #863A23",
"f. c #9A3D25",
"g. c #A63D23",
"h. c #84471E",
"j. c #884929",
"k. c #944627",
"l. c #885328",
"z. c #94582C",
"x. c #844D33",
"c. c #875837",
"v. c #955B36",
"b. c #984E33",
"n. c #A84629",
"m. c #B64C2C",
"M. c #BC512D",
"N. c #AB5635",
"B. c #98632A",
"V. c #8C6137",
"C. c #936339",
"Z. c #9A6637",
"A. c #9F703E",
"S. c #A56B3B",
"D. c #AA7639",
"F. c #A87233",
"G. c #C55B36",
"H. c #CE623B",
"J. c #875A49",
"K. c #875B4D",
"L. c #876549",
"P. c #976847",
"I. c #96734E",
"U. c #886856",
"Y. c #956955",
"T. c #897659",
"R. c #987758",
"E. c #827447",
"W. c #A76B45",
"Q. c #A87548",
"!. c #B37B4C",
"~. c #A87957",
"^. c #B77C51",
"/. c #A46F57",
"(. c #8B6B67",
"). c #83796C",
"_. c #877767",
"`. c #967868",
"'. c #877D72",
"]. c #987976",
"[. c #916F68",
"{. c #A37863",
"}. c #D46A41",
"|. c #B5813B",
" X c #918355",
".X c #BC8846",
"XX c #A6835A",
"oX c #B78657",
"OX c #AF8242",
"+X c #99836B",
"@X c #8C8275",
"#X c #938474",
"$X c #98897A",
"%X c #988C74",
"&X c #A88765",
"*X c #B88864",
"=X c #A58974",
"-X c #A5937B",
";X c #BF9A76",
":X c #B88F6D",
">X c #C58B59",
",X c #C6945E",
"<X c #C98851",
"1X c #CC9D6A",
"2X c #C79667",
"3X c #C89B75",
"4X c #CD9568",
"5X c #D3A46E",
"6X c #CAA479",
"7X c #D6A877",
"8X c #DBB27D",
"9X c #CEA26E",
"0X c #E2AE7E",
"qX c #968D83",
"wX c #9B9387",
"eX c #9A9693",
"rX c #A88B87",
"tX c #A59A8C",
"yX c #A79887",
"uX c #A69D91",
"iX c #B49A85",
"pX c #B5A38B",
"aX c #ABA498",
"sX c #B7AA98",
"dX c #B4A995",
"fX c #B3ACA4",
"gX c #BAB5A8",
"hX c #BBB9B4",
"jX c #ACA7A3",
"kX c #D8B385",
"lX c #C6B59A",
"zX c #C9AC8C",
"xX c #E5B889",
"cX c #E6BA93",
"vX c #C6BAA9",
"bX c #C4BEB5",
"nX c #E7C596",
"mX c #EDC590",
"MX c #CBC3B4",
"NX c #CBC6BB",
"BX c #D6CBBA",
"VX c #D5CDB6",
"CX c #F2D3A7",
"ZX c #D5C09A",
"AX c #D6D1C5",
/* pixels */
"$ X @ 5 * * $ X $ X X X X X * $ & ; j X.b > i i > 7 > - 0 s 8 w D h w 3 3 3 w - - @ - - y y y a a a a a a a h j j L } } X.X.=.X.",
"X X X O * & $ X $ $ X X < X $ & * , m $.M 9 > i i > > - s s 0 d h w w w w w h # < - - - y y y a a a a a a a f j j } } } X.$.=.;.",
"* X X * * * % X * = O % % $ * * = p ..%.m > i i i i i i g 0 s s w 8 8 4 w h y - - @ - y y y a a a j a j j j j m } } } X.X.X.=.=.",
"* + O * + % @ % @ + % * * * & * , v X.=.M > i i i c i i b s r u 8 6 8 8 3 u 2 - @ @ - - y y a j a a a j f f j m m } } X.=.=.=.=.",
"O o o o X X X X X X X X $ $ $ $ $ & k b v > i i i i c i i y 8 7 8 8 w 8 w y 7 7 @ - - - y a a f a j a j a y 8 y j } } X.X.*.;.;.",
"@ O O @ @ O + @ # * + @ % $ % $ & & & , 9 > 9 i i i i i 0 y y 8 8 y 2 u w y y 7 - < - y y p f f f a j a m  XE.} y } X.X.X.=.;.:.",
"@ X X @ X O X % % O X X X $ $ $ $ & ; - , > 9 i i i i i i u p y y y u u u u y y - - y y a a p a f f f a q.nX6XXXy j X.X.=.=.;.:.",
"X o X X X X X & X X X X X X $ $ X < ; , > 7 y i i i i i y y p y u u u u f u u y - - y y a a p p a f f a &X9XoXV.y u X.X.=.;.:.:.",
"5 + + = + = = = = = + $ . $ $   X $ * > c y 9 - > i i 7 y i p p a u a a f a u y - - y y y p a a a f a u kX9XxXI.7 y X.=.;.q.q.:.",
"q 5 + + = t = t = # + X . $ $   o * ; 9 c > > 9 y 9 i 7 y p p p a u f a f a p y - y y - - 7 y p f f a 7 3X8X5XC.y y X.=.-.q.E.q.",
"q # + = 5 : t = = # + X   $ X   X ; > x v > y y y - y i p p a p p v f f f a u y 7 u -.m # @ @ p a v a y I.1XQ.&.2 h X.=.-.q.q.E.",
"0 5 q 5 q q q q 5 5 = X $ X X . X ; i v m - - - 7 7 - y y y p p p a a a f a a y - W 8XT.! u @ i f f g L *X7XXXV.h L %.=.;.q.:.l.",
": % = : : : = : ; = ; $ . . X   $ p ..6.m - - = = > 7 7 y y p u p a a a f a y y 7 &.2XmXoX! O 9 ` d.C G 6X8X,X.X>XoXc.O.;.0.;.k.",
"> * = ; ; : * = = = % $ $   X X X v X.%.m > # 2 W | f y y p p p p a p j W K G 8 %.2X2XP.c.K 5 G M.m.A 4 | V.XXI.&.D.n.n.z.c.l.g.",
": % % % % % % = % % $ $ $     X < v $.%.M > q ..nXcXI.s y p p p p v W o.l.{ Y G ZX7X!..Xl.^ 8 T G.m.P 3 C 4 h h 3 G s.M.M.n.n.g.",
"$       . . % : ; % $ $ $ $   $ * v X.=./ > l {.CXxX~.s p p p p v v F O.|.B.[ J zXzXS.v.) K e n.H.M.I 1 4 C 3 1 1 1 P m.M.M.m.g.",
"$           % % $ $ $ $ . . . $ ; c $.-./ : M zX*X>XJ.r 7 i p i a f K |.|.F.h.Y L.iXI.o.! b E G.H.H.a.3 4 4 4 3 1 t C f.m.m.m.g.",
"* . .       % = % $ $ $ $ $ $ $ ; x %.%.M ; b 3XcXcX~.n 9 i p p a j *..X|.F.l.l.! ..V.l.' @.` }.H.H.s.e 4 4 4 1 1 t 6 P g.m.g.f.",
"; % X . X X % = % * $ $ $ $ $ $ * b $.0.B : n {.xX5X&.q 9 i i i a m |..X|.B.[ h.[ +.C.l.P.2X/.}.G.M.g.P C 4 e 4 1 t q x #.k.f.d.",
"; + O X X $ % = $ $ $ . . $ $ $ * f $.-.M : r P.3X1X^ * i i i i p } .X|.F.B.h.h.l.B.z.j.+.XX4X4XG.G.n.n.I H 4 e 1 t 6 x 0.0.J.J.",
"= O + . . % % t % = % $ . $ $ % @ h X.-.M ; b *X!.+.# @ i i 7 i y Y |.F.B.B.h.Y [ B.B.{ H S.xX1XN.f.k.m.kXnX&.e 2 6 5 b 0.q.T. X",
"* O $ . $ % % = 5 t % % . X $ % 7 L $.=.Q , W 5X9Xc.2 # i i 7 y > | F.F.B.h.{ H { V.l.Y Y W.7X2X` a.f.n.kXCX8X-.1 0 q 0 $.0. X X",
"% O O . % % % O % = + $ X X $ % j | %.L...l Q 8XxX9X*.- i > 7 > - J O.{ Y J h 3 o.[ { [ U ^.oX^ 5 3 Z P =XzXmXmX..s 6 # 8 ^ %.| ",
"% O . . % O O . $ = = $ X X $ ; L | $.U...x b ;XCXmXoXj @ - - 7 - L Y G H C u j V.l.l.[ C.9XQ.G = O O + y Q XXzX6X#XW 2 = s g g ",
"O O . . % % % O + = % X . o $ q } | V B N ; n ;XCXmXcXXX* = - 7 - K [ G Z G L | C.l.l.l.8XkX&.+ O @ < @ % @ # # / 0. .X.L.%.d | ",
"% . . . $ % O O + $ $ X . X p Q *.| c V k $ l `.lXpX=X6.< * - 7 u { [ J G | } | O.O.Y O.5X7Xc.D + # 3 # * @ + # 5 s e.6X6X5.q ^ ",
"+ . o . $ % O % % % $ . * 9 U.U.U./ k N k k % N 2.B c > X X : 7 L h.l.Y J *.K O.v.S.C.J H o.V.Q 4 3 +.~ G D | +.o.0.&XkX&.0 = 8 ",
"= . o . X % O + O = z @._ ' [.K.x.Q k N >.k ; ; c k ; ; $ X : i L l.{ { { $.o.l.^.2X9Xv.G 4 5 % 3 3 ~ +.C.W.oXoX~.I.L.R.b + 5 q ",
"% . $ $ O % % q 5 q &.Q.v.&.Y.( ( q k k N N k ; $ ; & ;   . * i W ) Y { L *.A.4X7X5X<XQ.v.J 6 2 d K o.l.A.S.oXXXP.b + : * + : 5 ",
": % t r Z A r r - d J.&.o.4.Y.( ( : ; k N k ; ; $ $ $ . . & * > Q ) o.Y K ;.,X1X5X0X}.Q.x.O.o.*.C.Z.V.*.Z.I.XXE.~ q = = = > = q ",
"k z A A S S S Z + > M n @ 6.L.' z q $ k ; ; k >.>.k k k k 3.(.e.&.~ J K ~ P.7X>X7X5X>XS.v.Z.D.OX2X9XP.| &.Z.#.) G 5 = % = : : l ",
"= r A A S S S A 4 + n B X 9.J.' 0 : & & & k >.,.>.>.N c k r.nXxX6X&.K F ^ J.5X1X8X7X>XW.~.oX,XkXCXmX^.O.! l._ H r = + + = = q q ",
"l ; z ' E C e C e t : N = (.U.( l * $ $ $ k N >.N >.N N k n x.oX>X#.R K F c.4X4X3X2X~.7X1X1X7XmX,XoXZ.Y #._ o.7.(.4.q = = = = q ",
"l ; * q z G r 6 t % 9 n z Y.K.R ; * % ; $ & k N N N c l : q L.kX4XY.F F g #.,X>XW.!.1X8X7XoX*X<XY Y O.[ x.9.(.[.`.9.0 = % + % = ",
"l . * l J.c.J e = % z M ' K.( $ % 0 ^ ^ R 5 > / B 3.3.2.w.8.L.XX^./.R r d o.>XZ.7X2X4X8X3X^.Q.<XJ +.B.C.].].].].].9.r + % = 5 b ",
"N $ ; Q &.' &.E = . l l ( 7.z * % 0 ! F D 5 b 1.B 6.@Xu.'.$Xw.6.x.E G r h ^ oX3XkX3X,X0X4X1XW.Z.{ B.z.7.rX].(.[.[.8.q + % 7 W $.",
"%   X $ Q #.C.) . . q l 4.5.l % 5 5 = 5 = > Q w. .#Xy.T.r.w.8.t._.0.%.! s W P.,X<X}.2X7XoXW.z.o.l.l.F 9.].].rX[.(.( 6 6 5 W %.%.",
"X X X $ % : r 8 X % q l 5.Y.n * r n r G = M <.t.w.#X#X).6.<...t.pXsXdX%Xe.%.o.S.W.W.,X!.v.v.l.P.:XL.R 9.9.].].(.p.z r 6 5 ! %.-.",
"@ * X O $ $ $ . . % q c ( K./ = 0 7.( d M 6.<.<.w.@X$Xu._.e. ...$XBXVXMXsXdX#XU.v.x.Z.l.j.j..X5X8XI.`.rX].rX].(.R 6 r 6 8 | -.XX",
"& + X O $ $ . . % = l M ' K.( % b [.( r <.1.1.i.wXjXqXuXfXwXy. .6.sXMXlXgXbXgXeXL.b.d.Y c.c.2X1X5XL.].iXrXrX].p.q q 4 5 r *.I.XX",
"$ X X = * $ X . $ $ & x J.[.4.q ' `.@.^ '.u.eXuXvXaXuXvXvXaXwX#X .X.@XuXjXbXgXdX@X..V.A.Q.oX4X5XoX@.[.].rXrXp.n z 4 6 t r &.~.&X",
"& O * 5 * X $ $ . $ ; c 4.{.9.q @.K.( D ].u.eXjXvXaXfXbXbXaXwX].r.X. .w.aXbXdXaXuXt.l.A.D.!.,X5XP.E 9.(.rX].<.q n t 6 t r 7.&X&X",
"& & X X = $ . $ X X & k ; 4.K.R @.5.@.4.w.2.eXgXgXqXsXsXAXlXrXwX@X%XB 2.fXVX-XMXsXuX$.c.z.Z.oX,X#.s z ( 8.3.l : R q r t G L.+X&X",
"X & o X * $   $ . X $ , ; 9.[.#.^ #.4.[.i.qXsXhXaX$XaXaXBXlXtXuXu.dX1. .NXVXtXAXbXNX .+.+.j.Q.oXx.u q q % z R > / z 6 t H L.R.`.",
"X & & . . . X $ . . & > : 9.=X5.( K.4.@XqXtXMXAXjXeXwXuXvXMXrXtXt.).+XX.wXfX%XNXMXNX8.f +.o.Q.C.c.0 = 9 s 0 = * n z 6 t ^ L.Y.R.",
"& X & < $ X   $ X X * > ; K.{.( 5.K.6.u.qX@XjXNXjXtXtXrXlXvX$XqXu.1.).6.%XsX).gXMXMXr.} F #.W.x.&.0 = > 5 b d = : l q 5 ' J.K.U.",
"& X & &   X X X X * 9 c q 4.5.E /.K.y.r.qX).qXAXhXaXyX#XlXvX-X+XaXw.1.@X%XsXr.vXsXgXw.1.u #.x.#.! 9 > 9 q q s D 0 q q 6 ' #.@.&.",
"; &   X   . . X $ = b n > @.' ` Y.Y.`.r.tXu.u.jXhXfX$X=XlXvXlX_.gXwX .8.pXtX1.dXgXhXw.w.m ! ) _ r = > 9 l v v n l l q 8 ) @.@.@.",
"< <     o X X X X > @...c  .Y.{.Y.Y.U.y.#X'.w.y.hXhXqX_.dXsXdX_.wXgXu.M 6.2.B '.MXgXr.r. .g R ~ q = = 0 s s g W m ( / z R ^ ( ~ ",
"< .     o s - o X < Q ..i / [.=X5.Y._._.sXeX).t.qXeX].r.sXdXuX`.t.%X%X2.2.2.B '.VXhXr.T.| ..R F = = = = 7 2 = * 5 Q ' ( r r d R ",
"& <   X X u g 7 X < m ../ B U.{.J.K.T.e.u.'.@X8.8.qX'.7.zXyXyXpX0.U.tX@X2.2.M w.VXMXT.T.%.T.Q h O + O O O o o X 8 ! @.4.v 8 F _ ",
", < X X X 8 d g @ @ R.oXI.&.J.K.5.7.(.8.i.e.t.r.u.tX$X9.sXyX-XsX`.e.#X%X,.,.B 1.BXgXr.`.r.-X/ - + O O + O O O O d ! ( <.n 4.*.G ",
", < X X X & 2 7 2 - @.~.oX~.x.' E 5.%X$X8.4.U.%XyXwXdX+X-XpX%XyXuX7.e.wX).B <.1.AXaXt.%X-XiXQ 8 1 4 G ! ) #.L.I.~.R.R 8 R @._ K ",
", < X . X X @ @ @ @ 8 ! c.c.#.( e 7.%X)./ 8._.-X(.$XdXyX`.sXyX&XyX_.8.`.yXw.w.w.AXtX%XeXqX)./ d H { c.c.P.Y.~.{.{.&XU.%.@.#.j.l.",
", & < < < < * @ # # + = v s q M Q e.8.W g u / e.4.T.yXsXR.pX'.r.e.e._.7.u.i.X.2.fX-XlXZXaX).e.^ Y C.oX*X2XzX3X3X3X3X:X~.Q.v.z.c.",
"; < X < X & = X # # t + O + t R 4.e.Q F F s l 6.e.4.`.pX`.yX_...} .._.T.e.1.M i.-X-XlXgXwXyXtXe.K +.l.v.P.>XcXCXZXkX7X*XoXS.B.z.",
"; X X X X O @ O O # 3 2 2 2 8 d ../ r R F s > = / 6...e.u.'.).$Xu.wX].T.`._.y.r.u.-XtXyXBXaX..D E x.W.W././.{.>X>X:X2X3X3X3XXXA.",
"* X X X o X @ X X + 2 w u w s s 0 n 0 8 0 9 ; * 0 7.y.y.8.y.]._.<._.tXiX+Xr.[.+XY.L.=X:X;X~.P.J.P.^.^.!.W.W.P.#._ ` k.b.x.l.z.z.",
"= < X X X X @ X   @ # 2 3 h h d 9 M M * * * % @ = ' Y./.Y.Y.Y.R.Y.{./.W.W.W.N.N.Z.Z.b.z.z.j.k.d.+.j.a.T s.a.] U E H ] _ T Y K | ",
"7 # * X o @ O X o 2 # @ 2 h h G 7 * , $ X * $ O O s #.` ` #.#.O.) +.d.d.d.j.` _ J C P P P P U U P I s.I T I U ` P ] _ ~ a.F O O ",
"5 # # # 2 2 @ < o # 3 O @ 2 w h h @ < < < < # 2 6 8 w w 3 6 w 4 6 r e e H Z H G 4 3 C Z S S P S I P a.P P T a.U ~ ` ` _ O.+.3 O ",
"5 # # 5 2 @ o o o # 2 3 O @ 3 h h @ X < o o < # 2 8 3 3 # # 5 s e w r 6 C C Z Z C G Z S S P P I I I a.a.k.k.N.v.x.` J.b.c.J.x.#.",
"3 # O O O o < o O O + O O O O # 8 # X < < X < # 8 8 w h s g R ~ ` ` ` Y P ` ` Y { T T d.T h.z.k.h.k.k.h.d.` ` x.k.b.v.v.v.P.P.W.",
"2 # # @ < o o o < < o O o o < # 2 # O X o < O - w D K K ! g F H ~ T I A H I H J T J U ` d.F.D.v.f.T T h.` _ P ] Z ] ' j.d.J.Y.P."
};
