/* XPM */
static char *result[] = {
/* columns rows colors chars-per-pixel */
"64 64 235 2 ",
"   c #161616",
".  c #161917",
"X  c #1A1B16",
"o  c #171719",
"O  c #161A1B",
"+  c #1B1C1C",
"@  c #191719",
"#  c #221E17",
"$  c #221E1C",
"%  c #2A1E1D",
"&  c #1D211E",
"*  c #23221D",
"=  c #2B231D",
"-  c #25291D",
";  c #2D2A1E",
":  c #262317",
">  c #33251D",
",  c #332A1D",
"<  c #3A2B1D",
"1  c #3C271C",
"2  c #37311F",
"3  c #2B301F",
"4  c #1C1E21",
"5  c #171F20",
"6  c #211E22",
"7  c #2C1F21",
"8  c #1E2222",
"9  c #1F2627",
"0  c #232323",
"q  c #2B2522",
"w  c #252924",
"e  c #2C2A25",
"r  c #232629",
"t  c #2C2629",
"y  c #252A2A",
"u  c #2C2C2A",
"i  c #322622",
"p  c #3B2623",
"a  c #332B24",
"s  c #3B2C24",
"d  c #332D2A",
"f  c #3A2D2A",
"g  c #312729",
"h  c #2D3125",
"j  c #2D322C",
"k  c #353224",
"l  c #3C3325",
"z  c #3D3926",
"x  c #34322B",
"c  c #3B342B",
"v  c #363A2D",
"b  c #3D3A2C",
"n  c #2F3531",
"m  c #343332",
"M  c #3B3631",
"N  c #363B35",
"B  c #3D3A33",
"V  c #3C3C38",
"C  c #332F31",
"Z  c #46291E",
"A  c #542C1D",
"S  c #42331E",
"D  c #4C361E",
"F  c #5B321E",
"G  c #642D1F",
"H  c #62321E",
"J  c #76351E",
"K  c #432C24",
"L  c #4B2E23",
"P  c #432E2A",
"I  c #492B26",
"U  c #532C22",
"Y  c #5B2D23",
"T  c #582A25",
"R  c #433324",
"E  c #4C3424",
"W  c #433B25",
"Q  c #4C3B25",
"!  c #43342A",
"~  c #4A342A",
"^  c #443C2C",
"/  c #4A3C2B",
"(  c #533424",
")  c #583423",
"_  c #543B24",
"`  c #5B3E26",
"'  c #543429",
"]  c #533C2B",
"[  c #5C3E2A",
"{  c #443C32",
"}  c #4A3E33",
"|  c #413F39",
" . c #523B33",
".. c #632C23",
"X. c #6C2E21",
"o. c #682D2A",
"O. c #643D24",
"+. c #683624",
"@. c #733422",
"#. c #743B22",
"$. c #7A3B24",
"%. c #3A4233",
"&. c #3F4025",
"*. c #46422D",
"=. c #4A442D",
"-. c #4D492D",
";. c #544226",
":. c #53442D",
">. c #5C432C",
",. c #534A2E",
"<. c #5B4A2C",
"1. c #5E4425",
"2. c #464233",
"3. c #4C4432",
"4. c #4B4933",
"5. c #494439",
"6. c #484737",
"7. c #534432",
"8. c #5B4434",
"9. c #534B32",
"0. c #5A4B33",
"q. c #544C3B",
"w. c #5B4E39",
"e. c #5B5235",
"r. c #5C523B",
"t. c #585335",
"y. c #62442C",
"u. c #654B2C",
"i. c #6A4C2C",
"p. c #684527",
"a. c #724D2D",
"s. c #7E4124",
"d. c #6C522E",
"f. c #62512D",
"g. c #73532D",
"h. c #74592E",
"j. c #7C5B2D",
"k. c #7A562B",
"l. c #6B4631",
"z. c #654A34",
"x. c #6B4C33",
"c. c #634834",
"v. c #724E33",
"b. c #655333",
"n. c #6B5234",
"m. c #6B5834",
"M. c #6C5D3D",
"N. c #655739",
"B. c #725534",
"V. c #7A5534",
"C. c #765B32",
"Z. c #7C5B34",
"A. c #765A3A",
"S. c #7C5B3A",
"D. c #7A5438",
"F. c #6E663B",
"G. c #7C613C",
"H. c #786537",
"J. c #72682F",
"K. c #5A5745",
"L. c #544F49",
"P. c #635C44",
"I. c #725845",
"U. c #6C6445",
"Y. c #786749",
"T. c #7A7050",
"R. c #863B1C",
"E. c #833D24",
"W. c #873A23",
"Q. c #8B431E",
"!. c #8B4624",
"~. c #8E4C25",
"^. c #884627",
"/. c #934524",
"(. c #984925",
"). c #835A2E",
"_. c #825D35",
"`. c #815D3A",
"'. c #8A5E37",
"]. c #836334",
"[. c #8D6536",
"{. c #83633A",
"}. c #8A653B",
"|. c #856A3B",
" X c #8C6B3B",
".X c #936D3B",
"XX c #916936",
"oX c #867437",
"OX c #93723E",
"+X c #987A3B",
"@X c #82612F",
"#X c #A57D3B",
"$X c #A6773E",
"%X c #A55429",
"&X c #866A43",
"*X c #936D42",
"=X c #976D45",
"-X c #8B7242",
";X c #89774A",
":X c #957343",
">X c #9C7443",
",X c #9B7A44",
"<X c #957749",
"1X c #907C55",
"2X c #A37C44",
"3X c #A47E4D",
"4X c #A87946",
"5X c #A8803C",
"6X c #9D834B",
"7X c #958859",
"8X c #8E8158",
"9X c #A2844B",
"0X c #AA844C",
"qX c #AB8748",
"wX c #B2854A",
"eX c #B48948",
"rX c #B8924D",
"tX c #AA8A51",
"yX c #B58A52",
"uX c #A1945E",
"iX c #B99456",
"pX c #9E8E63",
"aX c #A69765",
"sX c #B2A563",
"dX c #C7994D",
"fX c #C49A57",
"gX c #CCA356",
"hX c #D6A85B",
"jX c #DEB25D",
"kX c #E2B75C",
"lX c #C89E62",
"zX c #CDA161",
"xX c #D4A661",
"cX c #D9B262",
"vX c #E1B665",
/* pixels */
"0 8 4.sXsX=.0 { a ^ ^ pXaXuX7X7XP.b 6.+ u x 0 + $ 6 + + { b.l a i b q + + + + + & 0 x b V x w 6 8 * { } W *.*.x u 8 8 9 8 9 j h ",
"0 8 4.;X;XR z ^ e c d 1XU.uXaX7XP.j u - w w 0 8 + 4 $ + : a a d a k , * 6 + + & & d *.z b u 0 0 4 6 e ; z =.x y 9 & & & & h B h ",
"8 h F.t.*.e.,.l d d e Y.} 8XpX7XU.e y + w w * * $ + 0 + a ^ ! R ; ; W l e = 0 + $ b z ; q 0 0 0 8 + & & u v w 9 8 8 & 8 & x 2.u ",
"8 *.U.3 0 4.9.^ x 0 0 / ^ T.1X7XT.^ q $ e 0 + 6 4 + + 0 d ;.<.:.; * = b ^ l t 4 0 f - & 0 & 0 + + 8 + & 0 w & 8 0 & & 8 & a b a ",
"w b =.& 8 4.=.-.b e q ^ } K.P.P.q.d * 0 e e $ + 0 + 0 w <.9X6Xh.Q q q a l l q $ q d * * 0 q 0 + 0 8 + 8 8 & 8 8 9 & + & 8 h ^ ^ ",
"8 v N 8 * q.e.t.%.h 0 l | | L.5.u r + & + + 4 4 8 $ 0 e <XvXhX4Xd.s q $ a s * + q * * 0 0 w 4 0 0 8 & & 8 + & 9 8 & 8 8 w z z k ",
"9 x w 8 & b q.=.2.h w t t e f M x w & & 0 8 $ 0 6 0 q i iXcXgXeX.Xi.p * a a * + * q w q 0 & 0 8 0 8 8 & & + & O & 8 8 8 x b z z ",
"9 e - 0 8 w j w u w w 0 * 0 e q w & O 8 8 w + 6 + + 8 i :XfX4X4X.X{.R - q e q + * q ; k x * q & 8 8 8 & O & & 8 & 8 w e c v x x ",
"8 e w 9 & 8 y w y w u w - x M b w 4 4 + 8 0 4 0 + * * a u.>X>X4XdX=X_ q q = q 6 * a a = s q 0 0 + 0 8 + O & & & & 0 w x c v x c ",
"& * & & & & & v v h x v q M } b r 8 & 0 0 0 $ 6 0 6 $ d P =XgX4XdX).>.i q c f i i 0 - u b w 0 0 4 & 0 0 w 0 8 8 8 8 * e c ^ x ^ ",
"8 8 8 8 & & + 0 - * h j y h 5.| u t u d M w 4 r 6 0 * q K ~ 4X[.[._.p.s $ q q * 0 e e a a l e $ 0 0 0 w w w * & 0 u w a ! ^ x b ",
"8 8 & 8 & & 8 w h w j j y u 5.6.m V C C d q 0 r 6 4 + = K > >.,X,Xg.y.~ = q = $ 0 d a l b i q 0 + 6 * 0 a x x & h &.l / ^ %.h x ",
"8 & 8 & + & y j w r 9 r y C V | M m t g 6 6 C t r 4 6 i i E =XwX.XB.u.' i t * 8 * + d ; , ; - + 4 & & - ^ ,.7.c x { ^ r.3.x h n ",
"8 & & 8 5 8 0 0 8 r r y r y g x N C q 6 6 4 r r 6 y w ! ! x.fXxXiXOX].n.s e 0 $ * X : a l k w $ & * - k z *.2.x a 2.^ 4.4.b %.N ",
"9 8 & 8 5 8 r 4 r 9 y r 9 r y y u j w 6 r 0 r r r 4 t ^ ! >.iXcXcXfXyX=X] t 0 + X : l ^ k 0 0 * - l b k z = - * e 0 b =.*.N n n ",
"9 8 8 & 8 9 r 9 r y 9 r 4 r r 4 u u + 6 0 0 t 6 4 6 0 B c ~ Y.lXzXiXyX=X^ 0 4 + - a ^ c = x l l / / 0 x e & & & w y h h u j 9 n ",
"9 8 & & 8 8 8 8 r r 9 r 9 9 9 4 r 9 + + 6 0 r 5 4 9 4 t t u L.P.r.M.n.! t 4 4 8 k d ; =.l a l 2 / ; w e u w h w w w w 0 w h h j ",
"9 0 8 & 8 w 9 9 9 9 9 4 4 4 4 4 9 4 6 + $ 6 5 4 4 9 4 6 4 m K.L.{ {  .= 4 4 4 4 0 a ^ l W / R l s e k z k v k w 6 w w * e t y y ",
"9 & 8 8 r u 0 9 8 0 4 8 4 4 4 4 4 O + + 4 4 0 4 5 4 4 4 C m 0 + 6 0 6 @ @ 4 5 4 r N ; 0 k i f i x e 2 l l k q 0 6 0 w d f b u w ",
"0 r 8 & w m w 0 4 9 9 r 9 4 5 4 4 5 4 + 4 9 r 9 4 4 4 4 o m N 4 6 6 6 + + @ 5 + r 6 $ $ k ^ <  .S q l , = = = + 8 0 u c i t w k ",
"8 w y 8 8 y w 8 8 0 9 8 4 5 + 5 5 4 8 0 r 9 4 4 4 4 4 6 y u e 6 0 6 @ + @ + @ O O + $ a ^ / K l = , ` ` E ~ s q q w y u d d u 4.",
"8 w w 0 0 w 0 0 8 8 8 5 4 8 8 8 9 9 4 4 5 8 8 r 9 9 6 4 + 0 0 r 8 + + @ $ + 8 & O @ & a l s d d a E 4X.X` I p q q e { { 2.{ ! B ",
"8 h f 0 r r r 9 8 8 8 8 8 0 0 w r 4 r r m V y u 6 4 4 4 0 0 * r 0 * + + 4 4 8 & O & + 0 k q w a s p.hXdXp.I p 7 $ e x h u w u y ",
"9 h x b x 0 0 0 y 9 + & e m x 0 r 4 4 8 0 6 r y 6 4 6 4 0 $ q 6 + + + + 5 5 5 . O & * l d = q i s u.4X$X).E a q 6 q 0 w r r w j ",
"0 w u d c d 0 0 y 9 8 0 t q & 8 4 4 6 r 0 0 r 0 $ 0 6 4 0 6 6 + + + @ + 5 O O @ * F.b.B./ > q q a n.2X.Xg._ s d 0 0 w r r w w u ",
"w u 0 0 + & 0 6 0 9 u i P d 0 5 4 6 6 6 0 6 w t 0 4 + 6 $ O + + + + + 4 5 O + w 6.&X) I Q >.K q e n.$XhXwXp.l e = 0 0 0 0 u u j ",
"j j 9 8 8 8 8 6 r d / :.~ ! a t 6 r 0 q t r w f 7.8.{ q q = q @ $ @ @ & 5 O }  .8._ K ~ R = i * d R Z..X).p.~ s i 0 - e x d u u ",
"h y y h t t w e 7.y.{.=X&Xx.E f 0 6 0 t u u f 8.D.I.x.] x.B.7.i q $ * + 4 + * ^ L s i f q $ q q q i `.V.j.a._ R a q e e d e w u ",
"9 y j y u h e } <Xu.:XzXgX0Xv.I 0 6 d y t g f z.n.{.`.`.D.l.[ ' E _ ;.O 4 4 9 m - + X 8 4 6 q q 6 q a f u.[.]._ f q e m x e x m ",
"0 9 8 & 8 0 0 F.9Xu.x.:XlX9XB.~ * 0 y g t t  .S._.Y.Z.D.D.{.*X=X].A.R + 4 4 y y q + $ 0 + + q q + * 8 - :.-X{.u.( a m N j y x n ",
"w w 9 8 & * 8 Y.0Xn.0. XzX2X3XD.q w u y 0 t P v.'.S.&X=X4X4X3X>Xd.l $ . O 4 r 0 $ 4 0 0 & 0 = $ + * q ^ 9.m.N.:.T l.7.M x x x j ",
"w 0 8 + 0 8 - <X<XS.n.*XfXzXyXD.q 4 6 0 $ w f p [ D.*X*X<X*Xv.P a + . @ + O 5 0 + + $ 0 & * e $ 8 q e.k ^ ,.W { l s L ! d e w y ",
"y w 8 9 0 0 ^ ;Xd.&X_.}.*X'.l.R # * e @ 4 7 t P 8.I.c.8.:.R = X     o o   O 4 $ + + 6 $ * 0 t 6 6 ^ l H.J.J.J.t.2 3 0 q L ! q y ",
"h h r w y u Y.C.yXwX X}.O.L E K q i u + @ 4 4 4 9 t y q $ $ @       O O 5 5 0 i l R Q l s / l * c a F.+X6XJ.J.f.&.h * q K L s q ",
"j j w r j x &X9XgXlX.X*Xv.~ s P ] u.:.> @ O 4 4 5 8 4 4 O + + . @ + + 5 4 4 t f } ` Z.}.3X XC.Q i - H..XJ.J.J.e.-.h - s L K s > ",
"e * $ 0 C c -X4XOXtX*X{.D.~ q a S.,X`.] @ + 4 r 4 5 4 O @ @ + @ X O + 5 8 4 q 6 0 e C.g.>Xi.O.n.;.k H.5X6X6XH.m.*.3 - a ..A Z < ",
"u k w a b.&X<XOXC.:XrXOX1.< = <.3X4XD.~ + O 4 6 O O 4 O @ @ @ + O 4 + 5 4 4 t 4 6 q :.] R > s z.C.<.OXJ.<.W 2 k - h - e ....Y L ",
"u k l G.iXwX*X_.h.}.eXyX X<X9XyX}.l.' g + @ 6 4 @ o O @   @ @ @ 4 5 O + 9 9 4 + 4 + $ $ = = = K A.J.m.a q $ * X & & h = ) $.#.o.",
"x - e.9X2X.X{.}._.y.>. X2X>X]._ i 6 + q + @ + +     @ @     @   O O   O 5 r + + 0 & # a K K K K ;.b.; e - , i 0 * O e - o.!./.~.",
"l z H. XG.C.G.k.u.S s , E E i $ $ + + O + @ + @ @     @ @     @ @ @ o 4 r t d % 0 0 s k.i.i.) s i E s + Q g.E e & & i e P @.!./.",
"W H.].C.x.A.A.d.>./ a 0 q i q $ 4 @ @ + +   +         o @ @ @   @ @ + + r g 8.L w w ] qX#X[.O.L i s a , m.).>.s h & w k s E.(.%X",
"&X|.H.j.] _ 8.Q f f i q > > q + + @ + + + + +       @ 6 4 @ @ @ O   + + 6 } *Xy.u g b. XXXj.) s i $ * H.g.@Xx.R c e - e > ..!.%X",
"tXH. X].] P f a q i e i p p q & + O @ + + +         4 4 4 o o o   . + $ 6 / `.L e :.qX X[.i.I 7 q $ , C.h.j.1.a a a - - % @.(./.",
"<X6X9X-Xc.P f = % d i K I p $ + + + + @ +           4 4 4 o o o @ @ + 8 0 l V.L q ;.wX[.i.E 1 $ * + k d.|.@X_ , , k , , > J /./.",
"m.tXiX6Xx.~ q * s R ~ L ! $ & + O 4 $ 4 X   @   @ O 0 6 6 O   O @ @ + * 8 & n.` f ] ` F ` S > $ +   * ] ].a._ a l l z - > F #.^.",
":.-XtX<Xy.! d 0 $ :._ L K O + 8 4 4 O @ @ @   .   @ 4 4 w +     . . @ @ + + s ` E i.6Xk.p.S % * # #   s x.>.< = = q * & * Z F ^.",
"d :.:X:X>.s d + = C.p.I # O + 8 4 4 5 O @ +       @ 4 r u @ .             @ * p K E a.[.i.C.>.p 7 % * i ] L K q & & X + 0 p ) #.",
"i l n.`./ i 6 $ ^ }.k.B.) : 4 4 4 5 + +     + @ o @ $ u @ @ @     @ @ + * + + & q ; 1 XXrXdXj.< i = - e f K p - & & * * > ( ) o.",
"l , i R ^ 9.} 4.>.;.] O.x.y.P 0 4 4 4 4 0 6 o @ + 0 q 0 t 0 + O   + + + t 0 e e x , 3 9XkXrXA.s p * $ * i a i K 6 = 0 = Y !.^.J ",
"- 0 * - x t.N.4./ 8./ ] ~ i 7 6 9 9 O 4 0 e e q + & e y + + + + + + O + y m } c d z W <XhXhX}.K p q * i i % = U i $ * : Y !.~.s.",
"3 k 4.4.b q.=./ r.0.! 8.l = + 0 r 8 @ + 0 $ + + + 0 0 * 4 + 0 g   @ @ 0 C j { / / ,.R A.eXiX_.K q $ = p a q % L q $ 0 & < E.~.^.",
"c 9.*.k P.U.K.q.N.} } } } q 6 r y 9 + 0 t r $ + + 0 @ + q 0 u $ @ + + 8 t m { OXcXyXD S d.qXXXa.> q ; q i i > I > $ * . p #.^.~.",
"q.e.W h 4.q.v 2.q.6.{ c = 0 q r 0 r 4 $ $ $ $ 6 * + $ X * w 0 + $ & & + k l W rXjXkX5Xh.].rXgX+Xp i i = q # + = q # * & p X.^.E.",
"%.=.^ d b 6.4.} { 2.^ x * * 0 N y r d d q $ $ 6 + q & . + + $ + $ * + X z.*XwX9XrXhXgX+XfXrXgX+XK > = * q a = $ 6 q * & p J $.+.",
"x 6.2.6.^ 2.l m } -.:.^ , l a u t w u = t * u q q * X . X # e a l * + : z.*X=X` g.eXgX#XgXhXdXeX( > : - c R > q q q q + K @.$.@.",
"^ l =.4.4.3.c x { N.0.R 9.4.e e w = w w $ $ u d y q & X # i > , , :   X E i.[ S S v.+XXXwX5X#XqX( i 6 q q - i * * * $ : I @.#.$.",
"=.=.-.:.t.0.m a { 7.:.l ! ! * 0 t 0 + & * * q q q * : : q a l < W , # $ ] }.OX.XB.( 1.k.rX).[.wXE = $ $ & & X X @ & * = p X.X.X.",
"t.,.-.t.^ P.l ^ 2.*.^ k c e e u | V x > s s f c ! ^ l s / , i l W < : # > y.l.'.4Xx.> D O.( a.2XS * +   . . & & & * : % > ..G o.",
"-.,.e.=.w.N.0.:.c =.^ f d u w x M } b l ! ! ! / / R l l s , , i , > : * q f  .) a.O.= : = ; d.#X< 0 X . X & : X : p Z L L A Y Y ",
"=.=.t.9.N.r.d l l l a a 6 0 w e d f d s s s ! ! R s , a / l < l = : * i i f f q s i : = a Q OX[.> * # # = : & > T Y G @.J +.F G ",
"=.*.*.,.0.<.b q a l * e $ 8 0 * : a d R l l 4.a q i q i > l , i # % = = 6 = q i , q ; l K _.$X}.> ; a Y G ..A @.J J J W.R.R.Q.W.",
"&.=.z t.e.7.a x * + 0 8 6 + 8 + @ = q R 9.9.:.:.8.0.7.7.:.<.;.:.Q Q :.Q _ } a i i s K S < _ _.v.< E 1.O.F J #.H A G @.X.W.E.J J ",
"k *.*.,.9.} l w & & + & + + 8 & + 0 & l / -.E / l q q - i a i p ; > s I } R ! q = p 1.u.p.;.` D ! <.f.:.;.;.u.<.` E T Z U A Z F ",
"=.W &.=.2.d =.l - + & 8 + * & 8 & 8 : , *.b.:.f q @ O @ . + + 6 % i P p K I  .c = : < < f.f.Q W R R l , ; 2 W 2 = $ = 7 : > 1 - "
};
