/* XPM */
static char *result[] = {
/* columns rows colors chars-per-pixel */
"64 64 236 2 ",
"   c #0D0D0B",
".  c #070806",
"X  c #110F0D",
"o  c #12110F",
"O  c #151312",
"+  c #1B1514",
"@  c #1D1816",
"#  c #1A1719",
"$  c #1D1A1C",
"%  c #161618",
"&  c #0F0F10",
"*  c #211716",
"=  c #211917",
"-  c #231C1C",
";  c #2B1C1C",
":  c #331C1C",
">  c #3A1D1C",
",  c #25211F",
"<  c #2B211E",
"1  c #35221E",
"2  c #3D231F",
"3  c #1E1D21",
"4  c #221E21",
"5  c #252223",
"6  c #2B2524",
"7  c #2E2926",
"8  c #262528",
"9  c #2A2629",
"0  c #2D2A2B",
"q  c #252A2D",
"w  c #322624",
"e  c #3B2321",
"r  c #332926",
"t  c #3B2B25",
"y  c #342C2A",
"u  c #3A2E2A",
"i  c #37312D",
"p  c #3C312D",
"a  c #3F3026",
"s  c #332F31",
"d  c #353232",
"f  c #3B3432",
"g  c #3C3A38",
"h  c #3B3938",
"j  c #2B3033",
"k  c #47211D",
"l  c #5A241C",
"z  c #53241D",
"x  c #442D26",
"c  c #492B26",
"v  c #572922",
"b  c #443026",
"n  c #4C3426",
"m  c #43332B",
"M  c #4B352B",
"N  c #4C392E",
"B  c #44392F",
"V  c #533B2C",
"C  c #5B3D2B",
"Z  c #543529",
"A  c #433631",
"S  c #453B34",
"D  c #4B3C33",
"F  c #433D3A",
"G  c #4A3A34",
"H  c #533D33",
"J  c #593D33",
"K  c #583F3A",
"L  c #63392A",
"P  c #613D33",
"I  c #733428",
"U  c #461F1B",
"Y  c #5C412D",
"T  c #4D4136",
"R  c #4C423A",
"E  c #47433D",
"W  c #534235",
"Q  c #5B4334",
"!  c #53443A",
"~  c #5B4539",
"^  c #554A3E",
"/  c #5C4B3C",
"(  c #5A4836",
")  c #6A442C",
"_  c #66452C",
"`  c #744B2B",
"'  c #7B4E2B",
"]  c #71472B",
"[  c #7D512C",
"{  c #77502E",
"}  c #634533",
"|  c #654834",
" . c #6B4B34",
".. c #644339",
"X. c #6B443B",
"o. c #644B3C",
"O. c #6C4D3B",
"+. c #6A4531",
"@. c #724D33",
"#. c #724B3D",
"$. c #774836",
"%. c #6A513C",
"&. c #7C5334",
"*. c #73533C",
"=. c #7A563B",
"-. c #2D3D43",
";. c #323D41",
":. c #2C4249",
">. c #36454A",
",. c #36525A",
"<. c #344A51",
"1. c #345C66",
"2. c #366974",
"3. c #4D4944",
"4. c #4B4744",
"5. c #544C43",
"6. c #5B4D42",
"7. c #524B46",
"8. c #54514C",
"9. c #5B544C",
"0. c #5B5345",
"q. c #5C5A53",
"w. c #475656",
"e. c #664C42",
"r. c #7A4F44",
"t. c #734B41",
"y. c #645343",
"u. c #6B5443",
"i. c #64544A",
"p. c #6C5B4C",
"a. c #68584B",
"s. c #745544",
"d. c #7D5245",
"f. c #7C5C44",
"g. c #745C4C",
"h. c #7B5D4A",
"j. c #795745",
"k. c #665D54",
"l. c #755D52",
"z. c #7C634C",
"x. c #75614E",
"c. c #6A6558",
"v. c #746253",
"b. c #7A6551",
"n. c #77695B",
"m. c #6C604F",
"M. c #44676C",
"N. c #456C71",
"B. c #6B6E62",
"V. c #736E63",
"C. c #737164",
"Z. c #7C7A6C",
"A. c #7B7566",
"S. c #757A6E",
"D. c #50615D",
"F. c #853629",
"G. c #814F28",
"H. c #83532C",
"J. c #89562D",
"K. c #8B592E",
"L. c #845531",
"P. c #8C5B34",
"I. c #865839",
"U. c #905E32",
"Y. c #96633E",
"T. c #8B603D",
"R. c #835C41",
"E. c #83554A",
"W. c #855B4C",
"Q. c #875748",
"!. c #955B43",
"~. c #836145",
"^. c #8C6443",
"/. c #83654C",
"(. c #8C694C",
"). c #8B654B",
"_. c #946C4C",
"`. c #976846",
"'. c #9D724C",
"]. c #96714C",
"[. c #866955",
"{. c #936A54",
"}. c #89725B",
"|. c #987458",
" X c #A36A47",
".X c #A8754C",
"XX c #A67A55",
"oX c #B47A51",
"OX c #857564",
"+X c #8A7968",
"@X c #987B65",
"#X c #837F71",
"$X c #A57F66",
"%X c #7B8476",
"&X c #B88458",
"*X c #9C8167",
"=X c #898779",
"-X c #948D7C",
";X c #958676",
":X c #9B917D",
">X c #A88667",
",X c #B88E6C",
"<X c #B5936C",
"1X c #A88D73",
"2X c #A3937D",
"3X c #B89777",
"4X c #B18E71",
"5X c #C79B76",
"6X c #C79470",
"7X c #CFA37D",
"8X c #949183",
"9X c #9B9483",
"0X c #9A9889",
"qX c #8B9083",
"wX c #A59985",
"eX c #AC9C85",
"rX c #A49D8B",
"tX c #AC9E8B",
"yX c #A59682",
"uX c #B29C86",
"iX c #A29F90",
"pX c #A7A18F",
"aX c #ACA28D",
"sX c #B2A38D",
"dX c #BBA388",
"fX c #A4A292",
"gX c #ABA593",
"hX c #AEA896",
"jX c #B6A894",
"kX c #C49F83",
"lX c #C7AA89",
"zX c #D9BA94",
"xX c #D1B090",
"cX c #DEC09B",
"vX c #E4C49C",
"bX c #D3C1AA",
/* pixels */
"H M B D N H N T T T J H H M A 6 , - $ $ $ $ 3 $ 3 3 3 3 3 3 3 3 3 3 4 3 4 4 4 4 5 8 6 8 6 9 9 9 9 4 0 4 5 6 5 5 5 5 5 5 5 6 4 5 ",
"G B W N N T R T T V H N H N m r 5 5 - 3 3 $ $ 3 3 3 3 3 3 3 3 3 3 3 4 , q 8 q 7 9 0 0 d 0 y 0 j 0 9 9 9 6 8 5 5 5 5 5 5 4 5 6 5 ",
"B S G M T T T T T H C H N N m w 6 , - 4 $ $ 3 $ 3 3 3 3 3 5 $ 5 , 6 i g R ^ 5.3.9.q.q.q.8.4.f d d j s 9 0 9 8 5 5 5 5 5 5 5 4 5 ",
"S G G W T T W W W W H M V N m r 6 5 3 $ $ 3 3 3 3 3 3 3 5 4 5 5 h q.m.a.m.c.c.B.C.Z.Z.B.C.C.#X=XZ.q.4.4.f y 0 9 6 5 5 5 5 5 5 5 ",
"D D D T W W W W W H J V D V B r < , - $ 3 3 3 3 3 3 3 8 3 8 6 i ^ m.m.m.c.c.C.A.-X0X9X-XwX:X0X0X0X9X-X=XB.4.h s 0 9 5 5 6 5 5 5 ",
"N H D T ! T W ! R R H H N N b r 5 5 3 3 3 3 3 3 3 3 3 8 8 8 i f 5.c.c.n.A.=X=X0XrXpXwXrXwXwXpX-X8X8X9X-X=X=XV.R s r 5 5 5 9 9 6 ",
"T T T R R W ! W W T D W N D b y 6 , $ 3 $ 3 3 4 8 3 q q 8 8 9 y q.A.A.}.=X8XiXpXpXpXfXwX:X-X}.n.g.p.c.C.Z.=X-X=X7.s 9 5 5 9 9 4 ",
"D D S R R W W W W D H W T D M y 6 5 3 3 3 3 3 4 3 8 8 3 8 5 8 0 9.A.A.%X=X:XpXpXgXpX0X:XOXb./.z.s.i.6.6.C.=X=X8X=X4.0 9 9 8 9 9 ",
"T T T D T T T T T S G D D T S r < , , 3 3 3 3 3 4 5 5 6 8 i 7 r 9.%X=X=X0XpXwXgXpXrX9X+Xz./././.x.y./ / 0.A.=X-X8Xq.y 0 0 8 8 8 ",
"g F T T T D S S S S D G D D p r 6 , , - 3 3 3 3 5 5 5 7 7 i i i 9.=X=X-X0XhXhXgXgXpX8X}././.%./.z.%.( ^ / c.A.=XV.7.d 0 0 0 9 8 ",
"B B G G S S m p S A S B D D B r 7 5 , , 3 3 5 5 5 5 5 6 7 i i f 5.=X=X:X0XgXgXpXgXpXqXz.z./.u.z.x./ / / / q.c.B.0.R d s 0 9 q 0 ",
"! ( ! H W W K D V N u p p p i 7 f 7 5 , 3 3 5 5 4 5 , 7 7 y i f 8.=X-X0XgXgXfXiXrX0X8Xb.g.z.0.^ / %.o./ / ^ ^ ^ / ! f s 0 0 S 4.",
"W M ! W H H H H W N r p f i u r B r 6 5 4 4 5 , 5 5 5 6 7 y i i ^ 8XrXpXgXpXiXfXrXiX0Xb./ F i j h %.0.^ ^ 0.~ / / ! h 0 j 0.a.v.",
"T D W K H Q H ! W D B T D S S T T i 6 5 4 , 5 5 5 6 5 6 7 r r i E -XwXwXpXrXgXgXfXfX:Xb.E s 0 9 j T / / y.x.%.o./ T d 0 i p.x.v.",
"D M N W H D H D H G D D D T N T T t 6 6 4 , , 5 , 6 5 6 7 r y i R ;X:XwX9XaXgXgXhXaX-Xa.i j i y 0 E ^ a././.y.( ~ T i i f a.v.p.",
"u u r u u r u u u m a m p p t p p i 6 , 5 , 5 5 5 5 6 , 7 r p i 3.:X2X2X2X2XeXaXhXaX2Xp.h i i y i / z.(.(.(.%.( T T d i 0 a.v.n.",
"6 7 w w w w r 7 6 7 7 7 w r 9 6 i r < , 5 , 5 5 5 5 5 6 7 i f f ! ;XeX2X2X2XuXeXsXaX:Xb.g i u r p *.(.z._.}.%.~ ! T d y 0 0.v.9.",
"m N A F S E 3.R ! S D B S A m r r 7 - , , 4 4 4 , 5 6 7 7 0 0 0 3.;X2XeXuXsXsXsXeXeX2Xb.0.f u y r o./.%.(._.u.~ / ! i y s d a.3.",
"G N D R F ! ! W ^ W ( ^ W ! W m r 0 - - 5 5 5 4 , , 5 7 7 8 7 8 d n.uXeXhXjXjXsXsXsXwXz.6.u i u 7 i / / ~.].u.Q / ( d d A H J u.",
"G H W D R ! D W ~ ! ^ ^ H D W m 0 6 , - 5 - 4 4 4 4 6 7 7 q 4 q 0 c.2XeXsXjXjXjXeXeXwXa.d u f u i 7 7 h x.(.s.o./ ^ S Q X.P e.g.",
"D D S T D ! R T W ( / Y W W ( B 6 6 5 - - 5 - - 4 , 4 , 7 7 7 7 0 k.:XeXsXjXtXjXaXwXC.y 4 s y r 7 6 q 5 j / s./ ..P X.E.r.P W.[.",
"p p A R ! W T T T t , < M W W B r 6 5 5 5 5 4 5 4 4 , , , 7 7 i q d ;XuXtXyXuXjXaX;Xd q 9 r w 6 7 , 5 3 q 7 D W ..X.E.E.E.r.e.l.",
"D R 5.! T m w < , o O o = m Y B w 6 5 - 5 , 4 , , , , , 7 7 7 7 0 g c.2X2X>X+X+X+X3.j 0 w y u 4 7 7 , 5 , 3 i W X.r.W.{.E.r.t.a.",
"R ! ! i = o       & % @ @ 1 W M w , , , , , 4 4 , , , , < 7 7 7 9 f ! h.r.I v c N f 0 9 y y y y 7 7 , 5 5 q 0 Q X.E.Q.W.Q.E.E.a.",
"R 5.S O o o & % &   + @ , < W T 6 < 5 , , , , 5 , 5 5 7 7 7 r r i F ! $.F.I I c c c d q 0 y s y y s 8 4 4 6 K P t.E.E.E.t.X.X.r.",
"! R < O O     o     + @ @ < W T r 7 4 , , , 5 5 5 6 5 7 7 y r i i F L I I F.$.+.c c 0 8 9 u u u s s 8 8 4 K P P r.E.E.E.E.P K ..",
"D u o o         . + O @ @ w ( W r 6 6 , , , , , 5 6 8 7 7 r 7 i u F L $.`.oX.X{.*.x 9 8 y y y r u u q 8 A ..P t.t.E.E.E.E.E.X.X.",
"p + X O &   .   & @ @ @ $ B o.T r < 6 6 7 , 6 f ^ T 7 7 7 7 7 7 y F ] .X&XoX X`.*.m 8 8 y u y r u s s 4.i.e.7.K P t.E.E.W.t.t.t.",
"= o X o & X     &   o O , W / B r 6 6 < 6 6 ^ b.z.f.T r 7 < 7 7 d R Q. XoXoXY.` } t 9 0 f s 0 s s g i.i.g.l.8.G K d.Q.h.h.f.W.~.",
"+ o & o X   . X       o , T 0.! t 6 6 5 6 / z.(.(.T.Y t 7 7 7 7 u ! s.I.!.`.L.L M u h 8.8.4.f s s K W.k.5.F 4.F p K O.*.r.e.O.O.",
"o . .     .         + 1 T ^ 9.^ u 6 4 < f x.|.`.&X.X{ n b 7 < 7 u y.^.`.I.} L Z x f k.c.4.8.F 0 8 i.4.i.*X[.5.4.f y ( Q Q ! S f ",
"    & & X X   X . + , 1 W / 0.^ m r y w i z.(.'.&X.X_ a a 7 7 7 i /.`.Q.I.`.' n u F q.7.F 4.A 8 s 4.K +X@X{.e.7.F d S T a.6.E F ",
"o     X o X o + o ; < < 6.0.6.o.Q N Y Z m s.I._.XXI.b V 1 i < 7 ^ ].^.I.=.`.] Z t D q.u O.j.A 0 A 9.9.@Xs.t.A 4.K f R p.n.7.F F ",
"O         X o O O ; 1 e H / o.s.%.| V b t *.&.'.oX^.Y ].a 7 7 T ~.'.^.I.^.I.P C M D F u W [.H A G i.5.$X@Xt.K G 6.F R l.n.6.F F ",
";     .   X @ o o - : 1 C s.e.O.%. .Y %.).oX XXX X.X&.=.T 1 n ] _.XX_.'.(.^.=.j.V u 6 u W.[.N u K 9.K {.@X..c G 7.K S k.l.i.F F ",
"@ &     o + o X X @ * + K t...| %.| N }.'.oX.X'.U.Y._ b a a Y ` P.'.'.`.(._./.f.} e 4 r O.h...u F 4.f d.[.K G s 7.5.p e.g.6.R W ",
"@ o   o , @ + o X + o < X.E.X.}  .Y W *X_. X`.(.(.I.@.Y a Y n ` L.].'.^.].|.(.f.n w 6 6 w H e.A 7.A s A [.6.G F i.8.y ! v.6.W 6.",
", o X o o O o o       ; P O.Q C Y V / }.=.I. XI.%.=.&.Q a C Y ` P.'.].^.^.(.~.*.J e w r 9 w u 8.7.f f K [.K G n.n.k.i F 5.e.l.l.",
"O .   o o o o O o     + b ..V C _ Y %.A.%.] [ Z n N m t b n Y { [ T.`.T.%.R.f.*.J r 4 u y 0 y F 7.F i.+X+X}.n.OXV.g.R ;XeX}.y.g.",
"X     o O O + o @ + o & t o.J  ._ Y / n.m.( N < 6 7 7 r n V Y [ [ ` =.=.@.@.| | M e w w y y 9 0 F l.@X-X8X#XOX[.[.l.wXlX&X'.=.H ",
"      X O * * + = * = * M %.}  .| V W a.m.o.Y Y t r r u n V _ [ H.] Y Y J N H V m r w 6 w w w w F {.@X;X8X+Xl.[.l.;X<X`.^.].=.M ",
"    o @ * + * = O = = * : } o.+._ b ^ / %.*.Y N b r 6 t M V  .K.J.{ C b c t x m u r 4 0 y r 0 r u a.@X@X+Xl.l.7.F OXXX|.&XXX~.V ",
"O O + = * X o * - = ; ; : k } | _ Y ( *.=.%.| Y x w 7 b M Y ` K.J.H.] x t t u u x u e t y 0 y 0 0 r a.{.n.i.6.F ;.e.XX6X5X<Xb.N ",
"@ + @ = * + + * * - * : ; ; l } Y f.%.=.%.Y Y b 7 r r m Y  .H.K.K.G.[ C t t t m y y u f y y 0 y r r w x F F s 9 w G W.5XxX,X[.W ",
"+ * * + + + + * * O O @ - @ k v O.&. .Q Y n t 1 1 i u N | { [ K.K.J.G.' C a u A u A u u y y d y w y e r r u 9 y y u h.<X6X/./.M ",
"* * + * + + * o + @ + * : 1 k v L Y Z b b t t b t i i _ [ &.[ J.` L _ Y Y b f A A Z N u 0 y p p t 0 r r w 7 r y y p o.XX|.Q >Xo.",
"+ + * * * + * + * ; - * e x k l l c X.t.X.J N t t i T ] [ L.K.` ) [ J.J.[ _ M u m Z K V A f u y u r w w y w 9 y A W G h.,X6X>X!.",
"* + = = o o o + * ; ; * e > k l l l $.$.Z n b t u F 3.` [ J.J.K.K.J.J.' ] _ Z u x N V V H B f p y y w w u r 6 r y F A m /.>X(.O.",
"* * * + + + + O * ; ; # 1 x > z l l L P K H m u u 4.3.` J.[ K.K.J.J.L.[ K.I.` c y u m N M m p f y y y u y y 4 9 0 K K OXuX1X/.j.",
"* * = * * O + O * * ; O - > > U l l l I X.P M t A F ^ [ G.H.J.H.[ K.P.P.U.P. .C x w 0 M M y f f u y y u y e y 9 9 f +XbXzXcX3Xg.",
"* @ = = + + + + * ; = # @ ; > > U l l L N m u u E ^ ^ ` G.[ J.[ [ J.H.J.Y. .=.`.=.M u P t y p y y u 0 y y y y 4 s l.jXjXzXvXvXzX",
"* * - = + = O # * - $ # + * : > > z l v M M x t g 3.R @.[ [ [ ' ` G.[ K.' Q P. X^.Q.I.I.m y p y y y r y u u e 0 e.4XxXlXzXvXvXzX",
"= + # = + * # # + = # O & O : > > U l v Z N n B T E E Y { ' ' ` ` G.G.G.+.G H ^.`.@.Y } m 0 u y y u y 9 e y x ;.@X3XkXlXzXzXxXlX",
"* # $ + O + + + + = % % % # * ; > > U l v v c G R 0.B T _ ` ' ` ` G.G.G.} B H Q. XY.&.H 5 5 A p u y y y y u ;.w.uXkX3XlXzXxX6X.X",
"# # # & + * O # # * # # $ = * ; : > > z c c c F R 0.h T n ) [ ` ' G.G.K.V ~ =.!.!.Y.Q.@.M w u d f s y 9 y x E D.kXkX$XlXvXkX7X6X",
"O & O O + O + * 4 * # $ $ 4 * : ; ; : > v c t p E 0.E i g N ` ' ` H.H.K.I Q.W.E.Q.s.o.#.u 6 y u u y t y 4 u ;.N.yXkX$XXX7X5XoXxX",
"X .   X + O % # $ * % 4 # * # : > : 4 > v 6 6 w E 0.^ S S A C ' ' H.P.XX.X4X}.z.[.OX~ g.i 5 y u i p b B 7 j ,.2.M.+X4XX.Q.^.I.aX",
"X . . & O + + * $ # % 3 4 3 # 4 > > U e : - - < B 0.^ T g i n ] ' J.U..X&X4X}.o.[.@Xu.6.u t u t m t a n p j 2.2.1.,.k.e.Z Q V #X",
"O . . O X * * * 4 O % 3 3 # + ; ; * - - 4 ; = 6 T W ^ T S i p C ` G.I..X<X*X}.b.+X>X>X%.r t e x t w r r a :.:.:.-.-.<.-.h R q.%X",
"X . . X O * * - # # # 3 # % + ; - - - 6 6 ; 4 ; a n ( W f 0 r M L ' Y.XX>X(.x.*X}.4X1Xj.M 1 1 1 1 < < < < j :.1.-.j q -.-.B.%XqX",
"O X X X X * + + $ + & % O % * 4 - 4 - 6 < < < , 1 a W W T i y m C _ I.'.<Xb.m.@X>X3X[...B 1 1 2 2 < , < < <.1.w.<.>.-.7 3.B.qXqX",
"O O X X * +     # # 4 $ # - : * $ - 4 4 , , , < < i D W W f 0 u V C @.XX<X|.|.}.1X>Xh.u.| 1 1 1 1 1 < < a 1.,.1.N.M.<.;.B.S.qX%X",
"    X O * X     & * 4 * - - 4 * $ 5 5 , , @ O - < r S H ~ B y 0 x V @.R.<X@X|.|.3X>X|.h.].m 2 1 t r t 1 R 1.:.N.M.M.,.w.D.S.qX%X",
"    X * X X   &   + * - ; ; - * $ 5 - - , # # - - r p D ( p u 7 r n  .f.>X|.}.>X3X4X{.[...t 1 b Y Y _ ( / >.,.N.M.M.w.y.A.%XD.B."
};
