/* XPM */
static char *result[] = {
/* columns rows colors chars-per-pixel */
"64 64 247 2 ",
"   c #1D1C12",
".  c #1E1B0F",
"X  c #221E12",
"o  c #2C1811",
"O  c #351A13",
"+  c #24160F",
"@  c #252113",
"#  c #2B2414",
"$  c #2B261A",
"%  c #2B2719",
"&  c #322515",
"*  c #332B16",
"=  c #3A2C16",
"-  c #332C1B",
";  c #3B2D1A",
":  c #382518",
">  c #3C331C",
",  c #39331B",
"<  c #2B2B24",
"1  c #342D24",
"2  c #3C3524",
"3  c #3D3924",
"4  c #3C3B2A",
"5  c #373426",
"6  c #31362E",
"7  c #1F201A",
"8  c #461E15",
"9  c #442A1A",
"0  c #43341A",
"q  c #44391D",
"w  c #4B3C1D",
"e  c #49361B",
"r  c #523D1E",
"t  c #552C1C",
"y  c #423523",
"u  c #433B23",
"i  c #4B3C23",
"p  c #473C2A",
"a  c #563926",
"s  c #453528",
"d  c #673C27",
"f  c #3E4535",
"g  c #52421E",
"h  c #58461E",
"j  c #4E411E",
"k  c #4C4324",
"l  c #44422B",
"z  c #4C442B",
"x  c #4B492D",
"c  c #474527",
"v  c #534423",
"b  c #5A4523",
"n  c #5B4A24",
"m  c #53442B",
"M  c #534B2C",
"N  c #58492A",
"B  c #5B532B",
"V  c #4C4C32",
"C  c #484835",
"Z  c #544D33",
"A  c #5C4C34",
"S  c #544C3B",
"D  c #5B4B3C",
"F  c #544533",
"G  c #4D543D",
"H  c #4C5236",
"J  c #535334",
"K  c #5C5434",
"L  c #52543B",
"P  c #5D533A",
"I  c #555A3D",
"U  c #5B5B3B",
"Y  c #595A34",
"T  c #634B28",
"R  c #644D34",
"E  c #635334",
"W  c #64553B",
"Q  c #625C3A",
"!  c #6B5B3C",
"~  c #695836",
"^  c #75583B",
"/  c #67512D",
"(  c #5E623D",
")  c #64633C",
"_  c #6A6439",
"`  c #75673B",
"'  c #3F534B",
"]  c #5C4E41",
"[  c #495646",
"{  c #5C5444",
"}  c #545A43",
"|  c #5A5A48",
" . c #614F41",
".. c #645345",
"X. c #635C42",
"o. c #6B5D44",
"O. c #655549",
"+. c #6A5749",
"@. c #645B4A",
"#. c #6C5B4C",
"$. c #685644",
"%. c #755E48",
"&. c #6B5E51",
"*. c #715F51",
"=. c #5C6344",
"-. c #5E674A",
";. c #546556",
":. c #4E6659",
">. c #646443",
",. c #6C6344",
"<. c #6B6A44",
"1. c #6C644C",
"2. c #6C6B4B",
"3. c #63684A",
"4. c #736344",
"5. c #746B44",
"6. c #73654A",
"7. c #736B4B",
"8. c #7B6B4D",
"9. c #7B6845",
"0. c #7B7449",
"q. c #656352",
"w. c #6B6553",
"e. c #6C6954",
"r. c #6A6B59",
"t. c #736354",
"y. c #736B54",
"u. c #7D6E52",
"i. c #746D5B",
"p. c #7A6C5D",
"a. c #756658",
"s. c #677457",
"d. c #757253",
"f. c #7D7352",
"g. c #76735A",
"h. c #7C775A",
"j. c #6E724A",
"k. c #5A776A",
"l. c #7B6F62",
"z. c #776E62",
"x. c #677666",
"c. c #7B7265",
"v. c #7D7A66",
"b. c #7D7569",
"n. c #7E796C",
"m. c #747765",
"M. c #757D78",
"N. c #81593B",
"B. c #856D3D",
"V. c #8C733D",
"C. c #866B47",
"Z. c #87764B",
"A. c #957B49",
"S. c #837253",
"D. c #8C7C53",
"F. c #8C7B5C",
"G. c #867758",
"H. c #937D53",
"J. c #957A59",
"K. c #8A6E4E",
"L. c #827465",
"P. c #827769",
"I. c #847B6C",
"U. c #8A7D6E",
"Y. c #887C63",
"T. c #857E71",
"R. c #8A7F71",
"E. c #8C7A66",
"W. c #9A7353",
"Q. c #778167",
"!. c #79847C",
"~. c #6B8675",
"^. c #97824B",
"/. c #8A825A",
"(. c #93825C",
"). c #988557",
"_. c #96905D",
"`. c #A68A56",
"'. c #A98E54",
"]. c #8C8463",
"[. c #88836A",
"{. c #988868",
"}. c #878173",
"|. c #8C8373",
" X c #8E8875",
".X c #8C8B7A",
"XX c #85887B",
"oX c #928474",
"OX c #938B79",
"+X c #998C7B",
"@X c #938877",
"#X c #95927D",
"$X c #9A937C",
"%X c #999677",
"&X c #959170",
"*X c #A58B67",
"=X c #B39666",
"-X c #A79877",
";X c #B49D78",
":X c #A89267",
">X c #B4A77A",
",X c #AFA77B",
"<X c #CAA97A",
"1X c #727F81",
"2X c #758383",
"3X c #7A8683",
"4X c #7D8C8B",
"5X c #7A8887",
"6X c #7B938D",
"7X c #818E8B",
"8X c #858D84",
"9X c #84928E",
"0X c #8A948C",
"qX c #959381",
"wX c #9A9582",
"eX c #9D9A86",
"rX c #9B9D8B",
"tX c #969888",
"yX c #849492",
"uX c #899691",
"iX c #8C9B95",
"pX c #8C9D99",
"aX c #869897",
"sX c #939E94",
"dX c #949F96",
"fX c #A29C87",
"gX c #8FA19C",
"hX c #94A196",
"jX c #94A39C",
"kX c #9AA59B",
"lX c #9BA598",
"zX c #A7A389",
"xX c #B6AA85",
"cX c #A3AB9D",
"vX c #A2A594",
"bX c #B7B48B",
"nX c #9CAAA2",
"mX c #96A7A1",
"MX c #A2ADA3",
"NX c #A9B1A3",
"BX c #C7B58A",
"VX c #CABA97",
"CX c #D0B58B",
"ZX c #C9C295",
"AX c #D3C49D",
"SX c #D3C9A9",
"DX c #D6CDAF",
/* pixels */
"yXyX0X7X7X7X7X9X9X9X9X7X1X1X1X4X4X2X2X2X5X1X1X1X1X1X1X1X1XM.T.M.T.i.2.K k K o.@.F u i i w i i & X @ # # 0 i - % 7 @ @ < 5 < 6 6 ",
"9XyXyXyX9XyXyXuXuXuXyX4X1X7X7X7X4X5X5X5X2X2X5X1X1X1X1X1XM.M.8XM.M.M.z.Q ,.6.Y.p.Z p p y - 0 0 @ @ @ X X * > # @   X @ % < < < < ",
"9XuXyXyX9X9XyXaX9XyX4X7X7X7X7X4X4X4X4X5X5X5X5X5XM.1X1X8XM.1X2X1XM.T.M.c.oXoXoXI.$.#.#.A ; # $ @ X X @ @ * > 0 , @ @ @ @ $ @     ",
"0XuX0X9XuXuXuX7X7X9X7X9X7XyX7X4X4X2X2X4X4X1X1X1X3X1X8X1X3X2X2X2X2X8X8X@X+XoXoXU.U.t.$.D v , % X X X ; e w g g w > , 3 c 1 2 2 $ ",
"uXsXuXuXyXyX4XyX7XyX7X9XyX9XyX7X4X4X5X4X2X!.5X!.7X3X1X8X1X1X2X3X3X.XOX+X+XoXoXR.[.p.#.E k j % @ & * = v b n k 0 * e v b , i v v ",
"iXiXpXaXyXyX6XaXyXyXyXuXuXuXyX7X4X6X7X4X5X3X6X4X7X7X7X1X1X1X2X3X.XOXoX+XoXoXoXoXL.t.1.K B k q # > e r h T v w q * w T h v v v n ",
"iXpXaXaXaXyXyXaXyXyXaXpXsXuXyXyX7XyX6X9X6X4X4X8X7X7X7X7X3X2X1XXX XoXoXoXoXoXoXoXL.R A K M k k * 0 w n b T g w e 0 g h T T b v n ",
"iXiXaXyXyXyXyXaXaXaXaXsXpXiXpXyXyXuXuXyX9X4X4X4X7X7X9X7X8XXX X|.oXoX+X+X+XoXoXoXc.A S z z m k * & w v r e e 0 0 0 r T a T n q - ",
"aXyXyX6XyXyXyXaXpXpXsXsXpXpXiXyXuXuXyX9X0X9X9X9X8X8X8XXX8X.XoXoX@X+X+XR.R.R.R.U.L.+.$.R m v k j g w e e 0 9 e e e e r h h b 0 = ",
"aXyXyXyXyXaXaXaXpXdXsXdXiXiXpXiXuX0XyX9X9X9XyX9X0X8X8X.X X XOX+X@XOX+XR.R.R.U.E.L.*.4.A M i q h n n r h 0 0 e 0 0 e e r r w = = ",
"aXaXaXaXaXgXgXgXjXdXdXdXiXsXdXpX0XiX9X9X9X9X0X9X0X.X.X.X@X+XoXoXR.R.R.+XR.R.P.L.L.l.1.A k u v v g g r r 0 * = = e = 0 9 = 9 0 > ",
"jXgXgXaXuXgXaXgXjXjXdXdXiXpXpXpXpXpXuXuX9XyX0X0XuXqXOX XoX+XoXoX+X+XR.U.R.P.L.L.L.L.6.P F z k j g e g g e = > = = & # # & = 0 = ",
"mXmXmXgXiXhXaXgXjXjXgXpXjXpXgXpXjXiXiXiXiX0XiXpXiX#XOX X+XoXoXoXR.R.R.U.P.L.L.L.L.p.p.p.a.#.S k k , j e > , * = = @ . . @ & = = ",
"mXmXmXjXhXsXjXjXjXjXjXjXjXmXmXjXjXhXhXhXsXiXiXgXhXsXtX#X+XoXoXoXR.E.U.P.L.E.L.P.L.p.L.L.U.U.h.M h , * * > * . @ # @   . . @ X # ",
"nXlXlXlXsXhXmXmXmXkXnXjXkXmXmXjXhXhXhXgXhXuXpXhXkXlXvXrX+XoXoXoXR.R.E.E.L.L.L.L.l.p.L.L.L.8.%.k h j * * > * . . # X X     . . . ",
"lXrXzXrXlXjXnXnXnXMXnXMXMXkXkXhXhXhXjXjXjXgXpXhXrXrXfX+XoXoXR.U.*XR.U.E.P.L.L.L.w.q.p.6.6.E m n M h = , > * @ @ # # X @ @ .   . ",
"rXeXeXtXrXkXnXMXMXMXvXvXcXdXkXdXdXkXkXnXjXjXjXrXeXwXwX+XR.R.R.I.U.P.U.Y.Y.L.c.c.w.c.L.! M k m n h h , , q * # # # * # # . * *   ",
"wXqXwXrXrXrXcXNXrXwXwXwXwXwXrXvXnXkXkXnXMXkXlXeXwXoXR.R.R.U.I.P.P.P.P.I.L.c.c.c.r.c.Y.G.M M u v j j j > j * # # @ * # . # B ,   ",
"qXqXwXwXeXrXMXcXeXwXwXwXwXwXrXMXMXMXnXnXkXcXvX%XOXR.R.R.R.I.I.U.I.L.L.c.c.c.2.1.<.1.y.h.Y x q k > , h j j , # # # * . @ # y v * ",
"wXwXwXrXvXMXNXcXeXwX#XOX+XwXvXNXNXNXMXMXMXNXzXeX.XR.T.T.R.U.P.P.c.c.c.c.c.i.=.{ I I 3.>.( M u c j , j n h 0 # # # @ . @ # $ 0 # ",
"qXeXrXvXvXtX#XqXqXOXqXqXqXqXwXfXzXcXNXcXvXfXfX+XR.T.T.n.M.b.b.z.c.c.c.L.P.X.J H L G } H V z l u , * - B j > # # @ X @ - #   $ < ",
"qXeXeX#XOXOX X X X XOXOXOXoX+XwXwXvXfXeXeX$XOX XR.T.T.n.b.b.b.z.c.c.c.L.c.3.I L I G L L l u 3 i , < * B h > # @ @ @ @ # # X $ < ",
"OXOXOX X|.|.R.|.|.|.|.|.R.|.OXOXoX+XOXOX@X|.R.I.T.T.n.b.b.z.b.z.z.c.c.c.3.| I I L I L L c u 3 5 , < - h h j # # # # # @ @   < 1 ",
"OXOXOX X X|.|.|. X}.oX.XoXR.R.oXoX+XOXOXR.T.T.n.M.b.b.b.b.b.b.z.c.c.P.v.w.} G G I } } G l 4 4 3 5 < 5 c h j * # # # * & @ $ 1 X ",
" X X XOX|.oX X|. X}.|.oXR.R.R.oXoX@X@XoXT.n.n.n.b.b.b.b.b.z.b.z.c.c.b.z.=.3.d.2.=.G G G 4 4 5 4 5 5 4 c B b ; - @ # # @ $ $ @   ",
"OX X X|..XoX|.R.R.R.R.R.R.R.R.R.R.oXoX|.T.n.b.b.b.m.b.c.z.b.b.z.c.z.b.z.q.I.}.[.2.[ G f 4 4 5 5 5 z 8.8.! A i u < * p P P z 2 < ",
" X@X X|..X|.}.|.|.R.R.R.R.R.R.oX|.|.T.T.I.n.b.n.b.m.z.b.z.b.z.l.z.z.c.P.P.I.g.g.2.} L L C 3 5 5 4 @.{.-X(.u.o.6._ A E 6.8.6.E z ",
"|.|.|.|.}. X}.T.T.T.R.|..XR..X|.R.T.I.T.I.n.n.n.b.b.c.b.b.z.c.z.z.z.z.b.I.g.=.I ( I J L f 3 3 5 4 6.{.*X-X&XG.4.! o.6.(.(.S.! D ",
"@X|.|.|.|.}.}.R.T.T.}.}.|.|.|.}.}.T.}.I.I.I.I.n.n.b.b.b.c.c.c.z.z.l.b.P.n.z.=.I U U L L C Z J p 4 | S.F.{.&Xg.8.u.S.8.S.6.$.R p ",
"oX|.|. X|.}.}.T.R.T.R.}.}.|.}.}..X|.}.U.n.[.T.n.b.n.b.b.b.b.b.l.z.c.P.P.P.d.| Y Y Y L H L 1.G.8.P P F Q F.[.1.S.*XF.%.#.`.T i i ",
".X|.|.R.T.T.n.T.|.R.R.R.|.|. X@X|.|.|.I.}.n.n.n.n.n.b.b.b.b.P.l.l.c.b.l.c.t.Q 5.0.y.>.{ >.6.8.6.%.W F A 6.e.[ q.F.u.S.*XW.i i A ",
"R.R.}.P.c.T.T.T.R.U.R.}.}.|.oX|.R.T.R.R.I.}.I.I.n.n.P.n.P.b.b.b.c.c.b.p.a.1.W Q F.{.Y.y.6.W ! 6.8.f.%.K P f.4.S A S.S.*XN - ; R ",
"R.U.R.U.P.P.R.R.R.I.P.U.R.oX+XR.T.T.R.R.T.I.I.P.P.b.z.b.b.n.P.z.*.a.b.a.t.6.u.Z 8.F.G.q.f.f.F.u.8.F.G.m i ! S.W D J.! D i & 2 ^ ",
"}.R.R.R.U.*.z.P.R.P.c.U.oXR.R.R.R.R.I.I.I.b.b.I.c.#...O.i.P.P.t.] #.a.*.#.+.#.z S 9.i.r.F.F.{.9.%.{.4.u 2 u W A C C.8.%.%.: : / ",
"R.R.R.R.R.l.&.#.z.b.l.P.R.R.R.R.R.R.I.I.T.l.*.U.L.t... ...+..... . .#...] { y.A 2 W ;.;.G.F.J.! 8.J.W > - - A 6.9...y 2 & # n W.",
"U.U.R.R.R.*.&.O.t.a.l.U.oXR.R.R.R.P.L.l.p.*.#.*.#.+...D D  .......] ....{ | o.2 6 4 6.G.} W W A 4.S.R > ; - y Q ^ R i s 2 - `.<X",
"U.U.I.}.U.l.+. .&.w.l.P.L.R.R.R.U.*.+. . .....+.{ @...@.O.....$...O.| } | [ F 1 f 4 U 9.K k j , F o.i - - - > R ^ 4.! Q z l J.CX",
"P.c.I.U.T.S.*.+...+.*.#.L.R.R.E.*.+.+.O.O.+.#.#.#.@.#...{ { } { { } } [ } [ G L V x l E u - % f 4 E z } C x M ~ C.o.A i J i W ).",
"c.p.p.c.p.*.*.+.O. .O.O.*.*.#.#.+.#.*.O.#.%.#.6.a.a.t.X.L P V C V } [ =.[ [ G G J c x ,.x l 4 4 C V M I ( ) Y ! ^ Q B M Q x A N ",
"i.a.#.#.#.#.#.+.O.] ] O.#. . .+.+.O.#.*.#.$.L V C =.| } L Z c z x H G G G H H H J l V 3.{ =.( G J l M ( 5.0.2.>.B B B ~ ~ Q A E ",
"#.....#.+.O.O. . .] ] ] ] a &.*.#...#.#. .Z x M 3 x x H x V l c l l C f H f c H V l f ( ( =.I G U U ( ( _ /./.Z.C.~ A.A.W M K.:X",
"........R ....+. .F ] ] ] ] ] O...O.*.#...K K Z l l 3 x V l 4 p l C H x f x x x x H H H ( -.=.H x H -._ ` Z./.).^.B.B.;X!.L u.<X",
"......D  .....#.] ] p p ] ] O.*.*.*.*.*.7.5.5.5._ ~ K Y Y P Z l C C V V Y ( Y _ ) _ ( c H Y H ( V 3 x _ ` `.*X).=XC.^ G.6Xk.7.:X",
"#..... .O...+...O.] ] S ] &.z.l.*.*.+.&.D.Z.9.9.Z.0.5.` _ _ Q Y x x B ( ) j.` 0.Q._ ( H J H c ( J , 3 >.` ^.)./.;XA.R i.~.[ C.=X",
"a.*.*.*.a.*.#.#.@.@.@.$.*.p.U.p.+.w.X.7.D.).A.A.).0.` _ ` _ _ Y Q _ ` Q.^.^._._.^.` c c B c c ( J E k ) Z.].Q./.{.C./.!.[ L 4.A.",
"E.L.L.L.p.*.*.*.@...`.=XK.L.U.t.X.Y Y <.).).H.D.0.<.) ) _ _ _ _ _ ` 0.0.` /.0.0.Q.B c , c , c H J B k ` (.Q.2X~..X*XxXx.6 L ~ N.",
"E.E.P.L.L.p.l.*.,.C.<XCXC.%.E.,.U Y ! 0.(.).).G./.D.0._ _ _ ) ) ) j.j.( ( ` ( Y B B , * , , c H U ! v ` D./.k.k.~.bX-X[ 6 C Z R ",
"R.R.I.L.J.F.p.p.K.W.CX=X^ d ~ Q ) 5.K.H.{.(.).{.).^.0._ _ ( ) U J J J ( ( Y Y ( B h , , , , c H Q E / ^ D.:X].-.| | } q.:.[ 6 p ",
"R.R.+X;X*XK.+.*.C.=XCXJ.W.a a R ,.H.H.).).H.H.H.Z.f.j.j.) <.<.) I -.( -.=.( ( ( Y c c 3 3 u M J Y K K B.^.'.=X'.d.s.~.[.Q.k.' 4 ",
"R.+X+XAXCX=XK.p t N.CXxXW.t t R B.D.F.S.D.Z.Z.G.0.j.3.=.3.{.d.| -.s.-.-.j.j.3.3.j.( H x q z M K E Y 5.(.'.'.=X_.Q.%XbXbX,X/.;.' ",
"+X+XSXDXDXVXVXE.s O d ^ N.t O t ^ 5.G.Y.J.H.K.0.<.<.j.j.].d.j.s.Q.Q.s.s.s.s.s.-.-.( c l Y Y J Q >.<.0.5.^.'.<XZX%X&XQ.bXxX].Y ' ",
"&XxXDXDXSXVXDXbXJ.N.t t %.d o O O T o.7.Y.{.J.Z.C.7.2.0.,.<.<.s.Q.-.s.-.I I G I J c k l X.I Z ! ` 5.` B.^.^.BXZXbX&X/.,X,X_.Y :.",
"$X;X{.*X;XVXSXSX;XK.%.$.d 9 O O 8 8 t W y.u.Y.F.D.K.S.8.8.8.5.7.( ( ( H C x 3 4 , u c x @.7.A.`.A.`.Z.V.^.^.>XZXbXh.,XZX,XF.7.[ ",
"%XOX[.].*XVXDXSXCX;X^ s O O o 9 t 8 O s R R %.p.y.u.8.4.9.S.f.u.j.j.>.( P Y x 3 > 3 3 x 3.^.'.'.`.`.V.^._.Q.>XbX%X].zXZX,X/.4.c ",
"wX#X#X%X$XVXSXSXSXVXJ.^ C.R ] F $.a 8 o O 8 8 p.n.y.y.S.8.6.6.8.g.].].].h.7.X.Z z u l H /.`.'.'.'.'.A.'.Q.k.[.-X,X&X%X>XBX{.%.M ",
"#X#X.X.X%XBXVXSXSXVXJ.%.K.8.8.R C.N O o O O O 9 @.X.c.v.h.u.t.1.q.2.e.h.h.G.h.7.P V x H y.F.`.'.'.A.'.'._.j.0.f.F.0./.-X>X{.N b ",
"qXqX X XqXxXVXSXSXxX%.^ ^ R F b %.A 9 + O o o = : y i.v.v.c.p.r.i.e.| q.w.e.y.1.e.Q Q ( y.D.).).).`.'.'.'.'.^.H.J./ ~ ^ ^ ^ e e ",
"qXzXeXwXfXBXVXbXVX;XC.~ A R a 9 a i 9 + + o 9 w O 9 r.!.n.b.b.z.g.w.q.r.r.&.| @.g.g.g.7.) 7.Z.(.D.^.^.^.^.V.B.C.C.A.Z.` ` J.T e ",
"rX-X-X-X-X;X;X;X;X*X%.R ^ F A : : y y o O ; y y y C ~.5X~.M.M.i.r.w.w.i.r.w.;.@.r.g.r.r.>.X.>.8.0.f.Z./.A.^.A.B.V.V.V.B.` Z.a g ",
"[.[.L.L.C.*X;X;XJ.N.R R R p F & o 1 : & : 1 0 y y | !.M.m.x.r.O.q.q.O.| w.| &.| | q.e.e.w.X.X.X.>.d.d.f.h.h.].:X`.A.B.T T T B ` ",
"#XqXQ.c.G.-X8.E A F i y 9 +.F 0 O & o $ # $ ; > y p S L ] [ C C C { @.w.r.&.w.&.q.| | q.i.w.w.<.2.d.d.f.g.s.:.Q.;X-X0.v / ` ^.^.",
"].G.Y.].-XS.oXE.! F p 2 F $.m y 1 < $ $ # $ - 2 2 3 4 2 6 p C S ..#.w.q.w.z.r.q.@.@.| | @.q.w.w.1.d.d.d.h.m.k.Q.&X%X{.4.` V.^.^.",
"].E.&XzXoXY.E.{.u.@...{ | @.{ F p s 2 5 1 - 1 y y 2 2 5 5 p { w.y.i.y.i.i.q.r.&.i.q.q.r.r.i.y.y.2.y.y.y.h.Q.k.x.[.&X&X].].G.0.B.",
"[.&X-XxXxXxX,X:XE.S.S.p.6.#.+.{  .p a a 5 1 4 s 4 5 5 s p } q.w.i.w.@.q.q.&.@.| q.q.q.| q.i.i.i.y.u.7.y.g.m.s.x.x. X[.].Y.s.3.I "
};
