/* XPM */
static char *result[] = {
/* columns rows colors chars-per-pixel */
"64 64 213 2 ",
"   c #0F0D0B",
".  c #120F0C",
"X  c #15120E",
"o  c #1C150E",
"O  c #1F180F",
"+  c #161410",
"@  c #1B1611",
"#  c #1E1912",
"$  c #21170E",
"%  c #24190F",
"&  c #2B1C0F",
"*  c #321E0F",
"=  c #3A1E0E",
"-  c #201710",
";  c #231B12",
":  c #2B1D11",
">  c #321E10",
",  c #3B1F11",
"<  c #2F200F",
"1  c #34210F",
"2  c #3B240E",
"3  c #3F280E",
"4  c #2D2113",
"5  c #2F2318",
"6  c #272017",
"7  c #332212",
"8  c #3B2411",
"9  c #3D2914",
"0  c #362618",
"q  c #3C2E1C",
"w  c #3F3321",
"e  c #411E0E",
"r  c #491F0E",
"t  c #43230E",
"y  c #4C230E",
"u  c #442A0D",
"i  c #4B2A0E",
"p  c #54230E",
"a  c #5C240D",
"s  c #542C0F",
"d  c #5C2B0F",
"f  c #432511",
"g  c #4C2511",
"h  c #442A13",
"j  c #4B2B13",
"k  c #472A1A",
"l  c #502511",
"z  c #592712",
"x  c #522D12",
"c  c #5B2C13",
"v  c #5E2F18",
"b  c #4C3114",
"n  c #4B331B",
"m  c #533314",
"M  c #5B3414",
"N  c #5C3915",
"B  c #553519",
"V  c #5C361B",
"C  c #5B391C",
"Z  c #563816",
"A  c #63250D",
"S  c #6B260D",
"D  c #62290E",
"F  c #6B290E",
"G  c #732A0E",
"H  c #7B2B0E",
"J  c #77270D",
"K  c #632C12",
"L  c #6C2C12",
"P  c #662F19",
"I  c #732D12",
"U  c #792E13",
"Y  c #623412",
"T  c #6C3313",
"R  c #643C16",
"E  c #6B3C15",
"W  c #6B3519",
"Q  c #633B1B",
"!  c #6E3E19",
"~  c #66361C",
"^  c #743516",
"/  c #7C3214",
"(  c #7A3B14",
")  c #743E16",
"_  c #4C3A21",
"`  c #5D3D22",
"'  c #6B4016",
"]  c #65421B",
"[  c #6C441B",
"{  c #734316",
"}  c #73441C",
"|  c #7B4519",
" . c #734A1A",
".. c #7C4C1C",
"X. c #794516",
"o. c #7D521D",
"O. c #544127",
"+. c #6D4923",
"@. c #6A4724",
"#. c #7B4E22",
"$. c #754A21",
"%. c #7B5728",
"&. c #842D0E",
"*. c #892D0E",
"=. c #83300E",
"-. c #89320E",
";. c #8B2D10",
":. c #932F10",
">. c #833314",
",. c #8C3413",
"<. c #833C1A",
"1. c #863C16",
"2. c #943413",
"3. c #9C3515",
"4. c #9C3A15",
"5. c #9C3A19",
"6. c #963A17",
"7. c #97340F",
"8. c #A23515",
"9. c #A33A15",
"0. c #AC3915",
"q. c #A53C19",
"w. c #AD3D18",
"e. c #AB3715",
"r. c #B23C17",
"t. c #B33D1A",
"y. c #BA3F17",
"u. c #854918",
"i. c #964517",
"p. c #83521B",
"a. c #8D531C",
"s. c #8C591A",
"d. c #93551C",
"f. c #945B1B",
"g. c #9B5D1D",
"h. c #9B5516",
"j. c #A34815",
"k. c #B74219",
"l. c #A55818",
"z. c #B9541F",
"x. c #9B621D",
"c. c #98641D",
"v. c #A4621A",
"b. c #A6681E",
"n. c #AA6A1D",
"m. c #B06B1D",
"M. c #AE711E",
"N. c #834B21",
"B. c #845422",
"V. c #8D5220",
"C. c #895A25",
"Z. c #915321",
"A. c #9C5423",
"S. c #925B23",
"D. c #9B5C24",
"F. c #AE4820",
"G. c #A45C22",
"H. c #B05F20",
"J. c #8D642C",
"K. c #956225",
"L. c #9C6222",
"P. c #9D6826",
"I. c #93652C",
"U. c #996529",
"Y. c #9D6B2E",
"T. c #966E32",
"R. c #986B38",
"E. c #9D7039",
"W. c #A36525",
"Q. c #AB6624",
"!. c #A46A22",
"~. c #AC6C22",
"^. c #AB6528",
"/. c #A46C2B",
"(. c #B16B24",
"). c #B86829",
"_. c #AB7229",
"`. c #B37323",
"'. c #B1762F",
"]. c #BB732E",
"[. c #B57B2D",
"{. c #BA7C2C",
"}. c #AB7333",
"|. c #A97939",
" X c #B47830",
".X c #B77A35",
"XX c #A96431",
"oX c #C24219",
"OX c #C36F27",
"+X c #C57C34",
"@X c #CB7D35",
"#X c #A87F41",
"$X c #BB802F",
"%X c #AE833A",
"&X c #BD8334",
"*X c #B68338",
"=X c #CE852D",
"-X c #C28332",
";X c #C38439",
":X c #C98C3C",
">X c #C7893A",
",X c #C4913D",
"<X c #D5903D",
"1X c #B68947",
"2X c #BF974D",
"3X c #AF8648",
"4X c #C78D43",
"5X c #CE9444",
"6X c #D49444",
"7X c #CC9B56",
"8X c #DEA85E",
"9X c #E0A85A",
"0X c #D8AA67",
/* pixels */
"9 5 6 4 6 < O < O O O O o X O o $ $ $ $ $ X X X X X X - $ % $ $ % % - $ : : & : < 1 1 3 9 3 3 u i u h 0 < < < < % < < < % < 6 4 ",
"9 0 4 O < % O O O O O O O o $ X o $ o o - $ X X X X X X X $ $ % - & & $ & * 1 * 1 1 1 i u 3 2 u u 3 3 1 2 & & & % & & 1 < 4 4 4 ",
"7 4 % O % % $ $ O o o o o o O X X o o X o X . . X . . . . . X $ % - $ $ $ & 1 1 2 = & u u 3 2 t 1 1 1 < 2 & & & < 2 * < 6 # O O ",
"7 < % O O $ O o X o o o X X o $ $ o o . o   . X . . . . . . . . o $ $ o & % % & & % & & 1 2 < 1 1 1 1 < $ o $ $ & & & & O O + # ",
"7 6 < X < o o o o * % $ o X o & $ $ . o X . . . . . . . .   . . . X o $ $ % % % & & & % < 1 1 1 < < & % $ % & & $ % O % % % O O ",
"< ; O % O X o o * * & * $ X o $ $ $ $ X o . o X . . . .     . . X . $ $ % % $ o & $ $ $ % % < < < % % & $ o % & $ % o % O O 6 % ",
"7 < O O 6 o O o 2 = = = & X o $ $ $ $ o $ X X . X X . X X .   . . . & % % & O o $ & 1 % % & & 1 1 & & * % o $ % $ % & % O o O % ",
"7 6 6 O O o O O i = e e & o o % & & . o $ X o . . . . . X X . . . X X % & & $ o $ % 2 * % 1 1 2 < < < * $ $ $ o o % % % o X O 6 ",
"8 : % % O O O * u = = 2 & $ $ & $ & - - - . o . o X . . .     . X . o & > & % $ $ & % & % 1 2 u 2 1 < < 2 1 3 & o o o < & % O O ",
"7 % % % $ $ % 1 2 * * = o $ $ & * $ - - - . . o . X . X . . . o O o $ & > = & & $ $ % % % 1 1 1 < % < < < < 3 % o % % & 1 < O 6 ",
"7 ; % % $ o 1 h t 1 1 % X $ o & & & - - o . . . X X . X . X X $ $ O % & t 1 * $ o & & & % * 1 < < < 2 < 1 1 % O o % % & < < % O ",
"0 < & & - $ 2 8 1 t = & o o o & & & $ X . . o o o X o X . o X o & % % & 8 1 & $ $ & & % % ; 1 1 < 1 3 3 u 3 < o o o < O O O 6 O ",
"7 4 6 % % $ t 2 * * * & o o $ = * - $ - - X X X . X o X X o o o o $ % & , , 7 & & & * & & % 1 1 2 7 7 m s t < % X o % O o O O % ",
"7 < % % % & t 2 , * % $ o X $ & & $ - - - X X X X X - X X X o o $ $ $ * * * * : * & : > = : 1 3 3 < 7 ] ' i 2 % o o % o o O O O ",
"< < % % $ & 8 > > : : & $ X o $ $ - o - - . X X X o - o o X o - % $ o $ = * > > & & & & & & 7 2 3 1 u ' E 3 < O o o % O o O o # ",
"7 < % % $ : : - > , - o @ o o $ & $ $ $ $ X X X $ - - X X o o o $ $ & $ , = 1 * & , , , > 7 7 8 8 3 b P.K.b 4 ; o O 4 % ; O # ; ",
"7 < % % o O - ; > : ; + - + $ % % o + $ $ X X X o o $ o @ X o @ $ % & & : = 8 = 1 t 8 > 1 8 8 f 9 i m ..#.a.h : @ @ % - % O @ ; ",
"9 1 < % O % 7 # ; - # + @ + $ % % $ o $ o X X X + o o o @ $ @ o * 2 8 8 & : 8 8 8 > * 7 1 7 7 t u 3 2 J.&XW.h : o o - O - O @ ; ",
"7 < 4 % O & 1 ; - # @ @ - @ o - % o . X X . X X X . X X X o $ & t i h t * ; 8 8 8 = = 1 : 7 7 2 2 1 2 ..[ { 2 4 # X O : : @ - ; ",
"9 < 4 O o ; ; : # + @ @ - @ % - $ X X X X X X X X X X X X X o , s M Y s f * 8 1 * 7 7 = 1 8 7 1 2 < 2 9 M ] 7 6 o X X @ O @ # - ",
"8 7 * : @ O ; : # - - # - @ : @ + X . X . X X X X + + X X X & e s E Y s t 1 7 f 2 & 8 f , 7 7 7 8 2 2 8 Z o.Z 4 X O X @ X o # - ",
"9 7 8 & $ X ; > 5 ; # ; - @ @ + + X X X X X X o X @ @ + @ . : g d Y i s h 8 8 g h * * 8 h h 9 8 0 8 8 8 m ] b O - - - @ ; o # ; ",
"9 2 * % @ @ - ; : ; - @ @ + X + + + X X X X X X @ @ @ X . X & > d Y M s 8 f 7 f 8 = f h h k 9 8 2 1 1 7 8 9 4 O , & = = : $ # # ",
"h 1 : & o + # # - - # + @ + X X X + X X X X X . . @ X X . $ - % s Y c 2 % 7 & : = 8 8 h f h 1 8 2 4 4 7 4 % % % = = p p r : - # ",
"3 1 < & o + + # 6 # # + + + + + + @ X X X + X + X + X X X - * * t s i : & : = : < 4 1 8 8 8 , 8 8 , 7 7 * & * & = p A S r * % @ ",
"h 2 < % o X + # # # # @ + + + + o X # - % o o + X X X X - * = * 1 i = $ ; * > > & < & & 7 7 7 7 7 7 1 t * = = * y A J H p = = % ",
"b 2 1 O @ X @ # ; @ # @ @ # + @ @ % 8 B m u ; @ X + X X & % & : 7 1 f & & > : : < % 4 < & 1 7 : 7 : , x 2 t = t d F &.*.A e = * ",
"b 2 1 % o X @ # # # # # # # # @ ; M p.f. .h 7 @ @ X X @ % : > & & * 8 & % : 1 7 < < < < 7 4 7 : : ; 8 c u y u s F a F H A e e = ",
"j 2 < O o X # # ; # # ; # # ; ; h K.*X0X7XC.: @ X X X @ : : : ; & % * & ; 1 7 1 4 6 O O # ; ; # : : 8 v h s D Y J S J &.a = = * ",
"u 1 < O O X @ # # # # # # # - : [ /.*X8X8XY.7 @ o + X X - > = & % % : ; & 1 1 7 # +   . + + + + # 5 h v i D T G H J J ;.A = = * ",
"b 2 < % O o @ # # # # # ; ; 8 I #.Y.5X4XR.M 4 8 , O X X - & = & $ $ - @ & 1 & o +       . + + + + > x K t M ( :.G H &.;.A e * * ",
"b 2 < % O X @ # # # # ; 6 f >.j...#.:X5X} m ; > f > O X - : : - - - & & < 1 # X     + + + + + + @ 8 K g 2 N >.2.H H ;.;.A e & * ",
"j u 1 % # + # # # ; - ; a e.k.j.J.J.}.+.8 > @ : 8 , : - @ @ : : : * & % : 1 * - @ 7 * @ X + + + ; h I 7 h [ =.7.=.H *.:.S y * & ",
"h t 1 % # + # 6 ; ; ; f 3.k.oXi.U.%XK.m : ; @ ; : r > - @ - - : > : : % : 1 < , : 1 j i 8 ; 6 # 6 g K 8 m ' ,.-.=.G &.&.a r & & ",
"j 3 8 % @ X @ # ; ; : ,.r.oXoXl.P.2X%XT.%.6 @ 7 , l e : - - - - $ O ; ; 6 2 1 1 > f Y s Y f , ; ; L c v ..X.2.=.H F S F p r % > ",
"h 3 , - - + @ # ; ; p 0.r.oXoXl.c.%X%XJ.J.4 ; j l U A g , - @ @ o O ; : & 2 : : 7 8 ( ( ^ h ; ; 8 ^ ! d.v.l.9.-.=.F a S r y % > ",
"b 3 2 o - X # 6 ; , 2.w.e.y.y.j.g.h...] ] ; 1 L P ,.>.I l : @ # # ; : 6 6 7 6 & 7 7 c c x 9 ; 0 k W u.A.n.h.4.-.&.a a A > r : : ",
"h 3 7 % - # ; 6 : U e.0.0.0.e.j.h.a. .R Z 1 M / / q.6.<.K f - ; # ; ; ; & < < % : 7 8 T y 4 ; 0 g P E X.u.Y -.&.S a a p - r & - ",
"u 7 7 % - - ; ; g q.t.e.e.8.5.,.u.X.X.' R h R ,.,.q.q.q.U x ; # @ @ % - 6 < % 6 7 1 2 x j 7 7 9 k K j j = & D G a a a p - = & - ",
"b 2 1 < ; ; ; ; U t.t.0.e.3.3.U d R { ' m j ) 6.,.8.w.r.2.c , @ @ @ # % < 7 2 1 7 7 j N j 9 j h g K : : : : p F p p p p - * & - ",
"b 3 1 & % % ; 7 5.r.e.0.e.3.2./ i Y R j > h u.4.:.0.t.0.e.I f - o O @ ; 7 t 8 7 1 > m M m j Z n k P k ; h 2 p D p e p r $ & & $ ",
"9 1 1 < % % : L 5.8.8.8.8.8.8.U X.(.D.N > 7 ` 2.3.e.t.e.8.>.f : # # - ; 7 7 7 7 7 7 N b 9 9 m h f v v : 8 1 l A p = p r $ % & - ",
"9 < % % % ; 8 / g P ^ 6.<.<.<.E v.^.#.h 7 > B >.6.5.w.q.8.2.g = - # - ; ; ; < 4 < 4 N b n h B k 8 f v : , * r p p = e e o - & @ ",
"9 < < o ; - , k z u.D.).V.Z.A.W f.V.R x x g 8 A 8.w.oXk.w.6.z f ; - - - % % 7 1 7 i m 9 q 9 9 0 : g l > > * = r r = r e $ X & & ",
"8 < % % % o , P ~ Q C.|.N.<.F.^ a.d.~ j Y d 8 f 5.H.OXi.L K z f ; - ; - ; % 1 3 h m m b h k 9 : ; : : 0 9 8 > = e * r e - @ & & ",
"9 1 < % % o - K _ w #.|.Y.N.t.^ a.W.N x W T , >.l.W.).u.b ; > 7 ; - ; % % 6 s M E { | Y h k h ; # # 6 : f 8 x g = , r e > - - & ",
"h 2 % % % @ # ; v q ` R.3X#.5./ Q.-XB.B W M g k.A.3XE.C 9 ; - ; - @ - - % 4 m M ' { N j h 8 7 # @ @ ; : 8 8 z z y e r r : o + - ",
"9 1 : & % - - # 8 V _ $.3XI.W W.:X5X XB x k Y XX|.3X@.0 # + # 6 ; @ # - 4 3 u m s b h 7 8 0 0 ; # # : 0 k 8 A L S A a r , - @ @ ",
"9 < < 4 O o ; o 4 Q O.n C.}.D.}. X&X'.Z.{ } A..XR.+.9 4 8 ; # 0 : # - : 9 u u f u 7 6 0 q q 0 6 # # > 0 h = A F G A S a * % o - ",
"h 7 < < 4 ; 6 6 # h ` q %.:X<X+X-X{.(.G.G.@XOXQ.+.0 8 9 j 0 # 7 7 ; ; 6 2 t j i j 2 6 ; 6 0 5 ; # 6 5 > h 2 K G G S A p , & - - ",
"9 9 1 1 < < 4 4 6 5 C _ I.+X6X+X].-X{.H.^.].).V.k 9 8 8 b 2 o 6 4 ; ; 6 8 h h j b j h 0 6 4 7 ; 6 5 : > j 2 D I I S a a e > & - ",
"9 7 7 7 7 6 4 5 6 7 n C.&X+X@X].}.{.=Xl.G.V.Z.~ 9 h f 8 j 2 o 6 7 ; ; ; 1 j 8 t j m j 8 1 6 ; : ; > ; ; t 2 A F G G p p e > ; - ",
"9 7 < < < < 7 4 5 ; m Q.>X+X].^.W.&X=X~.u.N.N.B 5 8 8 8 2 % X # 7 : @ - 3 h u 8 8 7 h 7 8 7 > > ; ; # - e , A A J J p p r & - - ",
"9 < < < % < 6 7 : 7 ~ Q.4X5X).).~.&X-X_.W.V.] Y u 6 2 1 7 % @ + 0 0 ; 6 h 9 h 9 4 : 8 1 1 7 8 8 ; # # : f , p A I J r r l : : : ",
"9 < < % O < 7 < 5 0 W `.{.6X4X*X&X,X,Xx.....P.' d = % * ; % o X 7 7 ; ; 0 8 h 9 0 7 4 > < 8 9 4 5 ; # ; f y A A S S l r l , : & ",
"b 9 < 6 O O 6 6 5 0 ) {.[.4X7X4X-X&X&Xa.k ] o.X.Y t % < ; % o + 6 6 ; ; 7 8 8 k h 9 7 4 4 7 4 4 > ; ; ; : e K d U S l e r , : & ",
"b 1 < % < 4 ; 4 : 0 S.&X[.;X7X>X'.!.[.o.h h h Y s u o < 6 O o + % 4 + ; 4 < < u 9 9 < 6 ; # < 4 4 ; ; # - 1 z a U S l > e , : 6 ",
"3 1 < < 1 7 9 7 : B '.[.[.[.,X>X!.b.M.s. .8 h u y u # < O # o + o 4 < 6 O 6 1 h h 7 4 6 # # 6 4 : ; ; ; - 1 y p I S r : e e > : ",
"9 1 % < < 7 7 4 7 Z  .C.#.u.K.K.x.n.c.c. .7 0 < 2 * # 6 ; # o o + 4 6 4 < 6 4 0 < 6 6 6 # # 6 7 : # ; 7 ; & r p S A r : e , : , ",
"9 7 < 6 4 4 4 6 7 j u.f.f.f.a.' s.b.s.c.Z 7 ; ; O O # < # ; # # o < 7 < 6 < 2 < < 6 O # # ; 4 7 ; # ; : - & > f S A l , - , : : ",
"7 6 < O 6 < 7 4 1 R v.L.`.{.{.f. .o.m 9 < 1 6 # % ; % 7 ; ; # o o O < O % < 7 6 5 6 6 # O 6 6 6 # @ ; ; - & % : A A z e , & > > ",
"7 4 % % % < 7 7 i p.M.W.`.[.~.n.] Z 9 < 6 1 4 % % ; 7 7 < o O # O o O O % < 4 4 6 # # # # 6 ; # # # - ; & % - : r z l e , : , > ",
"< % % < % & 4 < N d.!.D.!.~.Q.n.c.h 7 7 1 7 % 6 < 4 < 1 < # o # # o o o o 6 6 O O + O + O 6 # # # @ # # - & - ; : > r e > - , : ",
"7 < & < < 1 < 7 Y a.v.f.L.b.~.n.x. .Z j 8 6 % 6 7 < 7 2 < O o o # O 6 O 4 ; ; O % 6 O + # # # @ @ + @ # - ; - ; ; - & & - - e > "
};
